Padauk-ExtraBold.ufo
<glyph name="ampersand" format="2">
  <advance width="703"/>
  <unicode hex="0026"/>
  <outline>
    <contour>
      <point x="298" y="-12" type="curve" smooth="yes"/>
      <point x="384" y="-12"/>
      <point x="449" y="7"/>
      <point x="492" y="45" type="curve"/>
      <point x="540" y="0" type="line"/>
      <point x="694" y="0" type="line"/>
      <point x="634" y="43"/>
      <point x="590" y="82"/>
      <point x="561" y="117" type="curve"/>
      <point x="594" y="184"/>
      <point x="611" y="261"/>
      <point x="618" y="339" type="curve"/>
      <point x="496" y="339" type="line"/>
      <point x="496" y="333"/>
      <point x="496" y="328"/>
      <point x="496" y="322" type="curve" smooth="yes"/>
      <point x="496" y="277"/>
      <point x="489" y="235"/>
      <point x="475" y="198" type="curve"/>
      <point x="414" y="253"/>
      <point x="367" y="302"/>
      <point x="333" y="346" type="curve"/>
      <point x="396" y="391"/>
      <point x="465" y="441"/>
      <point x="465" y="531" type="curve" smooth="yes"/>
      <point x="465" y="622"/>
      <point x="366" y="655"/>
      <point x="286" y="655" type="curve" smooth="yes"/>
      <point x="208" y="655"/>
      <point x="99" y="621"/>
      <point x="99" y="523" type="curve" smooth="yes"/>
      <point x="99" y="462"/>
      <point x="126" y="410"/>
      <point x="181" y="366" type="curve"/>
      <point x="92" y="323"/>
      <point x="48" y="259"/>
      <point x="48" y="174" type="curve" smooth="yes"/>
      <point x="48" y="39"/>
      <point x="176" y="-12"/>
    </contour>
    <contour>
      <point x="301" y="76" type="curve" smooth="yes"/>
      <point x="238" y="76"/>
      <point x="174" y="113"/>
      <point x="174" y="186" type="curve" smooth="yes"/>
      <point x="174" y="217"/>
      <point x="195" y="253"/>
      <point x="237" y="295" type="curve"/>
      <point x="279" y="243"/>
      <point x="338" y="183"/>
      <point x="415" y="114" type="curve"/>
      <point x="390" y="89"/>
      <point x="352" y="76"/>
    </contour>
    <contour>
      <point x="276" y="408" type="curve"/>
      <point x="236" y="450"/>
      <point x="216" y="484"/>
      <point x="216" y="510" type="curve" smooth="yes"/>
      <point x="216" y="542"/>
      <point x="247" y="567"/>
      <point x="291" y="567" type="curve" smooth="yes"/>
      <point x="323" y="567"/>
      <point x="355" y="537"/>
      <point x="355" y="513" type="curve" smooth="yes"/>
      <point x="355" y="474"/>
      <point x="314" y="434"/>
    </contour>
  </outline>
</glyph>
<glyph name="slash" format="2">
  <advance width="558"/>
  <unicode hex="002F"/>
  <outline>
    <contour>
      <point x="144" y="-275" type="line"/>
      <point x="502" y="747" type="line"/>
      <point x="412" y="831" type="line"/>
      <point x="55" y="-186" type="line"/>
    </contour>
  </outline>
</glyph>
<glyph name="one" format="2">
  <advance width="511"/>
  <unicode hex="0031"/>
  <outline>
    <contour>
      <point x="241" y="0" type="line"/>
      <point x="361" y="0" type="line"/>
      <point x="361" y="643" type="line"/>
      <point x="250" y="643" type="line"/>
      <point x="207" y="601"/>
      <point x="153" y="568"/>
      <point x="88" y="543" type="curve"/>
      <point x="88" y="433" type="line"/>
      <point x="144" y="450"/>
      <point x="195" y="478"/>
      <point x="241" y="517" type="curve"/>
    </contour>
  </outline>
</glyph>
<glyph name="three" format="2">
  <advance width="511"/>
  <unicode hex="0033"/>
  <outline>
    <contour>
      <point x="256" y="-12" type="curve" smooth="yes"/>
      <point x="360" y="-12"/>
      <point x="469" y="65"/>
      <point x="469" y="181" type="curve" smooth="yes"/>
      <point x="469" y="277"/>
      <point x="405" y="317"/>
      <point x="334" y="336" type="curve"/>
      <point x="396" y="358"/>
      <point x="453" y="393"/>
      <point x="453" y="471" type="curve" smooth="yes"/>
      <point x="453" y="580"/>
      <point x="375" y="655"/>
      <point x="256" y="655" type="curve" smooth="yes"/>
      <point x="127" y="655"/>
      <point x="42" y="586"/>
      <point x="42" y="474" type="curve"/>
      <point x="166" y="474" type="line"/>
      <point x="166" y="527"/>
      <point x="201" y="558"/>
      <point x="252" y="558" type="curve" smooth="yes"/>
      <point x="300" y="558"/>
      <point x="328" y="524"/>
      <point x="328" y="466" type="curve" smooth="yes"/>
      <point x="328" y="399"/>
      <point x="268" y="385"/>
      <point x="183" y="384" type="curve"/>
      <point x="183" y="286" type="line"/>
      <point x="285" y="286"/>
      <point x="343" y="281"/>
      <point x="343" y="190" type="curve" smooth="yes"/>
      <point x="343" y="122"/>
      <point x="305" y="85"/>
      <point x="249" y="85" type="curve" smooth="yes"/>
      <point x="201" y="85"/>
      <point x="168" y="124"/>
      <point x="168" y="181" type="curve"/>
      <point x="42" y="181" type="line"/>
      <point x="42" y="52"/>
      <point x="113" y="-12"/>
    </contour>
  </outline>
</glyph>
<glyph name="four" format="2">
  <advance width="511"/>
  <unicode hex="0034"/>
  <outline>
    <contour>
      <point x="291" y="0" type="line"/>
      <point x="411" y="0" type="line"/>
      <point x="411" y="141" type="line"/>
      <point x="492" y="141" type="line"/>
      <point x="492" y="243" type="line"/>
      <point x="411" y="243" type="line"/>
      <point x="411" y="643" type="line"/>
      <point x="256" y="643" type="line"/>
      <point x="19" y="256" type="line"/>
      <point x="19" y="141" type="line"/>
      <point x="291" y="141" type="line"/>
    </contour>
    <contour>
      <point x="129" y="243" type="line"/>
      <point x="291" y="525" type="line"/>
      <point x="291" y="243" type="line"/>
    </contour>
  </outline>
</glyph>
<glyph name="equal" format="2">
  <advance width="740"/>
  <unicode hex="003D"/>
  <outline>
    <contour>
      <point x="100" y="271" type="line"/>
      <point x="640" y="271" type="line"/>
      <point x="640" y="385" type="line"/>
      <point x="100" y="385" type="line"/>
    </contour>
    <contour>
      <point x="100" y="61" type="line"/>
      <point x="640" y="61" type="line"/>
      <point x="640" y="175" type="line"/>
      <point x="100" y="175" type="line"/>
    </contour>
  </outline>
</glyph>
<glyph name="greater" format="2">
  <advance width="891"/>
  <unicode hex="003E"/>
  <outline>
    <contour>
      <point x="178" y="34" type="line"/>
      <point x="712" y="238" type="line"/>
      <point x="712" y="295" type="line"/>
      <point x="178" y="499" type="line"/>
      <point x="178" y="414" type="line"/>
      <point x="571" y="267" type="line"/>
      <point x="178" y="120" type="line"/>
    </contour>
  </outline>
</glyph>
<glyph name="D" format="2">
  <advance width="649"/>
  <unicode hex="0044"/>
  <outline>
    <contour>
      <point x="63" y="0" type="line"/>
      <point x="258" y="0" type="line" smooth="yes"/>
      <point x="453" y="0"/>
      <point x="600" y="109"/>
      <point x="600" y="322" type="curve" smooth="yes"/>
      <point x="600" y="524"/>
      <point x="463" y="643"/>
      <point x="258" y="643" type="curve" smooth="yes"/>
      <point x="63" y="643" type="line"/>
    </contour>
    <contour>
      <point x="195" y="102" type="line"/>
      <point x="195" y="541" type="line"/>
      <point x="258" y="541" type="line" smooth="yes"/>
      <point x="398" y="541"/>
      <point x="468" y="468"/>
      <point x="468" y="322" type="curve" smooth="yes"/>
      <point x="468" y="175"/>
      <point x="398" y="102"/>
      <point x="258" y="102" type="curve" smooth="yes"/>
    </contour>
  </outline>
</glyph>
<glyph name="F" format="2">
  <advance width="520"/>
  <unicode hex="0046"/>
  <outline>
    <contour>
      <point x="63" y="0" type="line"/>
      <point x="195" y="0" type="line"/>
      <point x="195" y="280" type="line"/>
      <point x="453" y="280" type="line"/>
      <point x="453" y="382" type="line"/>
      <point x="195" y="382" type="line"/>
      <point x="195" y="541" type="line"/>
      <point x="471" y="541" type="line"/>
      <point x="471" y="643" type="line"/>
      <point x="63" y="643" type="line"/>
    </contour>
  </outline>
</glyph>
<glyph name="J" format="2">
  <advance width="558"/>
  <unicode hex="004A"/>
  <outline>
    <contour>
      <point x="268" y="-12" type="curve" smooth="yes"/>
      <point x="382" y="-12"/>
      <point x="496" y="63"/>
      <point x="496" y="190" type="curve" smooth="yes"/>
      <point x="496" y="645" type="line"/>
      <point x="363" y="645" type="line"/>
      <point x="363" y="198" type="line" smooth="yes"/>
      <point x="363" y="122"/>
      <point x="336" y="90"/>
      <point x="264" y="90" type="curve" smooth="yes"/>
      <point x="210" y="90"/>
      <point x="183" y="127"/>
      <point x="183" y="202" type="curve"/>
      <point x="48" y="202" type="line"/>
      <point x="48" y="62"/>
      <point x="106" y="-12"/>
    </contour>
  </outline>
</glyph>
<glyph name="M" format="2">
  <advance width="828"/>
  <unicode hex="004D"/>
  <outline>
    <contour>
      <point x="63" y="0" type="line"/>
      <point x="187" y="0" type="line"/>
      <point x="187" y="534" type="line"/>
      <point x="349" y="0" type="line"/>
      <point x="478" y="0" type="line"/>
      <point x="640" y="534" type="line"/>
      <point x="640" y="0" type="line"/>
      <point x="766" y="0" type="line"/>
      <point x="766" y="646" type="line"/>
      <point x="552" y="646" type="line"/>
      <point x="414" y="178" type="line"/>
      <point x="276" y="643" type="line"/>
      <point x="63" y="643" type="line"/>
    </contour>
  </outline>
</glyph>
<glyph name="R" format="2">
  <advance width="607"/>
  <unicode hex="0052"/>
  <outline>
    <contour>
      <point x="63" y="0" type="line"/>
      <point x="195" y="0" type="line"/>
      <point x="195" y="262" type="line"/>
      <point x="312" y="262" type="line" smooth="yes"/>
      <point x="375" y="262"/>
      <point x="403" y="220"/>
      <point x="412" y="154" type="curve" smooth="yes"/>
      <point x="419" y="104"/>
      <point x="421" y="53"/>
      <point x="438" y="0" type="curve"/>
      <point x="574" y="0" type="line"/>
      <point x="550" y="42"/>
      <point x="545" y="197"/>
      <point x="520" y="257" type="curve" smooth="yes"/>
      <point x="504" y="296"/>
      <point x="466" y="309"/>
      <point x="423" y="319" type="curve"/>
      <point x="486" y="344"/>
      <point x="559" y="389"/>
      <point x="559" y="471" type="curve" smooth="yes"/>
      <point x="559" y="586"/>
      <point x="477" y="643"/>
      <point x="312" y="643" type="curve" smooth="yes"/>
      <point x="63" y="643" type="line"/>
    </contour>
    <contour>
      <point x="195" y="364" type="line"/>
      <point x="195" y="541" type="line"/>
      <point x="312" y="541" type="line" smooth="yes"/>
      <point x="363" y="541"/>
      <point x="426" y="510"/>
      <point x="426" y="450" type="curve" smooth="yes"/>
      <point x="426" y="396"/>
      <point x="353" y="364"/>
      <point x="303" y="364" type="curve" smooth="yes"/>
    </contour>
  </outline>
</glyph>
<glyph name="U" format="2">
  <advance width="673"/>
  <unicode hex="0055"/>
  <outline>
    <contour>
      <point x="330" y="-12" type="curve" smooth="yes"/>
      <point x="493" y="-12"/>
      <point x="612" y="92"/>
      <point x="612" y="265" type="curve" smooth="yes"/>
      <point x="612" y="643" type="line"/>
      <point x="478" y="643" type="line"/>
      <point x="478" y="265" type="line" smooth="yes"/>
      <point x="478" y="148"/>
      <point x="430" y="90"/>
      <point x="334" y="90" type="curve" smooth="yes"/>
      <point x="241" y="90"/>
      <point x="195" y="148"/>
      <point x="195" y="265" type="curve" smooth="yes"/>
      <point x="195" y="643" type="line"/>
      <point x="63" y="643" type="line"/>
      <point x="63" y="265" type="line" smooth="yes"/>
      <point x="63" y="103"/>
      <point x="156" y="-12"/>
    </contour>
  </outline>
</glyph>
<glyph name="X" format="2">
  <advance width="618"/>
  <unicode hex="0058"/>
  <outline>
    <contour>
      <point x="9" y="0" type="line"/>
      <point x="142" y="0" type="line"/>
      <point x="297" y="244" type="line"/>
      <point x="456" y="0" type="line"/>
      <point x="607" y="0" type="line"/>
      <point x="381" y="334" type="line"/>
      <point x="591" y="643" type="line"/>
      <point x="453" y="643" type="line"/>
      <point x="316" y="426" type="line"/>
      <point x="178" y="643" type="line"/>
      <point x="28" y="643" type="line"/>
      <point x="232" y="334" type="line"/>
    </contour>
  </outline>
</glyph>
<glyph name="bracketright" format="2">
  <advance width="348"/>
  <unicode hex="005D"/>
  <outline>
    <contour>
      <point x="73" y="-177" type="line"/>
      <point x="274" y="-177" type="line"/>
      <point x="274" y="643" type="line"/>
      <point x="73" y="643" type="line"/>
      <point x="73" y="562" type="line"/>
      <point x="168" y="562" type="line"/>
      <point x="168" y="-96" type="line"/>
      <point x="73" y="-96" type="line"/>
    </contour>
  </outline>
</glyph>
<glyph name="grave" format="2">
  <advance width="258"/>
  <unicode hex="0060"/>
  <outline>
    <contour>
      <point x="109" y="614" type="line"/>
      <point x="171" y="614" type="line"/>
      <point x="90" y="775" type="line"/>
      <point x="-26" y="775" type="line"/>
    </contour>
  </outline>
</glyph>
<glyph name="f" format="2">
  <advance width="316"/>
  <unicode hex="0066"/>
  <outline>
    <contour>
      <point x="88" y="0" type="line"/>
      <point x="210" y="0" type="line"/>
      <point x="210" y="369" type="line"/>
      <point x="303" y="369" type="line"/>
      <point x="303" y="445" type="line"/>
      <point x="210" y="445" type="line"/>
      <point x="210" y="510" type="line" smooth="yes"/>
      <point x="210" y="554"/>
      <point x="221" y="576"/>
      <point x="265" y="576" type="curve" smooth="yes"/>
      <point x="283" y="576"/>
      <point x="300" y="571"/>
      <point x="316" y="562" type="curve"/>
      <point x="316" y="639" type="line"/>
      <point x="284" y="650"/>
      <point x="254" y="655"/>
      <point x="226" y="655" type="curve" smooth="yes"/>
      <point x="133" y="655"/>
      <point x="88" y="617"/>
      <point x="88" y="513" type="curve" smooth="yes"/>
      <point x="88" y="445" type="line"/>
      <point x="9" y="445" type="line"/>
      <point x="9" y="369" type="line"/>
      <point x="88" y="369" type="line"/>
    </contour>
  </outline>
</glyph>
<glyph name="g" format="2">
  <advance width="546"/>
  <unicode hex="0067"/>
  <outline>
    <contour>
      <point x="267" y="-177" type="curve" smooth="yes"/>
      <point x="408" y="-177"/>
      <point x="487" y="-113"/>
      <point x="487" y="4" type="curve" smooth="yes"/>
      <point x="487" y="445" type="line"/>
      <point x="367" y="445" type="line"/>
      <point x="367" y="405" type="line"/>
      <point x="330" y="439"/>
      <point x="294" y="457"/>
      <point x="237" y="457" type="curve" smooth="yes"/>
      <point x="117" y="457"/>
      <point x="40" y="368"/>
      <point x="40" y="216" type="curve" smooth="yes"/>
      <point x="40" y="92"/>
      <point x="112" y="1"/>
      <point x="246" y="1" type="curve" smooth="yes"/>
      <point x="288" y="1"/>
      <point x="328" y="26"/>
      <point x="367" y="75" type="curve"/>
      <point x="367" y="-62"/>
      <point x="350" y="-101"/>
      <point x="268" y="-101" type="curve" smooth="yes"/>
      <point x="215" y="-101"/>
      <point x="184" y="-78"/>
      <point x="184" y="-47" type="curve"/>
      <point x="64" y="-47" type="line"/>
      <point x="64" y="-111"/>
      <point x="105" y="-177"/>
    </contour>
    <contour>
      <point x="265" y="82" type="curve" smooth="yes"/>
      <point x="190" y="82"/>
      <point x="159" y="146"/>
      <point x="159" y="216" type="curve" smooth="yes"/>
      <point x="159" y="282"/>
      <point x="184" y="382"/>
      <point x="270" y="382" type="curve" smooth="yes"/>
      <point x="336" y="382"/>
      <point x="369" y="328"/>
      <point x="369" y="220" type="curve" smooth="yes"/>
      <point x="369" y="159"/>
      <point x="340" y="82"/>
    </contour>
  </outline>
</glyph>
<glyph name="i" format="2">
  <advance width="235"/>
  <unicode hex="0069"/>
  <outline>
    <contour>
      <point x="58" y="0" type="line"/>
      <point x="178" y="0" type="line"/>
      <point x="178" y="445" type="line"/>
      <point x="58" y="445" type="line"/>
    </contour>
    <contour>
      <point x="48" y="526" type="line"/>
      <point x="187" y="526" type="line"/>
      <point x="187" y="643" type="line"/>
      <point x="48" y="643" type="line"/>
    </contour>
  </outline>
</glyph>
<glyph name="n" format="2">
  <advance width="531"/>
  <unicode hex="006E"/>
  <outline>
    <contour>
      <point x="46" y="0" type="line"/>
      <point x="166" y="0" type="line"/>
      <point x="166" y="244" type="line" smooth="yes"/>
      <point x="166" y="331"/>
      <point x="202" y="385"/>
      <point x="261" y="385" type="curve" smooth="yes"/>
      <point x="314" y="385"/>
      <point x="340" y="346"/>
      <point x="340" y="267" type="curve" smooth="yes"/>
      <point x="340" y="0" type="line"/>
      <point x="462" y="0" type="line"/>
      <point x="462" y="303" type="line" smooth="yes"/>
      <point x="462" y="399"/>
      <point x="407" y="457"/>
      <point x="312" y="457" type="curve" smooth="yes"/>
      <point x="242" y="457"/>
      <point x="202" y="445"/>
      <point x="166" y="390" type="curve"/>
      <point x="166" y="445" type="line"/>
      <point x="46" y="445" type="line"/>
    </contour>
  </outline>
</glyph>
<glyph name="s" format="2">
  <advance width="463"/>
  <unicode hex="0073"/>
  <outline>
    <contour>
      <point x="226" y="-12" type="curve" smooth="yes"/>
      <point x="323" y="-12"/>
      <point x="423" y="31"/>
      <point x="423" y="139" type="curve" smooth="yes"/>
      <point x="423" y="304"/>
      <point x="168" y="257"/>
      <point x="168" y="329" type="curve" smooth="yes"/>
      <point x="168" y="357"/>
      <point x="190" y="382"/>
      <point x="226" y="382" type="curve" smooth="yes"/>
      <point x="277" y="382"/>
      <point x="291" y="363"/>
      <point x="292" y="315" type="curve"/>
      <point x="412" y="315" type="line"/>
      <point x="412" y="410"/>
      <point x="352" y="457"/>
      <point x="232" y="457" type="curve" smooth="yes"/>
      <point x="124" y="457"/>
      <point x="51" y="401"/>
      <point x="51" y="324" type="curve" smooth="yes"/>
      <point x="51" y="160"/>
      <point x="307" y="217"/>
      <point x="307" y="123" type="curve" smooth="yes"/>
      <point x="307" y="87"/>
      <point x="274" y="63"/>
      <point x="237" y="63" type="curve" smooth="yes"/>
      <point x="184" y="63"/>
      <point x="162" y="82"/>
      <point x="160" y="138" type="curve"/>
      <point x="40" y="138" type="line"/>
      <point x="40" y="30"/>
      <point x="120" y="-12"/>
    </contour>
  </outline>
</glyph>
<glyph name="y" format="2">
  <advance width="483"/>
  <unicode hex="0079"/>
  <outline>
    <contour>
      <point x="138" y="-182" type="curve" smooth="yes"/>
      <point x="203" y="-182"/>
      <point x="260" y="-152"/>
      <point x="277" y="-105" type="curve" smooth="yes"/>
      <point x="475" y="445" type="line"/>
      <point x="346" y="445" type="line"/>
      <point x="249" y="160" type="line"/>
      <point x="145" y="445" type="line"/>
      <point x="9" y="445" type="line"/>
      <point x="187" y="0" type="line"/>
      <point x="169" y="-51" type="line" smooth="yes"/>
      <point x="161" y="-73"/>
      <point x="149" y="-84"/>
      <point x="132" y="-84" type="curve" smooth="yes"/>
      <point x="105" y="-84"/>
      <point x="86" y="-70"/>
      <point x="75" y="-42" type="curve"/>
      <point x="0" y="-102" type="line"/>
      <point x="26" y="-155"/>
      <point x="83" y="-182"/>
    </contour>
  </outline>
</glyph>
<glyph name="bar" format="2">
  <advance width="350"/>
  <unicode hex="007C"/>
  <outline>
    <contour>
      <point x="121" y="-230" type="line"/>
      <point x="229" y="-230" type="line"/>
      <point x="229" y="709" type="line"/>
      <point x="121" y="709" type="line"/>
    </contour>
  </outline>
</glyph>
<glyph name="cent" format="2">
  <advance width="588"/>
  <unicode hex="00A2"/>
  <outline>
    <contour>
      <point x="179" y="-143" type="line"/>
      <point x="218" y="-27" type="line"/>
      <point x="234" y="-27"/>
      <point x="252" y="-31"/>
      <point x="271" y="-31" type="curve"/>
      <point x="375" y="-31"/>
      <point x="463" y="13"/>
      <point x="463" y="145" type="curve"/>
      <point x="343" y="145" type="line"/>
      <point x="343" y="85"/>
      <point x="325" y="45"/>
      <point x="267" y="45" type="curve"/>
      <point x="257" y="45"/>
      <point x="249" y="47"/>
      <point x="242" y="47" type="curve"/>
      <point x="333" y="325" type="line"/>
      <point x="340" y="311"/>
      <point x="346" y="293"/>
      <point x="346" y="271" type="curve"/>
      <point x="463" y="271" type="line"/>
      <point x="463" y="340"/>
      <point x="438" y="399"/>
      <point x="366" y="425" type="curve"/>
      <point x="398" y="526" type="line"/>
      <point x="350" y="538" type="line"/>
      <point x="317" y="435" type="line"/>
      <point x="303" y="435"/>
      <point x="288" y="439"/>
      <point x="271" y="439" type="curve"/>
      <point x="147" y="439"/>
      <point x="65" y="358"/>
      <point x="65" y="199" type="curve"/>
      <point x="65" y="109"/>
      <point x="92" y="25"/>
      <point x="171" y="-12" type="curve"/>
      <point x="131" y="-132" type="line"/>
    </contour>
    <contour>
      <point x="201" y="79" type="line"/>
      <point x="183" y="109"/>
      <point x="179" y="154"/>
      <point x="179" y="202" type="curve"/>
      <point x="179" y="277"/>
      <point x="186" y="363"/>
      <point x="276" y="363" type="curve"/>
      <point x="282" y="363"/>
      <point x="287" y="361"/>
      <point x="293" y="361" type="curve"/>
    </contour>
  </outline>
</glyph>
<glyph name="yen" format="2">
  <advance width="588"/>
  <unicode hex="00A5"/>
  <outline>
    <contour>
      <point x="196" y="0" type="line"/>
      <point x="315" y="0" type="line"/>
      <point x="315" y="242" type="line"/>
      <point x="500" y="242" type="line"/>
      <point x="500" y="301" type="line"/>
      <point x="344" y="301" type="line"/>
      <point x="396" y="407" type="line"/>
      <point x="500" y="407" type="line"/>
      <point x="500" y="466" type="line"/>
      <point x="423" y="466" type="line"/>
      <point x="510" y="643" type="line"/>
      <point x="377" y="643" type="line"/>
      <point x="256" y="373" type="line"/>
      <point x="135" y="643" type="line"/>
      <point x="2" y="643" type="line"/>
      <point x="88" y="466" type="line"/>
      <point x="12" y="466" type="line"/>
      <point x="12" y="407" type="line"/>
      <point x="116" y="407" type="line"/>
      <point x="168" y="301" type="line"/>
      <point x="12" y="301" type="line"/>
      <point x="12" y="242" type="line"/>
      <point x="196" y="242" type="line"/>
    </contour>
  </outline>
</glyph>
<glyph name="dieresis" format="2">
  <advance width="328"/>
  <unicode hex="00A8"/>
  <outline>
    <contour>
      <point x="187" y="645" type="line"/>
      <point x="285" y="645" type="line"/>
      <point x="285" y="752" type="line"/>
      <point x="187" y="752" type="line"/>
    </contour>
    <contour>
      <point x="0" y="645" type="line"/>
      <point x="98" y="645" type="line"/>
      <point x="98" y="752" type="line"/>
      <point x="0" y="752" type="line"/>
    </contour>
  </outline>
</glyph>
<glyph name="ordfeminine" format="2">
  <advance width="398"/>
  <unicode hex="00AA"/>
  <outline>
    <contour>
      <point x="141" y="335" type="curve" smooth="yes"/>
      <point x="190" y="335"/>
      <point x="210" y="362"/>
      <point x="234" y="382" type="curve"/>
      <point x="235" y="368"/>
      <point x="239" y="356"/>
      <point x="244" y="344" type="curve"/>
      <point x="320" y="344" type="line"/>
      <point x="309" y="386"/>
      <point x="310" y="441"/>
      <point x="310" y="470" type="curve" smooth="yes"/>
      <point x="310" y="526" type="line" smooth="yes"/>
      <point x="310" y="601"/>
      <point x="301" y="616"/>
      <point x="283" y="632" type="curve" smooth="yes"/>
      <point x="261" y="652"/>
      <point x="226" y="665"/>
      <point x="180" y="665" type="curve" smooth="yes"/>
      <point x="95" y="665"/>
      <point x="45" y="623"/>
      <point x="45" y="570" type="curve"/>
      <point x="129" y="570" type="line"/>
      <point x="130" y="573"/>
      <point x="125" y="615"/>
      <point x="177" y="615" type="curve" smooth="yes"/>
      <point x="231" y="615"/>
      <point x="227" y="579"/>
      <point x="227" y="547" type="curve"/>
      <point x="213" y="547"/>
      <point x="198" y="547"/>
      <point x="182" y="547" type="curve" smooth="yes"/>
      <point x="104" y="547"/>
      <point x="33" y="518"/>
      <point x="33" y="432" type="curve" smooth="yes"/>
      <point x="33" y="353"/>
      <point x="111" y="335"/>
    </contour>
    <contour>
      <point x="20" y="237" type="line"/>
      <point x="331" y="237" type="line"/>
      <point x="331" y="278" type="line"/>
      <point x="20" y="278" type="line"/>
    </contour>
    <contour>
      <point x="166" y="392" type="curve" smooth="yes"/>
      <point x="141" y="392"/>
      <point x="118" y="413"/>
      <point x="118" y="437" type="curve" smooth="yes"/>
      <point x="118" y="482"/>
      <point x="147" y="500"/>
      <point x="199" y="500" type="curve" smooth="yes"/>
      <point x="207" y="500"/>
      <point x="216" y="501"/>
      <point x="227" y="500" type="curve"/>
      <point x="227" y="446"/>
      <point x="224" y="392"/>
    </contour>
  </outline>
</glyph>
<glyph name="macron" format="2">
  <advance width="328"/>
  <unicode hex="00AF"/>
  <outline>
    <contour>
      <point x="0" y="645" type="line"/>
      <point x="285" y="645" type="line"/>
      <point x="285" y="715" type="line"/>
      <point x="0" y="715" type="line"/>
    </contour>
  </outline>
</glyph>
<glyph name="onesuperior" format="2">
  <advance width="411"/>
  <unicode hex="00B9"/>
  <outline>
    <contour>
      <point x="171" y="358" type="line"/>
      <point x="261" y="358" type="line"/>
      <point x="261" y="702" type="line"/>
      <point x="185" y="702" type="line"/>
      <point x="185" y="702"/>
      <point x="150" y="670"/>
      <point x="88" y="649" type="curve"/>
      <point x="88" y="590" type="line"/>
      <point x="88" y="590"/>
      <point x="126" y="602"/>
      <point x="171" y="634" type="curve"/>
    </contour>
  </outline>
</glyph>
<glyph name="threequarters" format="2">
  <advance width="721"/>
  <unicode hex="00BE"/>
  <outline>
    <contour>
      <point x="150" y="-14" type="line"/>
      <point x="239" y="-14" type="line"/>
      <point x="618" y="654" type="line"/>
      <point x="530" y="654" type="line"/>
    </contour>
    <contour>
      <point x="167" y="303" type="curve" smooth="yes"/>
      <point x="249" y="303"/>
      <point x="304" y="361"/>
      <point x="304" y="406" type="curve" smooth="yes"/>
      <point x="304" y="465"/>
      <point x="257" y="479"/>
      <point x="223" y="489" type="curve" smooth="yes"/>
      <point x="258" y="501"/>
      <point x="294" y="516"/>
      <point x="294" y="560" type="curve" smooth="yes"/>
      <point x="294" y="624"/>
      <point x="234" y="660"/>
      <point x="167" y="660" type="curve" smooth="yes"/>
      <point x="91" y="660"/>
      <point x="34" y="624"/>
      <point x="34" y="562" type="curve"/>
      <point x="122" y="562" type="line"/>
      <point x="122" y="592"/>
      <point x="135" y="607"/>
      <point x="165" y="607" type="curve" smooth="yes"/>
      <point x="191" y="607"/>
      <point x="201" y="591"/>
      <point x="201" y="558" type="curve" smooth="yes"/>
      <point x="201" y="517"/>
      <point x="162" y="515"/>
      <point x="123" y="515" type="curve"/>
      <point x="123" y="462" type="line"/>
      <point x="179" y="462"/>
      <point x="210" y="460"/>
      <point x="210" y="410" type="curve" smooth="yes"/>
      <point x="210" y="373"/>
      <point x="196" y="355"/>
      <point x="163" y="355" type="curve" smooth="yes"/>
      <point x="133" y="355"/>
      <point x="123" y="374"/>
      <point x="123" y="406" type="curve"/>
      <point x="34" y="406" type="line"/>
      <point x="34" y="353"/>
      <point x="63" y="303"/>
    </contour>
    <contour>
      <point x="479" y="116" type="line"/>
      <point x="563" y="248" type="line"/>
      <point x="563" y="116" type="line"/>
    </contour>
    <contour>
      <point x="563" y="-14" type="line"/>
      <point x="648" y="-14" type="line"/>
      <point x="648" y="61" type="line"/>
      <point x="687" y="61" type="line"/>
      <point x="687" y="116" type="line"/>
      <point x="648" y="116" type="line"/>
      <point x="648" y="329" type="line"/>
      <point x="546" y="329" type="line"/>
      <point x="404" y="123" type="line"/>
      <point x="404" y="61" type="line"/>
      <point x="563" y="61" type="line"/>
    </contour>
  </outline>
</glyph>
<glyph name="Eth" format="2">
  <advance width="649"/>
  <unicode hex="00D0"/>
  <outline>
    <contour>
      <point x="62" y="0" type="line"/>
      <point x="257" y="0" type="line"/>
      <point x="445" y="0"/>
      <point x="600" y="97"/>
      <point x="600" y="321" type="curve"/>
      <point x="600" y="546"/>
      <point x="445" y="643"/>
      <point x="257" y="643" type="curve"/>
      <point x="62" y="643" type="line"/>
      <point x="62" y="362" type="line"/>
      <point x="0" y="362" type="line"/>
      <point x="0" y="281" type="line"/>
      <point x="62" y="281" type="line"/>
    </contour>
    <contour>
      <point x="196" y="102" type="line"/>
      <point x="196" y="281" type="line"/>
      <point x="321" y="281" type="line"/>
      <point x="321" y="362" type="line"/>
      <point x="196" y="362" type="line"/>
      <point x="196" y="540" type="line"/>
      <point x="257" y="540" type="line"/>
      <point x="381" y="540"/>
      <point x="467" y="482"/>
      <point x="467" y="321" type="curve"/>
      <point x="467" y="161"/>
      <point x="381" y="102"/>
      <point x="257" y="102" type="curve"/>
    </contour>
  </outline>
</glyph>
<glyph name="germandbls" format="2">
  <advance width="559"/>
  <unicode hex="00DF"/>
  <outline>
    <contour>
      <point x="355" y="-14" type="curve" smooth="yes"/>
      <point x="466" y="-14"/>
      <point x="519" y="40"/>
      <point x="519" y="122" type="curve" smooth="yes"/>
      <point x="519" y="264"/>
      <point x="341" y="285"/>
      <point x="341" y="336" type="curve" smooth="yes"/>
      <point x="341" y="381"/>
      <point x="458" y="418"/>
      <point x="458" y="518" type="curve" smooth="yes"/>
      <point x="458" y="621"/>
      <point x="346" y="654"/>
      <point x="267" y="654" type="curve" smooth="yes"/>
      <point x="163" y="654"/>
      <point x="58" y="621"/>
      <point x="58" y="483" type="curve" smooth="yes"/>
      <point x="58" y="-2" type="line"/>
      <point x="178" y="-2" type="line"/>
      <point x="178" y="483" type="line" smooth="yes"/>
      <point x="178" y="551"/>
      <point x="207" y="578"/>
      <point x="264" y="578" type="curve" smooth="yes"/>
      <point x="313" y="578"/>
      <point x="338" y="556"/>
      <point x="338" y="510" type="curve" smooth="yes"/>
      <point x="338" y="438"/>
      <point x="223" y="393"/>
      <point x="223" y="328" type="curve" smooth="yes"/>
      <point x="223" y="212"/>
      <point x="399" y="216"/>
      <point x="399" y="122" type="curve" smooth="yes"/>
      <point x="399" y="79"/>
      <point x="386" y="61"/>
      <point x="362" y="61" type="curve" smooth="yes"/>
      <point x="330" y="61"/>
      <point x="308" y="73"/>
      <point x="306" y="121" type="curve"/>
      <point x="205" y="121" type="line"/>
      <point x="207" y="63"/>
      <point x="220" y="-14"/>
    </contour>
  </outline>
</glyph>
<glyph name="iacute" format="2">
  <advance width="230"/>
  <unicode hex="00ED"/>
  <outline>
    <contour>
      <point x="64" y="0" type="line"/>
      <point x="184" y="0" type="line"/>
      <point x="184" y="446" type="line"/>
      <point x="64" y="446" type="line"/>
    </contour>
    <contour>
      <point x="51" y="536" type="line"/>
      <point x="114" y="536" type="line"/>
      <point x="248" y="696" type="line"/>
      <point x="132" y="696" type="line"/>
    </contour>
  </outline>
</glyph>
<glyph name="idieresis" format="2">
  <advance width="265"/>
  <unicode hex="00EF"/>
  <outline>
    <contour>
      <point x="55" y="0" type="line"/>
      <point x="176" y="0" type="line"/>
      <point x="176" y="446" type="line"/>
      <point x="55" y="446" type="line"/>
    </contour>
    <contour>
      <point x="-28" y="563" type="line"/>
      <point x="70" y="563" type="line"/>
      <point x="70" y="670" type="line"/>
      <point x="-28" y="670" type="line"/>
    </contour>
    <contour>
      <point x="160" y="563" type="line"/>
      <point x="258" y="563" type="line"/>
      <point x="258" y="670" type="line"/>
      <point x="160" y="670" type="line"/>
    </contour>
  </outline>
</glyph>
<glyph name="oslash" format="2">
  <advance width="543"/>
  <unicode hex="00F8"/>
  <outline>
    <contour>
      <point x="77" y="-85" type="line"/>
      <point x="149" y="9" type="line"/>
      <point x="183" y="-11"/>
      <point x="224" y="-24"/>
      <point x="273" y="-24" type="curve" smooth="yes"/>
      <point x="426" y="-24"/>
      <point x="502" y="95"/>
      <point x="502" y="212" type="curve" smooth="yes"/>
      <point x="502" y="277"/>
      <point x="479" y="342"/>
      <point x="431" y="388" type="curve"/>
      <point x="499" y="480" type="line"/>
      <point x="447" y="517" type="line"/>
      <point x="378" y="424" type="line"/>
      <point x="349" y="439"/>
      <point x="313" y="447"/>
      <point x="273" y="447" type="curve" smooth="yes"/>
      <point x="120" y="447"/>
      <point x="43" y="328"/>
      <point x="43" y="212" type="curve" smooth="yes"/>
      <point x="43" y="154"/>
      <point x="62" y="95"/>
      <point x="100" y="50" type="curve"/>
      <point x="25" y="-48" type="line"/>
    </contour>
    <contour>
      <point x="273" y="53" type="curve" smooth="yes"/>
      <point x="245" y="53"/>
      <point x="221" y="63"/>
      <point x="203" y="82" type="curve"/>
      <point x="367" y="302" type="line"/>
      <point x="375" y="278"/>
      <point x="381" y="247"/>
      <point x="381" y="212" type="curve" smooth="yes"/>
      <point x="381" y="110"/>
      <point x="343" y="53"/>
    </contour>
    <contour>
      <point x="172" y="145" type="line"/>
      <point x="167" y="164"/>
      <point x="164" y="187"/>
      <point x="164" y="212" type="curve" smooth="yes"/>
      <point x="164" y="313"/>
      <point x="204" y="370"/>
      <point x="273" y="370" type="curve" smooth="yes"/>
      <point x="294" y="370"/>
      <point x="312" y="365"/>
      <point x="327" y="355" type="curve"/>
    </contour>
  </outline>
</glyph>
<glyph name="OE" format="2">
  <advance width="924"/>
  <unicode hex="0152"/>
  <outline>
    <contour>
      <point x="353" y="-14" type="curve"/>
      <point x="388" y="-14"/>
      <point x="420" y="-10"/>
      <point x="450" y="-2" type="curve"/>
      <point x="862" y="-2" type="line"/>
      <point x="862" y="101" type="line"/>
      <point x="557" y="101" type="line"/>
      <point x="557" y="282" type="line"/>
      <point x="835" y="282" type="line"/>
      <point x="835" y="380" type="line"/>
      <point x="557" y="380" type="line"/>
      <point x="557" y="539" type="line"/>
      <point x="853" y="539" type="line"/>
      <point x="853" y="641" type="line"/>
      <point x="450" y="641" type="line"/>
      <point x="420" y="649"/>
      <point x="388" y="654"/>
      <point x="353" y="654" type="curve"/>
      <point x="146" y="654"/>
      <point x="48" y="508"/>
      <point x="48" y="320" type="curve"/>
      <point x="48" y="131"/>
      <point x="146" y="-14"/>
    </contour>
    <contour>
      <point x="353" y="88" type="curve"/>
      <point x="225" y="88"/>
      <point x="184" y="191"/>
      <point x="184" y="320" type="curve"/>
      <point x="184" y="448"/>
      <point x="225" y="551"/>
      <point x="353" y="551" type="curve"/>
      <point x="382" y="551"/>
      <point x="407" y="544"/>
      <point x="428" y="533" type="curve"/>
      <point x="428" y="104" type="line"/>
      <point x="407" y="93"/>
      <point x="382" y="88"/>
    </contour>
  </outline>
</glyph>
<glyph name="Ydieresis" format="2">
  <advance width="586"/>
  <unicode hex="0178"/>
  <outline>
    <contour>
      <point x="226" y="0" type="line"/>
      <point x="360" y="0" type="line"/>
      <point x="360" y="244" type="line"/>
      <point x="576" y="645" type="line"/>
      <point x="428" y="645" type="line"/>
      <point x="293" y="374" type="line"/>
      <point x="158" y="645" type="line"/>
      <point x="10" y="645" type="line"/>
      <point x="226" y="244" type="line"/>
    </contour>
    <contour>
      <point x="150" y="760" type="line"/>
      <point x="248" y="760" type="line"/>
      <point x="248" y="867" type="line"/>
      <point x="150" y="867" type="line"/>
    </contour>
    <contour>
      <point x="338" y="760" type="line"/>
      <point x="436" y="760" type="line"/>
      <point x="436" y="867" type="line"/>
      <point x="338" y="867" type="line"/>
    </contour>
  </outline>
</glyph>
<glyph name="ring" format="2">
  <advance width="246"/>
  <unicode hex="02DA"/>
  <outline>
    <contour>
      <point x="107" y="614" type="curve"/>
      <point x="166" y="614"/>
      <point x="214" y="662"/>
      <point x="214" y="721" type="curve"/>
      <point x="214" y="780"/>
      <point x="166" y="828"/>
      <point x="107" y="828" type="curve"/>
      <point x="48" y="828"/>
      <point x="0" y="780"/>
      <point x="0" y="721" type="curve"/>
      <point x="0" y="662"/>
      <point x="48" y="614"/>
    </contour>
    <contour>
      <point x="107" y="668" type="curve"/>
      <point x="77" y="668"/>
      <point x="53" y="692"/>
      <point x="53" y="721" type="curve"/>
      <point x="53" y="751"/>
      <point x="77" y="775"/>
      <point x="107" y="775" type="curve"/>
      <point x="136" y="775"/>
      <point x="160" y="751"/>
      <point x="160" y="721" type="curve"/>
      <point x="160" y="692"/>
      <point x="136" y="668"/>
    </contour>
  </outline>
</glyph>
<glyph name="hungarumlaut" format="2">
  <advance width="320"/>
  <unicode hex="02DD"/>
  <outline>
    <contour>
      <point x="143" y="600" type="line"/>
      <point x="183" y="600" type="line"/>
      <point x="286" y="761" type="line"/>
      <point x="188" y="761" type="line"/>
    </contour>
    <contour>
      <point x="0" y="600" type="line"/>
      <point x="45" y="600" type="line"/>
      <point x="143" y="761" type="line"/>
      <point x="45" y="761" type="line"/>
    </contour>
  </outline>
</glyph>
<glyph name="u1008" format="2">
  <advance width="838"/>
  <unicode hex="1008"/>
  <anchor x="810" y="-53" name="BD"/>
  <anchor x="904" y="-53" name="BS"/>
  <anchor x="904" y="-53" name="L"/>
  <anchor x="171" y="-53" name="LL"/>
  <anchor x="526" y="495" name="U"/>
  <anchor x="0" y="0" name="_R"/>
  <outline>
    <contour>
      <point x="447" y="47" type="line"/>
      <point x="333" y="-2" type="line"/>
      <point x="333" y="-374" type="line"/>
      <point x="744" y="-471" type="line"/>
      <point x="744" y="466" type="line"/>
      <point x="630" y="466" type="line"/>
      <point x="630" y="-324" type="line"/>
      <point x="447" y="-284" type="line"/>
    </contour>
    <contour>
      <point x="173" y="339" type="line"/>
      <point x="203" y="307"/>
      <point x="217" y="264"/>
      <point x="217" y="222" type="curve" smooth="yes"/>
      <point x="217" y="179"/>
      <point x="203" y="137"/>
      <point x="173" y="105" type="curve"/>
      <point x="255" y="58" type="line"/>
      <point x="301" y="106"/>
      <point x="324" y="163"/>
      <point x="324" y="221" type="curve" smooth="yes"/>
      <point x="324" y="279"/>
      <point x="301" y="336"/>
      <point x="257" y="385" type="curve"/>
    </contour>
    <contour>
      <point x="55" y="224" type="curve" smooth="yes"/>
      <point x="55" y="94"/>
      <point x="161" y="-15"/>
      <point x="293" y="-15" type="curve" smooth="yes"/>
      <point x="423" y="-15"/>
      <point x="529" y="91"/>
      <point x="529" y="221" type="curve" smooth="yes"/>
      <point x="529" y="353"/>
      <point x="423" y="459"/>
      <point x="293" y="459" type="curve" smooth="yes"/>
      <point x="161" y="459"/>
      <point x="55" y="356"/>
    </contour>
    <contour>
      <point x="169" y="221" type="curve" smooth="yes"/>
      <point x="169" y="289"/>
      <point x="224" y="345"/>
      <point x="292" y="345" type="curve" smooth="yes"/>
      <point x="359" y="345"/>
      <point x="415" y="289"/>
      <point x="415" y="222" type="curve" smooth="yes"/>
      <point x="415" y="154"/>
      <point x="359" y="99"/>
      <point x="292" y="99" type="curve" smooth="yes"/>
      <point x="224" y="99"/>
      <point x="169" y="153"/>
    </contour>
  </outline>
</glyph>
<glyph name="u100A" format="2">
  <advance width="954"/>
  <unicode hex="100A"/>
  <anchor x="1063" y="-53" name="BD"/>
  <anchor x="1041" y="-53" name="BS"/>
  <anchor x="604" y="-53" name="L"/>
  <anchor x="655" y="495" name="U"/>
  <anchor x="0" y="0" name="_R"/>
  <outline>
    <contour>
      <point x="244" y="-471" type="curve" smooth="yes"/>
      <point x="755" y="-471" type="line" smooth="yes"/>
      <point x="812" y="-471"/>
      <point x="839" y="-460"/>
      <point x="858" y="-437" type="curve" smooth="yes"/>
      <point x="874" y="-418"/>
      <point x="882" y="-391"/>
      <point x="882" y="-344" type="curve" smooth="yes"/>
      <point x="882" y="-272" type="line"/>
      <point x="768" y="-272" type="line"/>
      <point x="768" y="-320" type="line" smooth="yes"/>
      <point x="768" y="-346"/>
      <point x="761" y="-357"/>
      <point x="738" y="-357" type="curve" smooth="yes"/>
      <point x="256" y="-357" type="line" smooth="yes"/>
      <point x="225" y="-357"/>
      <point x="206" y="-347"/>
      <point x="190" y="-332" type="curve" smooth="yes"/>
      <point x="176" y="-319"/>
      <point x="169" y="-294"/>
      <point x="169" y="-273" type="curve" smooth="yes"/>
      <point x="169" y="3" type="line"/>
      <point x="205" y="-16"/>
      <point x="245" y="-23"/>
      <point x="280" y="-23" type="curve" smooth="yes"/>
      <point x="357" y="-23"/>
      <point x="426" y="15"/>
      <point x="469" y="72" type="curve"/>
      <point x="510" y="21"/>
      <point x="572" y="-23"/>
      <point x="655" y="-23" type="curve" smooth="yes"/>
      <point x="788" y="-23"/>
      <point x="900" y="89"/>
      <point x="900" y="222" type="curve" smooth="yes"/>
      <point x="900" y="360"/>
      <point x="789" y="466"/>
      <point x="655" y="466" type="curve" smooth="yes"/>
      <point x="629" y="466"/>
      <point x="600" y="461"/>
      <point x="585" y="453" type="curve"/>
      <point x="630" y="349" type="line"/>
      <point x="637" y="351"/>
      <point x="645" y="352"/>
      <point x="655" y="352" type="curve" smooth="yes"/>
      <point x="726" y="352"/>
      <point x="786" y="291"/>
      <point x="786" y="222" type="curve" smooth="yes"/>
      <point x="786" y="151"/>
      <point x="726" y="91"/>
      <point x="655" y="91" type="curve" smooth="yes"/>
      <point x="590" y="91"/>
      <point x="533" y="162"/>
      <point x="522" y="219" type="curve"/>
      <point x="522" y="356"/>
      <point x="411" y="466"/>
      <point x="280" y="466" type="curve" smooth="yes"/>
      <point x="205" y="466"/>
      <point x="106" y="432"/>
      <point x="55" y="336" type="curve"/>
      <point x="157" y="283" type="line"/>
      <point x="188" y="332"/>
      <point x="231" y="352"/>
      <point x="280" y="352" type="curve" smooth="yes"/>
      <point x="352" y="352"/>
      <point x="409" y="291"/>
      <point x="409" y="222" type="curve" smooth="yes"/>
      <point x="409" y="151"/>
      <point x="352" y="91"/>
      <point x="280" y="91" type="curve" smooth="yes"/>
      <point x="233" y="91"/>
      <point x="185" y="109"/>
      <point x="157" y="160" type="curve"/>
      <point x="55" y="108" type="line"/>
      <point x="55" y="-282" type="line" smooth="yes"/>
      <point x="55" y="-332"/>
      <point x="73" y="-377"/>
      <point x="109" y="-413" type="curve" smooth="yes"/>
      <point x="143" y="-447"/>
      <point x="187" y="-471"/>
    </contour>
  </outline>
</glyph>
<glyph name="u100C" format="2">
  <advance width="577"/>
  <unicode hex="100C"/>
  <anchor x="657" y="-53" name="BD"/>
  <anchor x="684" y="-53" name="BS"/>
  <anchor x="684" y="-53" name="L"/>
  <anchor x="298" y="495" name="U"/>
  <anchor x="0" y="0" name="_R"/>
  <outline>
    <contour>
      <point x="236" y="-471" type="curve" smooth="yes"/>
      <point x="333" y="-471" type="line" smooth="yes"/>
      <point x="438" y="-471"/>
      <point x="522" y="-385"/>
      <point x="522" y="-267" type="curve" smooth="yes"/>
      <point x="522" y="108" type="line"/>
      <point x="420" y="160" type="line"/>
      <point x="386" y="107"/>
      <point x="346" y="91"/>
      <point x="298" y="91" type="curve" smooth="yes"/>
      <point x="229" y="91"/>
      <point x="169" y="151"/>
      <point x="169" y="222" type="curve" smooth="yes"/>
      <point x="169" y="291"/>
      <point x="229" y="352"/>
      <point x="298" y="352" type="curve" smooth="yes"/>
      <point x="346" y="352"/>
      <point x="387" y="333"/>
      <point x="420" y="283" type="curve"/>
      <point x="522" y="336" type="line"/>
      <point x="471" y="432"/>
      <point x="372" y="466"/>
      <point x="298" y="466" type="curve" smooth="yes"/>
      <point x="166" y="466"/>
      <point x="55" y="355"/>
      <point x="55" y="222" type="curve" smooth="yes"/>
      <point x="55" y="87"/>
      <point x="166" y="-23"/>
      <point x="298" y="-23" type="curve" smooth="yes"/>
      <point x="333" y="-23"/>
      <point x="370" y="-15"/>
      <point x="408" y="1" type="curve"/>
      <point x="408" y="-257" type="line" smooth="yes"/>
      <point x="408" y="-328"/>
      <point x="380" y="-357"/>
      <point x="310" y="-357" type="curve" smooth="yes"/>
      <point x="232" y="-357" type="line" smooth="yes"/>
      <point x="199" y="-357"/>
      <point x="184" y="-338"/>
      <point x="184" y="-318" type="curve" smooth="yes"/>
      <point x="184" y="-299"/>
      <point x="199" y="-280"/>
      <point x="229" y="-280" type="curve" smooth="yes"/>
      <point x="239" y="-280"/>
      <point x="255" y="-284"/>
      <point x="269" y="-293" type="curve"/>
      <point x="318" y="-194" type="line"/>
      <point x="290" y="-175"/>
      <point x="258" y="-166"/>
      <point x="229" y="-166" type="curve" smooth="yes"/>
      <point x="123" y="-166"/>
      <point x="69" y="-242"/>
      <point x="69" y="-318" type="curve" smooth="yes"/>
      <point x="69" y="-395"/>
      <point x="123" y="-471"/>
    </contour>
  </outline>
</glyph>
<glyph name="u100D" format="2">
  <advance width="600"/>
  <unicode hex="100D"/>
  <anchor x="113" y="-213" name="BD"/>
  <anchor x="126" y="-213" name="BS"/>
  <anchor x="642" y="-53" name="L"/>
  <anchor x="280" y="-53" name="LL"/>
  <anchor x="280" y="495" name="U"/>
  <anchor x="0" y="0" name="_R"/>
  <outline>
    <contour>
      <point x="367" y="-471" type="line"/>
      <point x="575" y="-471" type="line"/>
      <point x="575" y="-357" type="line"/>
      <point x="481" y="-357" type="line"/>
      <point x="481" y="-36" type="line"/>
      <point x="424" y="-72"/>
      <point x="355" y="-86"/>
      <point x="294" y="-86" type="curve" smooth="yes"/>
      <point x="246" y="-86"/>
      <point x="203" y="-77"/>
      <point x="177" y="-63" type="curve"/>
      <point x="177" y="1" type="line"/>
      <point x="213" y="-15"/>
      <point x="255" y="-22"/>
      <point x="284" y="-22" type="curve" smooth="yes"/>
      <point x="426" y="-22"/>
      <point x="529" y="88"/>
      <point x="529" y="223" type="curve" smooth="yes"/>
      <point x="529" y="356"/>
      <point x="421" y="467"/>
      <point x="284" y="467" type="curve" smooth="yes"/>
      <point x="209" y="467"/>
      <point x="113" y="426"/>
      <point x="68" y="334" type="curve"/>
      <point x="172" y="283" type="line"/>
      <point x="197" y="332"/>
      <point x="240" y="353"/>
      <point x="283" y="353" type="curve" smooth="yes"/>
      <point x="349" y="353"/>
      <point x="415" y="303"/>
      <point x="415" y="223" type="curve" smooth="yes"/>
      <point x="415" y="141"/>
      <point x="348" y="92"/>
      <point x="282" y="92" type="curve" smooth="yes"/>
      <point x="239" y="92"/>
      <point x="196" y="113"/>
      <point x="171" y="160" type="curve"/>
      <point x="69" y="108" type="line"/>
      <point x="69" y="-142" type="line"/>
      <point x="124" y="-185"/>
      <point x="212" y="-200"/>
      <point x="281" y="-200" type="curve" smooth="yes"/>
      <point x="317" y="-200"/>
      <point x="348" y="-196"/>
      <point x="367" y="-190" type="curve"/>
    </contour>
  </outline>
</glyph>
<glyph name="u1028" format="2">
  <advance width="590"/>
  <unicode hex="1028"/>
  <anchor x="292" y="-53" name="BD"/>
  <anchor x="295" y="-53" name="BS"/>
  <anchor x="295" y="-53" name="L"/>
  <anchor x="295" y="495" name="U"/>
  <outline>
    <contour>
      <point x="295" y="-471" type="curve" smooth="yes"/>
      <point x="437" y="-471"/>
      <point x="535" y="-363"/>
      <point x="535" y="-228" type="curve"/>
      <point x="421" y="-228" type="line"/>
      <point x="421" y="-306"/>
      <point x="364" y="-357"/>
      <point x="295" y="-357" type="curve" smooth="yes"/>
      <point x="223" y="-357"/>
      <point x="169" y="-302"/>
      <point x="169" y="-227" type="curve" smooth="yes"/>
      <point x="169" y="222" type="line" smooth="yes"/>
      <point x="169" y="307"/>
      <point x="233" y="352"/>
      <point x="297" y="352" type="curve" smooth="yes"/>
      <point x="363" y="352"/>
      <point x="430" y="305"/>
      <point x="430" y="208" type="curve" smooth="yes"/>
      <point x="430" y="102"/>
      <point x="373" y="78"/>
      <point x="338" y="78" type="curve" smooth="yes"/>
      <point x="322" y="78"/>
      <point x="311" y="83"/>
      <point x="311" y="87" type="curve" smooth="yes"/>
      <point x="311" y="98"/>
      <point x="413" y="116"/>
      <point x="413" y="211" type="curve" smooth="yes"/>
      <point x="413" y="281"/>
      <point x="356" y="320"/>
      <point x="297" y="320" type="curve" smooth="yes"/>
      <point x="248" y="320"/>
      <point x="199" y="293"/>
      <point x="181" y="232" type="curve"/>
      <point x="264" y="186" type="line"/>
      <point x="268" y="206"/>
      <point x="282" y="215"/>
      <point x="293" y="215" type="curve" smooth="yes"/>
      <point x="303" y="215"/>
      <point x="311" y="209"/>
      <point x="311" y="199" type="curve" smooth="yes"/>
      <point x="311" y="179"/>
      <point x="201" y="166"/>
      <point x="201" y="72" type="curve" smooth="yes"/>
      <point x="201" y="12"/>
      <point x="267" y="-29"/>
      <point x="340" y="-29" type="curve" smooth="yes"/>
      <point x="433" y="-29"/>
      <point x="538" y="38"/>
      <point x="538" y="220" type="curve" smooth="yes"/>
      <point x="538" y="342"/>
      <point x="449" y="466"/>
      <point x="295" y="466" type="curve" smooth="yes"/>
      <point x="139" y="466"/>
      <point x="55" y="340"/>
      <point x="55" y="222" type="curve" smooth="yes"/>
      <point x="55" y="-230" type="line" smooth="yes"/>
      <point x="55" y="-347"/>
      <point x="139" y="-471"/>
    </contour>
  </outline>
</glyph>
<glyph name="u102D" format="2">
  <unicode hex="102D"/>
  <anchor x="-234" y="495" name="UM"/>
  <anchor x="-237" y="495" name="_U"/>
  <anchor x="-98" y="495" name="_Y"/>
  <outline>
    <contour>
      <point x="-236" y="540" type="curve" smooth="yes"/>
      <point x="-131" y="540"/>
      <point x="-46" y="625"/>
      <point x="-46" y="730" type="curve" smooth="yes"/>
      <point x="-46" y="834"/>
      <point x="-131" y="919"/>
      <point x="-236" y="919" type="curve" smooth="yes"/>
      <point x="-340" y="919"/>
      <point x="-425" y="834"/>
      <point x="-425" y="730" type="curve" smooth="yes"/>
      <point x="-425" y="625"/>
      <point x="-340" y="540"/>
    </contour>
    <contour>
      <point x="-236" y="644" type="curve" smooth="yes"/>
      <point x="-283" y="644"/>
      <point x="-321" y="682"/>
      <point x="-321" y="730" type="curve" smooth="yes"/>
      <point x="-321" y="777"/>
      <point x="-283" y="815"/>
      <point x="-236" y="815" type="curve" smooth="yes"/>
      <point x="-188" y="815"/>
      <point x="-150" y="777"/>
      <point x="-150" y="730" type="curve" smooth="yes"/>
      <point x="-150" y="682"/>
      <point x="-188" y="644"/>
    </contour>
  </outline>
</glyph>
<glyph name="u1033" format="2">
  <unicode hex="1033"/>
  <anchor x="-234" y="495" name="UM"/>
  <anchor x="-237" y="495" name="_U"/>
  <anchor x="-98" y="495" name="_Y"/>
  <outline>
    <contour>
      <point x="-238" y="546" type="curve" smooth="yes"/>
      <point x="-134" y="546"/>
      <point x="-51" y="631"/>
      <point x="-51" y="735" type="curve" smooth="yes"/>
      <point x="-51" y="837"/>
      <point x="-134" y="924"/>
      <point x="-241" y="924" type="curve" smooth="yes"/>
      <point x="-344" y="924"/>
      <point x="-429" y="837"/>
      <point x="-429" y="735" type="curve" smooth="yes"/>
      <point x="-429" y="631"/>
      <point x="-344" y="546"/>
    </contour>
    <contour>
      <point x="-241" y="650" type="curve" smooth="yes"/>
      <point x="-287" y="650"/>
      <point x="-325" y="691"/>
      <point x="-325" y="735" type="curve" smooth="yes"/>
      <point x="-325" y="779"/>
      <point x="-288" y="820"/>
      <point x="-238" y="820" type="curve" smooth="yes"/>
      <point x="-192" y="820"/>
      <point x="-155" y="779"/>
      <point x="-155" y="735" type="curve" smooth="yes"/>
      <point x="-155" y="691"/>
      <point x="-192" y="650"/>
    </contour>
    <contour>
      <point x="-241" y="682" type="curve" smooth="yes"/>
      <point x="-210" y="682"/>
      <point x="-187" y="708"/>
      <point x="-187" y="735" type="curve" smooth="yes"/>
      <point x="-187" y="762"/>
      <point x="-210" y="788"/>
      <point x="-239" y="788" type="curve" smooth="yes"/>
      <point x="-270" y="788"/>
      <point x="-293" y="762"/>
      <point x="-293" y="735" type="curve" smooth="yes"/>
      <point x="-293" y="708"/>
      <point x="-269" y="682"/>
    </contour>
    <contour>
      <point x="-240" y="734" type="curve"/>
      <point x="-240" y="734"/>
      <point x="-241" y="735"/>
      <point x="-241" y="735" type="curve"/>
      <point x="-241" y="735"/>
      <point x="-240" y="736"/>
      <point x="-240" y="736" type="curve"/>
      <point x="-240" y="736"/>
      <point x="-239" y="735"/>
      <point x="-239" y="735" type="curve"/>
      <point x="-239" y="735"/>
      <point x="-240" y="734"/>
    </contour>
  </outline>
</glyph>
<glyph name="u1035" format="2">
  <unicode hex="1035"/>
  <anchor x="-231" y="495" name="UM"/>
  <anchor x="-245" y="495" name="_U"/>
  <anchor x="-100" y="495" name="_Y"/>
  <outline>
    <contour>
      <point x="-242" y="547" type="curve" smooth="yes"/>
      <point x="-156" y="547"/>
      <point x="-84" y="610"/>
      <point x="-67" y="693" type="curve"/>
      <point x="-105" y="730"/>
      <point x="-155" y="748"/>
      <point x="-203" y="748" type="curve" smooth="yes"/>
      <point x="-267" y="748"/>
      <point x="-330" y="716"/>
      <point x="-360" y="658" type="curve"/>
      <point x="-295" y="623" type="line"/>
      <point x="-270" y="653"/>
      <point x="-236" y="669"/>
      <point x="-201" y="669" type="curve" smooth="yes"/>
      <point x="-186" y="669"/>
      <point x="-171" y="666"/>
      <point x="-157" y="660" type="curve"/>
      <point x="-165" y="682" type="line"/>
      <point x="-180" y="655"/>
      <point x="-209" y="637"/>
      <point x="-242" y="637" type="curve" smooth="yes"/>
      <point x="-292" y="637"/>
      <point x="-331" y="679"/>
      <point x="-331" y="730" type="curve" smooth="yes"/>
      <point x="-331" y="781"/>
      <point x="-292" y="823"/>
      <point x="-242" y="823" type="curve" smooth="yes"/>
      <point x="-208" y="823"/>
      <point x="-180" y="805"/>
      <point x="-164" y="777" type="curve"/>
      <point x="-87" y="820" type="line"/>
      <point x="-117" y="875"/>
      <point x="-175" y="913"/>
      <point x="-242" y="913" type="curve" smooth="yes"/>
      <point x="-339" y="913"/>
      <point x="-420" y="830"/>
      <point x="-420" y="730" type="curve" smooth="yes"/>
      <point x="-420" y="629"/>
      <point x="-339" y="547"/>
    </contour>
  </outline>
</glyph>
<glyph name="u1039" format="2">
  <advance width="55"/>
  <unicode hex="1039"/>
  <anchor x="144" y="-53" name="BSM"/>
  <anchor x="-531" y="-53" name="LLM"/>
  <anchor x="161" y="-53" name="LM"/>
  <anchor x="-184" y="-53" name="_BS"/>
  <anchor x="-184" y="-53" name="_BSM"/>
  <outline>
    <contour>
      <point x="-68" y="-179" type="curve" smooth="yes"/>
      <point x="-57" y="-179"/>
      <point x="-51" y="-173"/>
      <point x="-51" y="-162" type="curve" smooth="yes"/>
      <point x="-51" y="-149"/>
      <point x="-57" y="-144"/>
      <point x="-68" y="-144" type="curve" smooth="yes"/>
      <point x="-80" y="-144"/>
      <point x="-86" y="-149"/>
      <point x="-86" y="-162" type="curve" smooth="yes"/>
      <point x="-86" y="-173"/>
      <point x="-80" y="-179"/>
    </contour>
    <contour>
      <point x="-312" y="-422" type="curve" smooth="yes"/>
      <point x="-299" y="-422"/>
      <point x="-294" y="-417"/>
      <point x="-294" y="-404" type="curve" smooth="yes"/>
      <point x="-294" y="-393"/>
      <point x="-299" y="-387"/>
      <point x="-312" y="-387" type="curve" smooth="yes"/>
      <point x="-324" y="-387"/>
      <point x="-329" y="-393"/>
      <point x="-329" y="-404" type="curve" smooth="yes"/>
      <point x="-329" y="-417"/>
      <point x="-324" y="-422"/>
    </contour>
    <contour>
      <point x="-349" y="-366" type="curve" smooth="yes"/>
      <point x="-338" y="-366"/>
      <point x="-332" y="-360"/>
      <point x="-332" y="-349" type="curve" smooth="yes"/>
      <point x="-332" y="-336"/>
      <point x="-338" y="-331"/>
      <point x="-349" y="-331" type="curve" smooth="yes"/>
      <point x="-360" y="-331"/>
      <point x="-366" y="-336"/>
      <point x="-366" y="-349" type="curve" smooth="yes"/>
      <point x="-366" y="-360"/>
      <point x="-360" y="-366"/>
    </contour>
    <contour>
      <point x="-255" y="-458" type="curve" smooth="yes"/>
      <point x="-244" y="-458"/>
      <point x="-238" y="-452"/>
      <point x="-238" y="-441" type="curve" smooth="yes"/>
      <point x="-238" y="-429"/>
      <point x="-244" y="-424"/>
      <point x="-255" y="-424" type="curve" smooth="yes"/>
      <point x="-268" y="-424"/>
      <point x="-273" y="-429"/>
      <point x="-273" y="-441" type="curve" smooth="yes"/>
      <point x="-273" y="-452"/>
      <point x="-268" y="-458"/>
    </contour>
    <contour>
      <point x="-362" y="-299" type="curve" smooth="yes"/>
      <point x="-351" y="-299"/>
      <point x="-346" y="-294"/>
      <point x="-346" y="-282" type="curve" smooth="yes"/>
      <point x="-346" y="-271"/>
      <point x="-351" y="-265"/>
      <point x="-362" y="-265" type="curve" smooth="yes"/>
      <point x="-374" y="-265"/>
      <point x="-380" y="-271"/>
      <point x="-380" y="-282" type="curve" smooth="yes"/>
      <point x="-380" y="-294"/>
      <point x="-374" y="-299"/>
    </contour>
    <contour>
      <point x="-189" y="-471" type="curve" smooth="yes"/>
      <point x="-179" y="-471"/>
      <point x="-173" y="-465"/>
      <point x="-173" y="-455" type="curve" smooth="yes"/>
      <point x="-173" y="-443"/>
      <point x="-179" y="-438"/>
      <point x="-189" y="-438" type="curve" smooth="yes"/>
      <point x="-202" y="-438"/>
      <point x="-207" y="-443"/>
      <point x="-207" y="-455" type="curve" smooth="yes"/>
      <point x="-207" y="-465"/>
      <point x="-202" y="-471"/>
    </contour>
    <contour>
      <point x="-349" y="-234" type="curve" smooth="yes"/>
      <point x="-338" y="-234"/>
      <point x="-332" y="-228"/>
      <point x="-332" y="-216" type="curve" smooth="yes"/>
      <point x="-332" y="-206"/>
      <point x="-338" y="-200"/>
      <point x="-349" y="-200" type="curve" smooth="yes"/>
      <point x="-360" y="-200"/>
      <point x="-366" y="-206"/>
      <point x="-366" y="-216" type="curve" smooth="yes"/>
      <point x="-366" y="-228"/>
      <point x="-360" y="-234"/>
    </contour>
    <contour>
      <point x="-125" y="-458" type="curve" smooth="yes"/>
      <point x="-112" y="-458"/>
      <point x="-107" y="-452"/>
      <point x="-107" y="-441" type="curve" smooth="yes"/>
      <point x="-107" y="-429"/>
      <point x="-112" y="-424"/>
      <point x="-125" y="-424" type="curve" smooth="yes"/>
      <point x="-136" y="-424"/>
      <point x="-141" y="-429"/>
      <point x="-141" y="-441" type="curve" smooth="yes"/>
      <point x="-141" y="-452"/>
      <point x="-136" y="-458"/>
    </contour>
    <contour>
      <point x="-312" y="-179" type="curve" smooth="yes"/>
      <point x="-299" y="-179"/>
      <point x="-294" y="-173"/>
      <point x="-294" y="-162" type="curve" smooth="yes"/>
      <point x="-294" y="-149"/>
      <point x="-299" y="-144"/>
      <point x="-312" y="-144" type="curve" smooth="yes"/>
      <point x="-324" y="-144"/>
      <point x="-329" y="-149"/>
      <point x="-329" y="-162" type="curve" smooth="yes"/>
      <point x="-329" y="-173"/>
      <point x="-324" y="-179"/>
    </contour>
    <contour>
      <point x="-68" y="-422" type="curve" smooth="yes"/>
      <point x="-57" y="-422"/>
      <point x="-51" y="-417"/>
      <point x="-51" y="-404" type="curve" smooth="yes"/>
      <point x="-51" y="-393"/>
      <point x="-57" y="-387"/>
      <point x="-68" y="-387" type="curve" smooth="yes"/>
      <point x="-80" y="-387"/>
      <point x="-86" y="-393"/>
      <point x="-86" y="-404" type="curve" smooth="yes"/>
      <point x="-86" y="-417"/>
      <point x="-80" y="-422"/>
    </contour>
    <contour>
      <point x="-30" y="-366" type="curve" smooth="yes"/>
      <point x="-20" y="-366"/>
      <point x="-15" y="-360"/>
      <point x="-15" y="-349" type="curve" smooth="yes"/>
      <point x="-15" y="-336"/>
      <point x="-20" y="-331"/>
      <point x="-30" y="-331" type="curve" smooth="yes"/>
      <point x="-42" y="-331"/>
      <point x="-47" y="-336"/>
      <point x="-47" y="-349" type="curve" smooth="yes"/>
      <point x="-47" y="-360"/>
      <point x="-42" y="-366"/>
    </contour>
    <contour>
      <point x="-255" y="-141" type="curve" smooth="yes"/>
      <point x="-244" y="-141"/>
      <point x="-238" y="-135"/>
      <point x="-238" y="-123" type="curve" smooth="yes"/>
      <point x="-238" y="-111"/>
      <point x="-244" y="-106"/>
      <point x="-255" y="-106" type="curve" smooth="yes"/>
      <point x="-268" y="-106"/>
      <point x="-273" y="-111"/>
      <point x="-273" y="-123" type="curve" smooth="yes"/>
      <point x="-273" y="-135"/>
      <point x="-268" y="-141"/>
    </contour>
    <contour>
      <point x="-189" y="-128" type="curve" smooth="yes"/>
      <point x="-179" y="-128"/>
      <point x="-173" y="-122"/>
      <point x="-173" y="-110" type="curve" smooth="yes"/>
      <point x="-173" y="-99"/>
      <point x="-179" y="-93"/>
      <point x="-189" y="-93" type="curve" smooth="yes"/>
      <point x="-202" y="-93"/>
      <point x="-207" y="-99"/>
      <point x="-207" y="-110" type="curve" smooth="yes"/>
      <point x="-207" y="-122"/>
      <point x="-202" y="-128"/>
    </contour>
    <contour>
      <point x="-18" y="-299" type="curve" smooth="yes"/>
      <point x="-5" y="-299"/>
      <point x="0" y="-294"/>
      <point x="0" y="-282" type="curve" smooth="yes"/>
      <point x="0" y="-271"/>
      <point x="-5" y="-265"/>
      <point x="-18" y="-265" type="curve" smooth="yes"/>
      <point x="-30" y="-265"/>
      <point x="-35" y="-271"/>
      <point x="-35" y="-282" type="curve" smooth="yes"/>
      <point x="-35" y="-294"/>
      <point x="-30" y="-299"/>
    </contour>
    <contour>
      <point x="-30" y="-234" type="curve" smooth="yes"/>
      <point x="-20" y="-234"/>
      <point x="-15" y="-228"/>
      <point x="-15" y="-216" type="curve" smooth="yes"/>
      <point x="-15" y="-206"/>
      <point x="-20" y="-200"/>
      <point x="-30" y="-200" type="curve" smooth="yes"/>
      <point x="-42" y="-200"/>
      <point x="-47" y="-206"/>
      <point x="-47" y="-216" type="curve" smooth="yes"/>
      <point x="-47" y="-228"/>
      <point x="-42" y="-234"/>
    </contour>
    <contour>
      <point x="-125" y="-141" type="curve" smooth="yes"/>
      <point x="-112" y="-141"/>
      <point x="-107" y="-135"/>
      <point x="-107" y="-123" type="curve" smooth="yes"/>
      <point x="-107" y="-111"/>
      <point x="-112" y="-106"/>
      <point x="-125" y="-106" type="curve" smooth="yes"/>
      <point x="-136" y="-106"/>
      <point x="-141" y="-111"/>
      <point x="-141" y="-123" type="curve" smooth="yes"/>
      <point x="-141" y="-135"/>
      <point x="-136" y="-141"/>
    </contour>
  </outline>
</glyph>
<glyph name="u103E" format="2">
  <unicode hex="103E"/>
  <anchor x="144" y="-53" name="BSM"/>
  <anchor x="-325" y="-53" name="LLM"/>
  <anchor x="113" y="-53" name="LM"/>
  <anchor x="-106" y="-53" name="_BS"/>
  <anchor x="-106" y="-53" name="_BSM"/>
  <outline>
    <contour>
      <point x="-246" y="-471" type="line"/>
      <point x="-55" y="-471" type="line"/>
      <point x="-55" y="-104" type="line"/>
      <point x="-156" y="-104" type="line"/>
      <point x="-156" y="-371" type="line"/>
      <point x="-246" y="-371" type="line"/>
    </contour>
  </outline>
</glyph>
<glyph name="u1048" format="2">
  <advance width="600"/>
  <unicode hex="1048"/>
  <anchor x="292" y="-53" name="BD"/>
  <anchor x="300" y="-53" name="BS"/>
  <anchor x="304" y="-53" name="L"/>
  <anchor x="300" y="495" name="U"/>
  <outline>
    <contour>
      <point x="411" y="0" type="line"/>
      <point x="499" y="46"/>
      <point x="544" y="136"/>
      <point x="544" y="219" type="curve" smooth="yes"/>
      <point x="544" y="356"/>
      <point x="431" y="463"/>
      <point x="301" y="463" type="curve" smooth="yes"/>
      <point x="142" y="463"/>
      <point x="55" y="342"/>
      <point x="55" y="221" type="curve" smooth="yes"/>
      <point x="55" y="123"/>
      <point x="113" y="24"/>
      <point x="236" y="-9" type="curve"/>
      <point x="307" y="46"/>
      <point x="341" y="115"/>
      <point x="341" y="190" type="curve" smooth="yes"/>
      <point x="341" y="246"/>
      <point x="321" y="309"/>
      <point x="259" y="363" type="curve"/>
      <point x="167" y="291" type="line"/>
      <point x="201" y="268"/>
      <point x="226" y="238"/>
      <point x="226" y="193" type="curve" smooth="yes"/>
      <point x="226" y="165"/>
      <point x="220" y="152"/>
      <point x="210" y="131" type="curve"/>
      <point x="181" y="157"/>
      <point x="168" y="190"/>
      <point x="168" y="223" type="curve" smooth="yes"/>
      <point x="168" y="287"/>
      <point x="220" y="348"/>
      <point x="301" y="348" type="curve" smooth="yes"/>
      <point x="365" y="348"/>
      <point x="429" y="294"/>
      <point x="429" y="217" type="curve" smooth="yes"/>
      <point x="429" y="173"/>
      <point x="406" y="132"/>
      <point x="371" y="109" type="curve"/>
    </contour>
  </outline>
</glyph>
<glyph name="u104A" format="2">
  <advance width="226"/>
  <unicode hex="104A"/>
  <outline>
    <contour>
      <point x="55" y="0" type="line"/>
      <point x="169" y="0" type="line"/>
      <point x="169" y="444" type="line"/>
      <point x="55" y="444" type="line"/>
    </contour>
  </outline>
</glyph>
<glyph name="u104F" format="2">
  <advance width="1068"/>
  <unicode hex="104F"/>
  <outline>
    <contour>
      <point x="900" y="-8" type="line"/>
      <point x="1014" y="-8" type="line"/>
      <point x="1014" y="370" type="line" smooth="yes"/>
      <point x="1014" y="622"/>
      <point x="762" y="621"/>
      <point x="762" y="736" type="curve" smooth="yes"/>
      <point x="762" y="780"/>
      <point x="795" y="814"/>
      <point x="840" y="814" type="curve" smooth="yes"/>
      <point x="872" y="814"/>
      <point x="898" y="798"/>
      <point x="913" y="767" type="curve"/>
      <point x="1012" y="818" type="line"/>
      <point x="987" y="869"/>
      <point x="926" y="926"/>
      <point x="842" y="926" type="curve" smooth="yes"/>
      <point x="748" y="926"/>
      <point x="650" y="856"/>
      <point x="650" y="736" type="curve" smooth="yes"/>
      <point x="650" y="534"/>
      <point x="900" y="559"/>
      <point x="900" y="370" type="curve" smooth="yes"/>
    </contour>
    <contour>
      <point x="300" y="-22" type="curve" smooth="yes"/>
      <point x="443" y="-22"/>
      <point x="518" y="92"/>
      <point x="534" y="153" type="curve"/>
      <point x="480" y="201"/>
      <point x="423" y="217"/>
      <point x="370" y="217" type="curve" smooth="yes"/>
      <point x="284" y="217"/>
      <point x="220" y="173"/>
      <point x="188" y="135" type="curve"/>
      <point x="246" y="73" type="line"/>
      <point x="276" y="110"/>
      <point x="323" y="132"/>
      <point x="368" y="132" type="curve" smooth="yes"/>
      <point x="373" y="132"/>
      <point x="385" y="132"/>
      <point x="391" y="130" type="curve"/>
      <point x="361" y="99"/>
      <point x="322" y="92"/>
      <point x="300" y="92" type="curve" smooth="yes"/>
      <point x="239" y="92"/>
      <point x="169" y="141"/>
      <point x="169" y="222" type="curve" smooth="yes"/>
      <point x="169" y="303"/>
      <point x="239" y="352"/>
      <point x="300" y="352" type="curve" smooth="yes"/>
      <point x="322" y="352"/>
      <point x="361" y="345"/>
      <point x="391" y="314" type="curve"/>
      <point x="385" y="312"/>
      <point x="373" y="312"/>
      <point x="368" y="312" type="curve" smooth="yes"/>
      <point x="323" y="312"/>
      <point x="276" y="334"/>
      <point x="246" y="371" type="curve"/>
      <point x="188" y="309" type="line"/>
      <point x="220" y="271"/>
      <point x="284" y="227"/>
      <point x="370" y="227" type="curve" smooth="yes"/>
      <point x="423" y="227"/>
      <point x="480" y="243"/>
      <point x="534" y="291" type="curve"/>
      <point x="518" y="352"/>
      <point x="443" y="466"/>
      <point x="300" y="466" type="curve" smooth="yes"/>
      <point x="157" y="466"/>
      <point x="55" y="346"/>
      <point x="55" y="222" type="curve" smooth="yes"/>
      <point x="55" y="98"/>
      <point x="157" y="-22"/>
    </contour>
    <contour>
      <point x="666" y="-8" type="line"/>
      <point x="780" y="-8" type="line"/>
      <point x="780" y="297" type="line" smooth="yes"/>
      <point x="780" y="403"/>
      <point x="697" y="467"/>
      <point x="607" y="467" type="curve" smooth="yes"/>
      <point x="554" y="467"/>
      <point x="500" y="446"/>
      <point x="457" y="399" type="curve"/>
      <point x="529" y="299" type="line"/>
      <point x="545" y="334"/>
      <point x="576" y="352"/>
      <point x="604" y="352" type="curve" smooth="yes"/>
      <point x="637" y="352"/>
      <point x="666" y="329"/>
      <point x="666" y="285" type="curve" smooth="yes"/>
    </contour>
  </outline>
</glyph>
<glyph name="u1051" format="2">
  <advance width="600"/>
  <unicode hex="1051"/>
  <anchor x="292" y="-53" name="BD"/>
  <anchor x="300" y="-53" name="BS"/>
  <anchor x="300" y="-53" name="L"/>
  <anchor x="300" y="495" name="U"/>
  <anchor x="0" y="0" name="_R"/>
  <outline>
    <contour>
      <point x="300" y="-23" type="curve" smooth="yes"/>
      <point x="453" y="-23"/>
      <point x="548" y="103"/>
      <point x="548" y="242" type="curve" smooth="yes"/>
      <point x="548" y="319"/>
      <point x="518" y="400"/>
      <point x="454" y="466" type="curve"/>
      <point x="388" y="373" type="line"/>
      <point x="417" y="334"/>
      <point x="433" y="288"/>
      <point x="433" y="245" type="curve" smooth="yes"/>
      <point x="433" y="163"/>
      <point x="383" y="91"/>
      <point x="300" y="91" type="curve" smooth="yes"/>
      <point x="217" y="91"/>
      <point x="168" y="163"/>
      <point x="168" y="244" type="curve" smooth="yes"/>
      <point x="168" y="287"/>
      <point x="182" y="333"/>
      <point x="211" y="373" type="curve"/>
      <point x="145" y="466" type="line"/>
      <point x="82" y="401"/>
      <point x="53" y="320"/>
      <point x="53" y="243" type="curve" smooth="yes"/>
      <point x="53" y="104"/>
      <point x="146" y="-23"/>
    </contour>
    <contour>
      <point x="300" y="150" type="curve" smooth="yes"/>
      <point x="348" y="150"/>
      <point x="387" y="187"/>
      <point x="387" y="236" type="curve" smooth="yes"/>
      <point x="387" y="285"/>
      <point x="348" y="324"/>
      <point x="300" y="324" type="curve" smooth="yes"/>
      <point x="254" y="324"/>
      <point x="215" y="285"/>
      <point x="215" y="236" type="curve" smooth="yes"/>
      <point x="215" y="187"/>
      <point x="254" y="150"/>
    </contour>
    <contour>
      <point x="300" y="235" type="curve"/>
      <point x="300" y="235"/>
      <point x="299" y="236"/>
      <point x="299" y="236" type="curve"/>
      <point x="299" y="236"/>
      <point x="300" y="237"/>
      <point x="300" y="237" type="curve"/>
      <point x="300" y="237"/>
      <point x="301" y="236"/>
      <point x="301" y="236" type="curve"/>
      <point x="301" y="236"/>
      <point x="300" y="235"/>
    </contour>
  </outline>
</glyph>
<glyph name="u1054" format="2">
  <advance width="600"/>
  <unicode hex="1054"/>
  <anchor x="283" y="-53" name="BD"/>
  <anchor x="300" y="-53" name="BS"/>
  <anchor x="283" y="-53" name="L"/>
  <anchor x="300" y="-53" name="U"/>
  <anchor x="0" y="0" name="_R"/>
  <outline>
    <contour>
      <point x="298" y="-23" type="curve" smooth="yes"/>
      <point x="375" y="-23"/>
      <point x="458" y="16"/>
      <point x="506" y="94" type="curve"/>
      <point x="401" y="142" type="line"/>
      <point x="377" y="111"/>
      <point x="339" y="91"/>
      <point x="298" y="91" type="curve" smooth="yes"/>
      <point x="220" y="91"/>
      <point x="167" y="156"/>
      <point x="167" y="221" type="curve" smooth="yes"/>
      <point x="167" y="289"/>
      <point x="221" y="352"/>
      <point x="298" y="352" type="curve" smooth="yes"/>
      <point x="332" y="352"/>
      <point x="372" y="338"/>
      <point x="401" y="301" type="curve"/>
      <point x="382" y="294"/>
      <point x="370" y="291"/>
      <point x="350" y="291" type="curve" smooth="yes"/>
      <point x="301" y="291"/>
      <point x="257" y="320"/>
      <point x="235" y="359" type="curve"/>
      <point x="156" y="273" type="line"/>
      <point x="209" y="200"/>
      <point x="293" y="177"/>
      <point x="350" y="177" type="curve" smooth="yes"/>
      <point x="417" y="177"/>
      <point x="482" y="203"/>
      <point x="538" y="265" type="curve"/>
      <point x="514" y="393"/>
      <point x="403" y="466"/>
      <point x="298" y="466" type="curve" smooth="yes"/>
      <point x="155" y="466"/>
      <point x="53" y="349"/>
      <point x="53" y="221" type="curve" smooth="yes"/>
      <point x="53" y="92"/>
      <point x="156" y="-23"/>
    </contour>
  </outline>
</glyph>
<glyph name="u1059" format="2">
  <advance width="489"/>
  <unicode hex="1059"/>
  <anchor x="25" y="-53" name="BSM"/>
  <anchor x="-620" y="-53" name="LLM"/>
  <anchor x="556" y="-53" name="LM"/>
  <anchor x="235" y="-42" name="UM"/>
  <anchor x="247" y="-53" name="_BS"/>
  <anchor x="247" y="-53" name="_BSM"/>
  <outline>
    <contour>
      <point x="187" y="-456" type="curve" smooth="yes"/>
      <point x="227" y="-456"/>
      <point x="243" y="-418"/>
      <point x="253" y="-418" type="curve" smooth="yes"/>
      <point x="263" y="-418"/>
      <point x="276" y="-456"/>
      <point x="317" y="-456" type="curve" smooth="yes"/>
      <point x="366" y="-456"/>
      <point x="403" y="-397"/>
      <point x="428" y="-350" type="curve"/>
      <point x="358" y="-307" type="line"/>
      <point x="341" y="-339"/>
      <point x="326" y="-363"/>
      <point x="314" y="-363" type="curve" smooth="yes"/>
      <point x="295" y="-363"/>
      <point x="288" y="-317"/>
      <point x="253" y="-317" type="curve" smooth="yes"/>
      <point x="214" y="-317"/>
      <point x="214" y="-363"/>
      <point x="191" y="-363" type="curve" smooth="yes"/>
      <point x="169" y="-363"/>
      <point x="159" y="-321"/>
      <point x="159" y="-287" type="curve" smooth="yes"/>
      <point x="159" y="-224"/>
      <point x="198" y="-184"/>
      <point x="248" y="-184" type="curve" smooth="yes"/>
      <point x="281" y="-184"/>
      <point x="310" y="-202"/>
      <point x="325" y="-229" type="curve"/>
      <point x="333" y="-207" type="line"/>
      <point x="319" y="-213"/>
      <point x="304" y="-216"/>
      <point x="289" y="-216" type="curve" smooth="yes"/>
      <point x="254" y="-216"/>
      <point x="220" y="-200"/>
      <point x="195" y="-170" type="curve"/>
      <point x="130" y="-205" type="line"/>
      <point x="160" y="-263"/>
      <point x="223" y="-295"/>
      <point x="287" y="-295" type="curve" smooth="yes"/>
      <point x="335" y="-295"/>
      <point x="385" y="-277"/>
      <point x="423" y="-240" type="curve"/>
      <point x="406" y="-157"/>
      <point x="334" y="-94"/>
      <point x="248" y="-94" type="curve" smooth="yes"/>
      <point x="151" y="-94"/>
      <point x="70" y="-176"/>
      <point x="70" y="-283" type="curve" smooth="yes"/>
      <point x="70" y="-399"/>
      <point x="131" y="-456"/>
    </contour>
  </outline>
</glyph>
<glyph name="u105E" format="2">
  <unicode hex="105E"/>
  <anchor x="144" y="-53" name="BSM"/>
  <anchor x="-284" y="-53" name="LLM"/>
  <anchor x="93" y="-53" name="LM"/>
  <anchor x="-99" y="-53" name="_BS"/>
  <anchor x="-99" y="-53" name="_BSM"/>
  <outline>
    <contour>
      <point x="-153" y="-471" type="curve" smooth="yes"/>
      <point x="-76" y="-471"/>
      <point x="-55" y="-431"/>
      <point x="-55" y="-351" type="curve" smooth="yes"/>
      <point x="-55" y="-292" type="line"/>
      <point x="-29" y="-298"/>
      <point x="-6" y="-307"/>
      <point x="17" y="-331" type="curve"/>
      <point x="59" y="-272" type="line"/>
      <point x="18" y="-228"/>
      <point x="-16" y="-214"/>
      <point x="-55" y="-205" type="curve"/>
      <point x="-55" y="-104" type="line"/>
      <point x="-142" y="-104" type="line"/>
      <point x="-142" y="-201" type="line"/>
      <point x="-182" y="-206"/>
      <point x="-306" y="-214"/>
      <point x="-306" y="-330" type="curve" smooth="yes"/>
      <point x="-306" y="-451"/>
      <point x="-177" y="-471"/>
    </contour>
    <contour>
      <point x="-153" y="-380" type="curve" smooth="yes"/>
      <point x="-173" y="-380"/>
      <point x="-219" y="-367"/>
      <point x="-219" y="-330" type="curve" smooth="yes"/>
      <point x="-219" y="-300"/>
      <point x="-165" y="-286"/>
      <point x="-142" y="-286" type="curve"/>
      <point x="-142" y="-364" type="line" smooth="yes"/>
      <point x="-142" y="-372"/>
      <point x="-142" y="-380"/>
    </contour>
  </outline>
</glyph>
<glyph name="u1060" format="2">
  <unicode hex="1060"/>
  <anchor x="-501" y="-53" name="BSM"/>
  <anchor x="-501" y="-53" name="LLM"/>
  <anchor x="0" y="-53" name="LM"/>
  <anchor x="-275" y="-53" name="_BS"/>
  <anchor x="-275" y="-53" name="_BSM"/>
  <outline>
    <contour>
      <point x="-436" y="-471" type="line"/>
      <point x="-55" y="-471" type="line"/>
      <point x="-55" y="-361" type="line"/>
      <point x="-248" y="-361" type="line"/>
      <point x="-103" y="-95" type="line"/>
      <point x="-229" y="-95" type="line"/>
    </contour>
  </outline>
</glyph>
<glyph name="u1065" format="2">
  <advance width="578"/>
  <unicode hex="1065"/>
  <anchor x="279" y="-53" name="BD"/>
  <anchor x="280" y="-53" name="BS"/>
  <anchor x="280" y="-53" name="L"/>
  <anchor x="280" y="495" name="U"/>
  <anchor x="0" y="0" name="_R"/>
  <outline>
    <contour>
      <point x="280" y="-23" type="curve" smooth="yes"/>
      <point x="412" y="-23"/>
      <point x="523" y="87"/>
      <point x="523" y="222" type="curve" smooth="yes"/>
      <point x="523" y="355"/>
      <point x="412" y="466"/>
      <point x="280" y="466" type="curve" smooth="yes"/>
      <point x="188" y="466"/>
      <point x="103" y="420"/>
      <point x="55" y="336" type="curve"/>
      <point x="157" y="283" type="line"/>
      <point x="184" y="327"/>
      <point x="226" y="352"/>
      <point x="280" y="352" type="curve" smooth="yes"/>
      <point x="350" y="352"/>
      <point x="409" y="292"/>
      <point x="409" y="222" type="curve" smooth="yes"/>
      <point x="409" y="151"/>
      <point x="350" y="91"/>
      <point x="280" y="91" type="curve" smooth="yes"/>
      <point x="226" y="91"/>
      <point x="193" y="109"/>
      <point x="157" y="160" type="curve"/>
      <point x="55" y="108" type="line"/>
      <point x="100" y="27"/>
      <point x="184" y="-23"/>
    </contour>
  </outline>
</glyph>
<glyph name="u1067" format="2">
  <advance width="379"/>
  <unicode hex="1067"/>
  <anchor x="138" y="-53" name="BD"/>
  <anchor x="183" y="-53" name="BS"/>
  <anchor x="183" y="-53" name="L"/>
  <anchor x="265" y="495" name="U"/>
  <outline>
    <contour>
      <point x="183" y="-23" type="curve" smooth="yes"/>
      <point x="259" y="-23"/>
      <point x="324" y="21"/>
      <point x="324" y="109" type="curve" smooth="yes"/>
      <point x="324" y="474" type="line"/>
      <point x="210" y="474" type="line"/>
      <point x="210" y="238" type="line"/>
      <point x="201" y="240"/>
      <point x="192" y="241"/>
      <point x="183" y="241" type="curve" smooth="yes"/>
      <point x="112" y="241"/>
      <point x="55" y="181"/>
      <point x="55" y="109" type="curve" smooth="yes"/>
      <point x="55" y="37"/>
      <point x="112" y="-23"/>
    </contour>
    <contour>
      <point x="183" y="63" type="curve" smooth="yes"/>
      <point x="156" y="63"/>
      <point x="139" y="88"/>
      <point x="139" y="109" type="curve" smooth="yes"/>
      <point x="139" y="130"/>
      <point x="156" y="151"/>
      <point x="183" y="151" type="curve" smooth="yes"/>
      <point x="208" y="151"/>
      <point x="228" y="130"/>
      <point x="228" y="109" type="curve" smooth="yes"/>
      <point x="228" y="85"/>
      <point x="208" y="63"/>
    </contour>
  </outline>
</glyph>
<glyph name="u106A" format="2">
  <advance width="382"/>
  <unicode hex="106A"/>
  <anchor x="154" y="-53" name="BD"/>
  <anchor x="192" y="-53" name="BS"/>
  <anchor x="192" y="-53" name="L"/>
  <anchor x="265" y="495" name="U"/>
  <outline>
    <contour>
      <point x="192" y="-23" type="curve" smooth="yes"/>
      <point x="264" y="-23"/>
      <point x="328" y="22"/>
      <point x="328" y="113" type="curve" smooth="yes"/>
      <point x="328" y="474" type="line"/>
      <point x="214" y="474" type="line"/>
      <point x="214" y="113" type="line" smooth="yes"/>
      <point x="214" y="96"/>
      <point x="206" y="84"/>
      <point x="192" y="84" type="curve" smooth="yes"/>
      <point x="181" y="84"/>
      <point x="168" y="98"/>
      <point x="168" y="123" type="curve"/>
      <point x="55" y="123" type="line"/>
      <point x="55" y="40"/>
      <point x="117" y="-23"/>
    </contour>
  </outline>
</glyph>
<glyph name="u106E" format="2">
  <advance width="1213"/>
  <unicode hex="106E"/>
  <anchor x="606" y="-53" name="BD"/>
  <anchor x="915" y="-53" name="BS"/>
  <anchor x="915" y="-53" name="L"/>
  <anchor x="915" y="495" name="U"/>
  <anchor x="0" y="0" name="_R"/>
  <outline>
    <contour>
      <point x="145" y="-23" type="curve"/>
      <point x="211" y="70" type="line"/>
      <point x="180" y="112"/>
      <point x="169" y="133"/>
      <point x="169" y="207" type="curve" smooth="yes"/>
      <point x="169" y="277"/>
      <point x="216" y="352"/>
      <point x="300" y="352" type="curve" smooth="yes"/>
      <point x="384" y="352"/>
      <point x="430" y="277"/>
      <point x="430" y="207" type="curve" smooth="yes"/>
      <point x="430" y="133"/>
      <point x="420" y="112"/>
      <point x="388" y="70" type="curve"/>
      <point x="454" y="-23" type="line"/>
      <point x="526" y="39"/>
      <point x="544" y="112"/>
      <point x="544" y="207" type="curve" smooth="yes"/>
      <point x="544" y="262"/>
      <point x="528" y="309"/>
      <point x="505" y="347" type="curve"/>
      <point x="515" y="350"/>
      <point x="527" y="352"/>
      <point x="537" y="352" type="curve" smooth="yes"/>
      <point x="621" y="352"/>
      <point x="667" y="277"/>
      <point x="667" y="207" type="curve" smooth="yes"/>
      <point x="667" y="133"/>
      <point x="657" y="112"/>
      <point x="625" y="70" type="curve"/>
      <point x="691" y="-23" type="line"/>
      <point x="763" y="39"/>
      <point x="781" y="112"/>
      <point x="781" y="207" type="curve" smooth="yes"/>
      <point x="781" y="265"/>
      <point x="843" y="352"/>
      <point x="915" y="352" type="curve" smooth="yes"/>
      <point x="987" y="352"/>
      <point x="1045" y="292"/>
      <point x="1045" y="222" type="curve" smooth="yes"/>
      <point x="1045" y="151"/>
      <point x="987" y="91"/>
      <point x="915" y="91" type="curve" smooth="yes"/>
      <point x="907" y="91"/>
      <point x="898" y="92"/>
      <point x="889" y="94" type="curve"/>
      <point x="844" y="-11" type="line"/>
      <point x="862" y="-20"/>
      <point x="893" y="-23"/>
      <point x="915" y="-23" type="curve" smooth="yes"/>
      <point x="1048" y="-23"/>
      <point x="1158" y="87"/>
      <point x="1158" y="222" type="curve" smooth="yes"/>
      <point x="1158" y="355"/>
      <point x="1048" y="466"/>
      <point x="915" y="466" type="curve" smooth="yes"/>
      <point x="831" y="466"/>
      <point x="766" y="421"/>
      <point x="727" y="367" type="curve"/>
      <point x="678" y="435"/>
      <point x="608" y="466"/>
      <point x="537" y="466" type="curve" smooth="yes"/>
      <point x="491" y="466"/>
      <point x="450" y="453"/>
      <point x="418" y="434" type="curve"/>
      <point x="380" y="456"/>
      <point x="338" y="466"/>
      <point x="300" y="466" type="curve" smooth="yes"/>
      <point x="160" y="466"/>
      <point x="55" y="345"/>
      <point x="55" y="207" type="curve" smooth="yes"/>
      <point x="55" y="112"/>
      <point x="73" y="39"/>
    </contour>
  </outline>
</glyph>
<glyph name="u1075" format="2">
  <advance width="592"/>
  <unicode hex="1075"/>
  <anchor x="285" y="-53" name="BD"/>
  <anchor x="292" y="-53" name="BS"/>
  <anchor x="292" y="-53" name="L"/>
  <anchor x="292" y="495" name="U"/>
  <anchor x="0" y="0" name="_R"/>
  <outline>
    <contour>
      <point x="442" y="-15" type="line"/>
      <point x="508" y="55"/>
      <point x="538" y="136"/>
      <point x="538" y="212" type="curve" smooth="yes"/>
      <point x="538" y="348"/>
      <point x="442" y="466"/>
      <point x="285" y="466" type="curve" smooth="yes"/>
      <point x="133" y="466"/>
      <point x="39" y="362"/>
      <point x="39" y="222" type="curve" smooth="yes"/>
      <point x="39" y="191"/>
      <point x="44" y="157"/>
      <point x="54" y="123" type="curve"/>
      <point x="81" y="136"/>
      <point x="103" y="141"/>
      <point x="120" y="141" type="curve" smooth="yes"/>
      <point x="146" y="141"/>
      <point x="159" y="129"/>
      <point x="159" y="117" type="curve" smooth="yes"/>
      <point x="159" y="106"/>
      <point x="148" y="96"/>
      <point x="125" y="96" type="curve" smooth="yes"/>
      <point x="119" y="96"/>
      <point x="111" y="98"/>
      <point x="104" y="99" type="curve"/>
      <point x="104" y="-12" type="line"/>
      <point x="109" y="-14"/>
      <point x="135" y="-15"/>
      <point x="141" y="-15" type="curve" smooth="yes"/>
      <point x="230" y="-15"/>
      <point x="273" y="50"/>
      <point x="273" y="114" type="curve" smooth="yes"/>
      <point x="273" y="174"/>
      <point x="237" y="238"/>
      <point x="168" y="238" type="curve" smooth="yes"/>
      <point x="163" y="238"/>
      <point x="161" y="238"/>
      <point x="152" y="237" type="curve"/>
      <point x="151" y="242"/>
      <point x="151" y="245"/>
      <point x="151" y="247" type="curve" smooth="yes"/>
      <point x="151" y="314"/>
      <point x="214" y="353"/>
      <point x="280" y="353" type="curve" smooth="yes"/>
      <point x="350" y="353"/>
      <point x="422" y="309"/>
      <point x="422" y="208" type="curve" smooth="yes"/>
      <point x="422" y="164"/>
      <point x="407" y="117"/>
      <point x="376" y="79" type="curve"/>
    </contour>
  </outline>
</glyph>
<glyph name="u1076" format="2">
  <advance width="597"/>
  <unicode hex="1076"/>
  <anchor x="289" y="-53" name="BD"/>
  <anchor x="297" y="-53" name="BS"/>
  <anchor x="297" y="-53" name="L"/>
  <anchor x="312" y="495" name="U"/>
  <anchor x="0" y="0" name="_R"/>
  <outline>
    <contour>
      <point x="286" y="-38" type="curve" smooth="yes"/>
      <point x="429" y="-38"/>
      <point x="531" y="79"/>
      <point x="531" y="207" type="curve" smooth="yes"/>
      <point x="531" y="351"/>
      <point x="426" y="448"/>
      <point x="286" y="448" type="curve" smooth="yes"/>
      <point x="255" y="448"/>
      <point x="213" y="443"/>
      <point x="179" y="433" type="curve"/>
      <point x="192" y="406"/>
      <point x="197" y="384"/>
      <point x="197" y="367" type="curve" smooth="yes"/>
      <point x="197" y="341"/>
      <point x="185" y="328"/>
      <point x="173" y="328" type="curve" smooth="yes"/>
      <point x="162" y="328"/>
      <point x="152" y="339"/>
      <point x="152" y="362" type="curve" smooth="yes"/>
      <point x="152" y="368"/>
      <point x="154" y="376"/>
      <point x="155" y="383" type="curve"/>
      <point x="52" y="383" type="line"/>
      <point x="50" y="378"/>
      <point x="49" y="352"/>
      <point x="49" y="346" type="curve" smooth="yes"/>
      <point x="49" y="274"/>
      <point x="111" y="235"/>
      <point x="172" y="235" type="curve" smooth="yes"/>
      <point x="235" y="235"/>
      <point x="287" y="269"/>
      <point x="287" y="321" type="curve" smooth="yes"/>
      <point x="287" y="324"/>
      <point x="287" y="328"/>
      <point x="287" y="332" type="curve"/>
      <point x="292" y="333"/>
      <point x="297" y="333"/>
      <point x="303" y="333" type="curve" smooth="yes"/>
      <point x="373" y="333"/>
      <point x="417" y="273"/>
      <point x="417" y="207" type="curve" smooth="yes"/>
      <point x="417" y="139"/>
      <point x="363" y="76"/>
      <point x="286" y="76" type="curve" smooth="yes"/>
      <point x="252" y="76"/>
      <point x="212" y="90"/>
      <point x="192" y="121" type="curve"/>
      <point x="205" y="124"/>
      <point x="219" y="125"/>
      <point x="232" y="125" type="curve" smooth="yes"/>
      <point x="278" y="125"/>
      <point x="322" y="107"/>
      <point x="349" y="60" type="curve"/>
      <point x="428" y="119" type="line"/>
      <point x="378" y="189"/>
      <point x="303" y="220"/>
      <point x="227" y="220" type="curve" smooth="yes"/>
      <point x="163" y="220"/>
      <point x="98" y="198"/>
      <point x="46" y="159" type="curve"/>
      <point x="70" y="31"/>
      <point x="181" y="-38"/>
    </contour>
  </outline>
</glyph>
<glyph name="u107C" format="2">
  <advance width="1024"/>
  <unicode hex="107C"/>
  <anchor x="516" y="-53" name="BD"/>
  <anchor x="736" y="-53" name="BS"/>
  <anchor x="736" y="-53" name="L"/>
  <anchor x="736" y="495" name="U"/>
  <anchor x="4" y="0" name="_R"/>
  <outline>
    <contour>
      <point x="653" y="-23" type="curve" smooth="yes"/>
      <point x="753" y="-23"/>
      <point x="837" y="37"/>
      <point x="874" y="121" type="curve"/>
      <point x="836" y="208"/>
      <point x="750" y="266"/>
      <point x="656" y="266" type="curve" smooth="yes"/>
      <point x="582" y="266"/>
      <point x="517" y="231"/>
      <point x="473" y="179" type="curve"/>
      <point x="546" y="85" type="line"/>
      <point x="567" y="124"/>
      <point x="608" y="152"/>
      <point x="653" y="152" type="curve" smooth="yes"/>
      <point x="684" y="152"/>
      <point x="713" y="140"/>
      <point x="735" y="121" type="curve"/>
      <point x="714" y="103"/>
      <point x="686" y="91"/>
      <point x="656" y="91" type="curve" smooth="yes"/>
      <point x="587" y="91"/>
      <point x="529" y="151"/>
      <point x="529" y="222" type="curve" smooth="yes"/>
      <point x="529" y="291"/>
      <point x="586" y="352"/>
      <point x="653" y="352" type="curve" smooth="yes"/>
      <point x="705" y="352"/>
      <point x="750" y="319"/>
      <point x="770" y="274" type="curve"/>
      <point x="873" y="324" type="line"/>
      <point x="835" y="407"/>
      <point x="752" y="466"/>
      <point x="656" y="466" type="curve" smooth="yes"/>
      <point x="521" y="466"/>
      <point x="415" y="349"/>
      <point x="415" y="222" type="curve" smooth="yes"/>
      <point x="415" y="87"/>
      <point x="521" y="-23"/>
    </contour>
    <contour>
      <point x="291" y="-23" type="curve" smooth="yes"/>
      <point x="423" y="-23"/>
      <point x="529" y="87"/>
      <point x="529" y="222" type="curve" smooth="yes"/>
      <point x="529" y="349"/>
      <point x="423" y="466"/>
      <point x="288" y="466" type="curve" smooth="yes"/>
      <point x="192" y="466"/>
      <point x="109" y="407"/>
      <point x="71" y="324" type="curve"/>
      <point x="174" y="274" type="line"/>
      <point x="194" y="319"/>
      <point x="239" y="352"/>
      <point x="291" y="352" type="curve" smooth="yes"/>
      <point x="358" y="352"/>
      <point x="415" y="291"/>
      <point x="415" y="222" type="curve" smooth="yes"/>
      <point x="415" y="151"/>
      <point x="357" y="91"/>
      <point x="288" y="91" type="curve" smooth="yes"/>
      <point x="258" y="91"/>
      <point x="230" y="103"/>
      <point x="209" y="121" type="curve"/>
      <point x="231" y="140"/>
      <point x="260" y="152"/>
      <point x="291" y="152" type="curve" smooth="yes"/>
      <point x="336" y="152"/>
      <point x="377" y="124"/>
      <point x="398" y="85" type="curve"/>
      <point x="471" y="179" type="line"/>
      <point x="427" y="231"/>
      <point x="362" y="266"/>
      <point x="288" y="266" type="curve" smooth="yes"/>
      <point x="193" y="266"/>
      <point x="108" y="208"/>
      <point x="70" y="121" type="curve"/>
      <point x="107" y="37"/>
      <point x="191" y="-23"/>
    </contour>
  </outline>
</glyph>
<glyph name="u107F" format="2">
  <advance width="600"/>
  <unicode hex="107F"/>
  <anchor x="292" y="-53" name="BD"/>
  <anchor x="300" y="-53" name="BS"/>
  <anchor x="300" y="-53" name="L"/>
  <anchor x="300" y="495" name="U"/>
  <anchor x="0" y="0" name="_R"/>
  <outline>
    <contour>
      <point x="297" y="-22" type="curve" smooth="yes"/>
      <point x="426" y="-22"/>
      <point x="541" y="81"/>
      <point x="541" y="223" type="curve" smooth="yes"/>
      <point x="541" y="300"/>
      <point x="502" y="383"/>
      <point x="424" y="431" type="curve"/>
      <point x="376" y="326" type="line"/>
      <point x="407" y="302"/>
      <point x="427" y="264"/>
      <point x="427" y="223" type="curve" smooth="yes"/>
      <point x="427" y="145"/>
      <point x="362" y="92"/>
      <point x="297" y="92" type="curve" smooth="yes"/>
      <point x="229" y="92"/>
      <point x="166" y="146"/>
      <point x="166" y="223" type="curve" smooth="yes"/>
      <point x="166" y="257"/>
      <point x="180" y="297"/>
      <point x="217" y="326" type="curve"/>
      <point x="224" y="307"/>
      <point x="227" y="295"/>
      <point x="227" y="275" type="curve" smooth="yes"/>
      <point x="227" y="226"/>
      <point x="198" y="182"/>
      <point x="159" y="160" type="curve"/>
      <point x="245" y="81" type="line"/>
      <point x="318" y="134"/>
      <point x="341" y="218"/>
      <point x="341" y="275" type="curve" smooth="yes"/>
      <point x="341" y="342"/>
      <point x="315" y="407"/>
      <point x="253" y="463" type="curve"/>
      <point x="125" y="439"/>
      <point x="52" y="328"/>
      <point x="52" y="223" type="curve" smooth="yes"/>
      <point x="52" y="80"/>
      <point x="169" y="-22"/>
    </contour>
  </outline>
</glyph>
<glyph name="u1080" format="2">
  <advance width="975"/>
  <unicode hex="1080"/>
  <anchor x="493" y="-53" name="BD"/>
  <anchor x="676" y="-53" name="BS"/>
  <anchor x="676" y="-53" name="L"/>
  <anchor x="676" y="495" name="U"/>
  <anchor x="0" y="0" name="_R"/>
  <outline>
    <contour>
      <point x="673" y="-23" type="curve" smooth="yes"/>
      <point x="804" y="-23"/>
      <point x="913" y="88"/>
      <point x="913" y="221" type="curve" smooth="yes"/>
      <point x="913" y="356"/>
      <point x="804" y="466"/>
      <point x="673" y="466" type="curve" smooth="yes"/>
      <point x="660" y="466"/>
      <point x="623" y="466"/>
      <point x="582" y="450" type="curve"/>
      <point x="627" y="344" type="line"/>
      <point x="648" y="352"/>
      <point x="665" y="352"/>
      <point x="672" y="352" type="curve" smooth="yes"/>
      <point x="744" y="352"/>
      <point x="799" y="292"/>
      <point x="799" y="221" type="curve" smooth="yes"/>
      <point x="799" y="152"/>
      <point x="740" y="91"/>
      <point x="673" y="91" type="curve" smooth="yes"/>
      <point x="591" y="91"/>
      <point x="539" y="150"/>
      <point x="538" y="221" type="curve"/>
      <point x="468" y="82" type="line"/>
      <point x="501" y="33"/>
      <point x="571" y="-23"/>
    </contour>
    <contour>
      <point x="293" y="-23" type="curve" smooth="yes"/>
      <point x="436" y="-23"/>
      <point x="539" y="94"/>
      <point x="538" y="222" type="curve" smooth="yes"/>
      <point x="537" y="351"/>
      <point x="435" y="466"/>
      <point x="293" y="466" type="curve" smooth="yes"/>
      <point x="216" y="466"/>
      <point x="133" y="427"/>
      <point x="85" y="349" type="curve"/>
      <point x="190" y="301" type="line"/>
      <point x="214" y="332"/>
      <point x="252" y="352"/>
      <point x="293" y="352" type="curve" smooth="yes"/>
      <point x="371" y="352"/>
      <point x="424" y="287"/>
      <point x="424" y="222" type="curve" smooth="yes"/>
      <point x="424" y="154"/>
      <point x="370" y="91"/>
      <point x="293" y="91" type="curve" smooth="yes"/>
      <point x="259" y="91"/>
      <point x="219" y="105"/>
      <point x="190" y="142" type="curve"/>
      <point x="209" y="149"/>
      <point x="221" y="152"/>
      <point x="241" y="152" type="curve" smooth="yes"/>
      <point x="290" y="152"/>
      <point x="334" y="123"/>
      <point x="356" y="84" type="curve"/>
      <point x="435" y="170" type="line"/>
      <point x="382" y="243"/>
      <point x="298" y="266"/>
      <point x="241" y="266" type="curve" smooth="yes"/>
      <point x="174" y="266"/>
      <point x="109" y="240"/>
      <point x="53" y="178" type="curve"/>
      <point x="77" y="50"/>
      <point x="188" y="-23"/>
    </contour>
  </outline>
</glyph>
<glyph name="u1081" format="2">
  <advance width="579"/>
  <unicode hex="1081"/>
  <anchor x="520" y="-53" name="BD"/>
  <anchor x="520" y="-53" name="BS"/>
  <anchor x="520" y="-53" name="L"/>
  <anchor x="292" y="495" name="U"/>
  <anchor x="0" y="0" name="_R"/>
  <outline>
    <contour>
      <point x="216" y="-471" type="line"/>
      <point x="435" y="132" type="line"/>
      <point x="328" y="171" type="line"/>
      <point x="298" y="91" type="line"/>
      <point x="228" y="91"/>
      <point x="171" y="151"/>
      <point x="171" y="222" type="curve" smooth="yes"/>
      <point x="171" y="291"/>
      <point x="228" y="352"/>
      <point x="300" y="352" type="curve" smooth="yes"/>
      <point x="347" y="352"/>
      <point x="387" y="334"/>
      <point x="421" y="283" type="curve"/>
      <point x="523" y="336" type="line"/>
      <point x="472" y="432"/>
      <point x="373" y="466"/>
      <point x="300" y="466" type="curve" smooth="yes"/>
      <point x="166" y="466"/>
      <point x="57" y="355"/>
      <point x="57" y="222" type="curve" smooth="yes"/>
      <point x="57" y="103"/>
      <point x="145" y="-1"/>
      <point x="258" y="-20" type="curve"/>
      <point x="148" y="-326" type="line"/>
      <point x="69" y="-296" type="line"/>
      <point x="30" y="-402" type="line"/>
    </contour>
  </outline>
</glyph>
<glyph name="u1084" format="2">
  <advance width="552"/>
  <unicode hex="1084"/>
  <outline>
    <contour>
      <point x="277" y="-23" type="curve" smooth="yes"/>
      <point x="427" y="-23"/>
      <point x="496" y="39"/>
      <point x="496" y="121" type="curve"/>
      <point x="387" y="162" type="line"/>
      <point x="387" y="136"/>
      <point x="351" y="91"/>
      <point x="277" y="91" type="curve" smooth="yes"/>
      <point x="225" y="91"/>
      <point x="169" y="103"/>
      <point x="169" y="135" type="curve" smooth="yes"/>
      <point x="169" y="158"/>
      <point x="205" y="177"/>
      <point x="285" y="177" type="curve"/>
      <point x="285" y="267" type="line"/>
      <point x="206" y="267"/>
      <point x="169" y="285"/>
      <point x="169" y="309" type="curve" smooth="yes"/>
      <point x="169" y="340"/>
      <point x="225" y="352"/>
      <point x="277" y="352" type="curve" smooth="yes"/>
      <point x="351" y="352"/>
      <point x="387" y="307"/>
      <point x="387" y="282" type="curve"/>
      <point x="496" y="322" type="line"/>
      <point x="496" y="403"/>
      <point x="418" y="466"/>
      <point x="277" y="466" type="curve" smooth="yes"/>
      <point x="124" y="466"/>
      <point x="55" y="394"/>
      <point x="55" y="309" type="curve" smooth="yes"/>
      <point x="55" y="274"/>
      <point x="70" y="243"/>
      <point x="91" y="220" type="curve"/>
      <point x="70" y="196"/>
      <point x="55" y="166"/>
      <point x="55" y="133" type="curve" smooth="yes"/>
      <point x="55" y="49"/>
      <point x="124" y="-23"/>
    </contour>
  </outline>
</glyph>
<glyph name="u1089" format="2">
  <advance width="324"/>
  <unicode hex="1089"/>
  <outline>
    <contour>
      <point x="162" y="-16" type="curve" smooth="yes"/>
      <point x="223" y="-16"/>
      <point x="272" y="33"/>
      <point x="272" y="94" type="curve" smooth="yes"/>
      <point x="272" y="155"/>
      <point x="223" y="204"/>
      <point x="162" y="204" type="curve" smooth="yes"/>
      <point x="101" y="204"/>
      <point x="52" y="155"/>
      <point x="52" y="94" type="curve" smooth="yes"/>
      <point x="52" y="33"/>
      <point x="101" y="-16"/>
    </contour>
    <contour>
      <point x="162" y="59" type="curve" smooth="yes"/>
      <point x="142" y="59"/>
      <point x="127" y="74"/>
      <point x="127" y="94" type="curve" smooth="yes"/>
      <point x="127" y="114"/>
      <point x="142" y="129"/>
      <point x="162" y="129" type="curve" smooth="yes"/>
      <point x="182" y="129"/>
      <point x="197" y="114"/>
      <point x="197" y="94" type="curve" smooth="yes"/>
      <point x="197" y="74"/>
      <point x="182" y="59"/>
    </contour>
  </outline>
</glyph>
<glyph name="u108E" format="2">
  <advance width="591"/>
  <unicode hex="108E"/>
  <anchor x="288" y="-53" name="BD"/>
  <anchor x="297" y="-53" name="BS"/>
  <anchor x="297" y="-53" name="L"/>
  <anchor x="297" y="495" name="U"/>
  <anchor x="0" y="0" name="_R"/>
  <outline>
    <contour>
      <point x="297" y="-23" type="curve" smooth="yes"/>
      <point x="429" y="-23"/>
      <point x="535" y="87"/>
      <point x="535" y="222" type="curve" smooth="yes"/>
      <point x="535" y="355"/>
      <point x="429" y="466"/>
      <point x="294" y="466" type="curve" smooth="yes"/>
      <point x="162" y="466"/>
      <point x="55" y="355"/>
      <point x="55" y="222" type="curve" smooth="yes"/>
      <point x="55" y="87"/>
      <point x="162" y="-23"/>
    </contour>
    <contour>
      <point x="294" y="91" type="curve" smooth="yes"/>
      <point x="201" y="91"/>
      <point x="169" y="175"/>
      <point x="169" y="200" type="curve" smooth="yes"/>
      <point x="169" y="204"/>
      <point x="169" y="207"/>
      <point x="169" y="211" type="curve"/>
      <point x="213" y="181"/>
      <point x="259" y="175"/>
      <point x="297" y="175" type="curve" smooth="yes"/>
      <point x="333" y="175"/>
      <point x="378" y="181"/>
      <point x="420" y="210" type="curve"/>
      <point x="420" y="206"/>
      <point x="420" y="203"/>
      <point x="420" y="199" type="curve" smooth="yes"/>
      <point x="420" y="176"/>
      <point x="387" y="91"/>
    </contour>
    <contour>
      <point x="297" y="268" type="curve" smooth="yes"/>
      <point x="259" y="268"/>
      <point x="225" y="280"/>
      <point x="195" y="300" type="curve"/>
      <point x="217" y="331"/>
      <point x="255" y="352"/>
      <point x="297" y="352" type="curve" smooth="yes"/>
      <point x="337" y="352"/>
      <point x="372" y="331"/>
      <point x="396" y="300" type="curve"/>
      <point x="366" y="280"/>
      <point x="333" y="268"/>
    </contour>
  </outline>
</glyph>
<glyph name="u1096" format="2">
  <advance width="661"/>
  <unicode hex="1096"/>
  <anchor x="0" y="0" name="_R"/>
  <outline>
    <contour>
      <point x="431" y="-471" type="line"/>
      <point x="544" y="-471" type="line"/>
      <point x="544" y="-23" type="line"/>
      <point x="606" y="-23" type="line"/>
      <point x="606" y="90" type="line"/>
      <point x="544" y="90" type="line"/>
      <point x="544" y="204" type="line" smooth="yes"/>
      <point x="544" y="360"/>
      <point x="433" y="466"/>
      <point x="298" y="466" type="curve" smooth="yes"/>
      <point x="164" y="466"/>
      <point x="55" y="355"/>
      <point x="55" y="222" type="curve" smooth="yes"/>
      <point x="55" y="87"/>
      <point x="149" y="-23"/>
      <point x="342" y="-23" type="curve" smooth="yes"/>
      <point x="431" y="-23" type="line"/>
    </contour>
    <contour>
      <point x="342" y="90" type="line" smooth="yes"/>
      <point x="227" y="90"/>
      <point x="169" y="144"/>
      <point x="169" y="219" type="curve" smooth="yes"/>
      <point x="169" y="296"/>
      <point x="229" y="354"/>
      <point x="298" y="354" type="curve" smooth="yes"/>
      <point x="369" y="354"/>
      <point x="431" y="293"/>
      <point x="431" y="204" type="curve" smooth="yes"/>
      <point x="431" y="90" type="line"/>
    </contour>
  </outline>
</glyph>
<glyph name="u1097" format="2">
  <advance width="547"/>
  <unicode hex="1097"/>
  <anchor x="227" y="555" name="U"/>
  <outline>
    <contour>
      <point x="88" y="-471" type="line"/>
      <point x="492" y="-471" type="line"/>
      <point x="492" y="-358" type="line"/>
      <point x="237" y="-358" type="line"/>
      <point x="459" y="445" type="line"/>
      <point x="55" y="445" type="line"/>
      <point x="55" y="331" type="line"/>
      <point x="310" y="331" type="line"/>
    </contour>
  </outline>
</glyph>
<glyph name="emdash" format="2">
  <advance width="1024"/>
  <unicode hex="2014"/>
  <outline>
    <contour>
      <point x="0" y="205" type="line"/>
      <point x="890" y="205" type="line"/>
      <point x="890" y="304" type="line"/>
      <point x="0" y="304" type="line"/>
    </contour>
  </outline>
</glyph>
<glyph name="quoteleft" format="2">
  <advance width="273"/>
  <unicode hex="2018"/>
  <outline>
    <contour>
      <point x="147" y="567" type="curve" smooth="yes"/>
      <point x="195" y="567"/>
      <point x="232" y="612"/>
      <point x="232" y="660" type="curve" smooth="yes"/>
      <point x="232" y="697"/>
      <point x="222" y="726"/>
      <point x="202" y="733" type="curve" smooth="yes"/>
      <point x="192" y="733"/>
      <point x="153" y="722"/>
      <point x="132" y="714" type="curve"/>
      <point x="131" y="717"/>
      <point x="130" y="724"/>
      <point x="130" y="729" type="curve" smooth="yes"/>
      <point x="130" y="781"/>
      <point x="166" y="831"/>
      <point x="196" y="853" type="curve"/>
      <point x="174" y="873" type="line"/>
      <point x="113" y="833"/>
      <point x="55" y="747"/>
      <point x="55" y="660" type="curve" smooth="yes"/>
      <point x="55" y="616"/>
      <point x="91" y="567"/>
    </contour>
  </outline>
</glyph>
<glyph name="quotedblleft" format="2">
  <advance width="522"/>
  <unicode hex="201C"/>
  <outline>
    <contour>
      <point x="396" y="567" type="curve" smooth="yes"/>
      <point x="441" y="567"/>
      <point x="481" y="612"/>
      <point x="481" y="660" type="curve" smooth="yes"/>
      <point x="481" y="699"/>
      <point x="471" y="726"/>
      <point x="451" y="733" type="curve"/>
      <point x="438" y="733"/>
      <point x="401" y="722"/>
      <point x="381" y="714" type="curve"/>
      <point x="380" y="717"/>
      <point x="379" y="724"/>
      <point x="379" y="729" type="curve" smooth="yes"/>
      <point x="379" y="781"/>
      <point x="415" y="831"/>
      <point x="444" y="855" type="curve"/>
      <point x="423" y="873" type="line"/>
      <point x="362" y="833"/>
      <point x="304" y="747"/>
      <point x="304" y="660" type="curve" smooth="yes"/>
      <point x="304" y="616"/>
      <point x="337" y="567"/>
    </contour>
    <contour>
      <point x="147" y="567" type="curve" smooth="yes"/>
      <point x="195" y="567"/>
      <point x="232" y="612"/>
      <point x="232" y="660" type="curve" smooth="yes"/>
      <point x="232" y="699"/>
      <point x="222" y="726"/>
      <point x="202" y="733" type="curve" smooth="yes"/>
      <point x="192" y="733"/>
      <point x="153" y="722"/>
      <point x="132" y="714" type="curve"/>
      <point x="131" y="717"/>
      <point x="130" y="724"/>
      <point x="130" y="729" type="curve" smooth="yes"/>
      <point x="130" y="781"/>
      <point x="166" y="830"/>
      <point x="196" y="855" type="curve"/>
      <point x="174" y="873" type="line"/>
      <point x="113" y="833"/>
      <point x="55" y="747"/>
      <point x="55" y="660" type="curve" smooth="yes"/>
      <point x="55" y="616"/>
      <point x="91" y="567"/>
    </contour>
  </outline>
</glyph>
<glyph name="dagger" format="2">
  <advance width="546"/>
  <unicode hex="2020"/>
  <outline>
    <contour>
      <point x="194" y="-160" type="line"/>
      <point x="302" y="-160" type="line"/>
      <point x="302" y="340" type="line"/>
      <point x="456" y="340" type="line"/>
      <point x="456" y="429" type="line"/>
      <point x="302" y="429" type="line"/>
      <point x="302" y="628" type="line"/>
      <point x="194" y="628" type="line"/>
      <point x="194" y="429" type="line"/>
      <point x="40" y="429" type="line"/>
      <point x="40" y="340" type="line"/>
      <point x="194" y="340" type="line"/>
    </contour>
  </outline>
</glyph>
<glyph name="guilsinglright" format="2">
  <advance width="379"/>
  <unicode hex="203A"/>
  <outline>
    <contour>
      <point x="67" y="58" type="line"/>
      <point x="182" y="58" type="line"/>
      <point x="280" y="232" type="line"/>
      <point x="182" y="406" type="line"/>
      <point x="67" y="406" type="line"/>
      <point x="147" y="232" type="line"/>
    </contour>
  </outline>
</glyph>
<glyph name="rupeeIndian" format="2">
  <advance width="539"/>
  <unicode hex="20B9"/>
  <outline>
    <contour>
      <point x="79" y="562" type="line"/>
      <point x="102" y="563"/>
      <point x="139" y="565"/>
      <point x="169" y="565" type="curve" smooth="yes"/>
      <point x="269" y="565"/>
      <point x="302" y="524"/>
      <point x="302" y="457" type="curve" smooth="yes"/>
      <point x="302" y="391"/>
      <point x="253" y="348"/>
      <point x="169" y="348" type="curve"/>
      <point x="79" y="348" type="line"/>
      <point x="79" y="348"/>
      <point x="79" y="259"/>
      <point x="79" y="259" type="curve"/>
      <point x="198" y="259" type="line"/>
      <point x="290" y="259"/>
      <point x="414" y="317"/>
      <point x="414" y="463" type="curve" smooth="yes"/>
      <point x="414" y="590"/>
      <point x="310" y="638"/>
      <point x="174" y="638" type="curve" smooth="yes"/>
      <point x="138" y="638"/>
      <point x="116" y="625"/>
      <point x="89" y="624" type="curve"/>
    </contour>
    <contour>
      <point x="79" y="259" type="line"/>
      <point x="270" y="0" type="line"/>
      <point x="414" y="0" type="line"/>
      <point x="385" y="31"/>
      <point x="172" y="306"/>
      <point x="172" y="306" type="curve"/>
    </contour>
    <contour>
      <point x="79" y="565" type="line"/>
      <point x="482" y="565" type="line"/>
      <point x="482" y="638" type="line"/>
      <point x="79" y="638" type="line"/>
    </contour>
    <contour>
      <point x="79" y="444" type="line"/>
      <point x="482" y="444" type="line"/>
      <point x="482" y="517" type="line"/>
      <point x="79" y="517" type="line"/>
    </contour>
  </outline>
</glyph>
<glyph name="blank" format="2">
  <advance width="199"/>
  <unicode hex="2423"/>
  <outline>
    <contour>
      <point x="199" y="-111" type="line"/>
      <point x="199" y="0" type="line"/>
      <point x="164" y="0" type="line"/>
      <point x="164" y="-76" type="line"/>
      <point x="35" y="-76" type="line"/>
      <point x="35" y="0" type="line"/>
      <point x="0" y="0" type="line"/>
      <point x="0" y="-111" type="line"/>
    </contour>
  </outline>
</glyph>
<glyph name="uA9E5" format="2">
  <advance width="55"/>
  <unicode hex="A9E5"/>
  <anchor x="-111" y="495" name="UM"/>
  <anchor x="-121" y="495" name="_U"/>
  <anchor x="-31" y="495" name="_Y"/>
  <outline>
    <contour>
      <point x="-157" y="574" type="curve"/>
      <point x="-110" y="657" type="line"/>
      <point x="-130" y="657"/>
      <point x="-146" y="673"/>
      <point x="-146" y="693" type="curve" smooth="yes"/>
      <point x="-146" y="713"/>
      <point x="-130" y="729"/>
      <point x="-110" y="729" type="curve" smooth="yes"/>
      <point x="-97" y="729"/>
      <point x="-86" y="722"/>
      <point x="-80" y="713" type="curve"/>
      <point x="-4" y="765" type="line"/>
      <point x="-27" y="799"/>
      <point x="-66" y="821"/>
      <point x="-110" y="821" type="curve" smooth="yes"/>
      <point x="-181" y="821"/>
      <point x="-238" y="764"/>
      <point x="-238" y="693" type="curve" smooth="yes"/>
      <point x="-238" y="639"/>
      <point x="-205" y="593"/>
    </contour>
    <contour>
      <point x="-146" y="529" type="line"/>
      <point x="-146" y="549"/>
      <point x="-130" y="565"/>
      <point x="-110" y="565" type="curve" smooth="yes"/>
      <point x="-90" y="565"/>
      <point x="-74" y="549"/>
      <point x="-74" y="529" type="curve"/>
      <point x="13" y="565" type="line"/>
      <point x="-2" y="618"/>
      <point x="-51" y="657"/>
      <point x="-110" y="657" type="curve" smooth="yes"/>
      <point x="-169" y="657"/>
      <point x="-218" y="618"/>
      <point x="-233" y="565" type="curve"/>
    </contour>
  </outline>
</glyph>
<glyph name="uA9EB" format="2">
  <advance width="965"/>
  <unicode hex="A9EB"/>
  <anchor x="498" y="-53" name="BD"/>
  <anchor x="672" y="-53" name="BS"/>
  <anchor x="672" y="-53" name="L"/>
  <anchor x="672" y="495" name="U"/>
  <anchor x="0" y="0" name="_R"/>
  <outline>
    <contour>
      <point x="298" y="-23" type="curve" smooth="yes"/>
      <point x="320" y="-23"/>
      <point x="350" y="-21"/>
      <point x="369" y="-11" type="curve"/>
      <point x="325" y="94" type="line"/>
      <point x="316" y="92"/>
      <point x="309" y="91"/>
      <point x="298" y="91" type="curve" smooth="yes"/>
      <point x="228" y="91"/>
      <point x="169" y="151"/>
      <point x="169" y="222" type="curve" smooth="yes"/>
      <point x="169" y="292"/>
      <point x="228" y="352"/>
      <point x="298" y="352" type="curve" smooth="yes"/>
      <point x="363" y="352"/>
      <point x="422" y="280"/>
      <point x="432" y="222" type="curve"/>
      <point x="432" y="87"/>
      <point x="538" y="-23"/>
      <point x="669" y="-23" type="curve" smooth="yes"/>
      <point x="804" y="-23"/>
      <point x="910" y="87"/>
      <point x="910" y="222" type="curve" smooth="yes"/>
      <point x="910" y="355"/>
      <point x="804" y="466"/>
      <point x="672" y="466" type="curve" smooth="yes"/>
      <point x="595" y="466"/>
      <point x="526" y="429"/>
      <point x="483" y="372" type="curve"/>
      <point x="444" y="423"/>
      <point x="381" y="466"/>
      <point x="298" y="466" type="curve" smooth="yes"/>
      <point x="165" y="466"/>
      <point x="55" y="355"/>
      <point x="55" y="222" type="curve" smooth="yes"/>
      <point x="55" y="87"/>
      <point x="165" y="-23"/>
    </contour>
    <contour>
      <point x="672" y="91" type="curve" smooth="yes"/>
      <point x="601" y="91"/>
      <point x="544" y="151"/>
      <point x="544" y="222" type="curve" smooth="yes"/>
      <point x="544" y="292"/>
      <point x="601" y="352"/>
      <point x="669" y="352" type="curve" smooth="yes"/>
      <point x="741" y="352"/>
      <point x="798" y="292"/>
      <point x="798" y="222" type="curve" smooth="yes"/>
      <point x="798" y="151"/>
      <point x="741" y="91"/>
    </contour>
    <contour>
      <point x="669" y="160" type="curve" smooth="yes"/>
      <point x="704" y="160"/>
      <point x="732" y="187"/>
      <point x="732" y="222" type="curve" smooth="yes"/>
      <point x="732" y="258"/>
      <point x="704" y="286"/>
      <point x="669" y="286" type="curve" smooth="yes"/>
      <point x="636" y="286"/>
      <point x="608" y="258"/>
      <point x="608" y="222" type="curve" smooth="yes"/>
      <point x="608" y="187"/>
      <point x="636" y="160"/>
    </contour>
  </outline>
</glyph>
<glyph name="uA9EC" format="2">
  <advance width="1016"/>
  <unicode hex="A9EC"/>
  <anchor x="508" y="-54" name="BD"/>
  <anchor x="736" y="-54" name="BS"/>
  <anchor x="736" y="-54" name="L"/>
  <anchor x="736" y="510" name="U"/>
  <anchor x="-2" y="0" name="_R"/>
  <outline>
    <contour>
      <point x="279" y="-23" type="curve" smooth="yes"/>
      <point x="498" y="-23"/>
      <point x="415" y="196"/>
      <point x="508" y="196" type="curve" smooth="yes"/>
      <point x="601" y="196"/>
      <point x="519" y="-23"/>
      <point x="736" y="-23" type="curve" smooth="yes"/>
      <point x="867" y="-23"/>
      <point x="961" y="88"/>
      <point x="961" y="220" type="curve" smooth="yes"/>
      <point x="961" y="355"/>
      <point x="883" y="465"/>
      <point x="753" y="465" type="curve" smooth="yes"/>
      <point x="733" y="465"/>
      <point x="711" y="460"/>
      <point x="696" y="450" type="curve"/>
      <point x="717" y="342" type="line"/>
      <point x="726" y="348"/>
      <point x="739" y="351"/>
      <point x="753" y="351" type="curve" smooth="yes"/>
      <point x="826" y="351"/>
      <point x="847" y="265"/>
      <point x="847" y="220" type="curve" smooth="yes"/>
      <point x="847" y="145"/>
      <point x="808" y="91"/>
      <point x="736" y="91" type="curve" smooth="yes"/>
      <point x="633" y="91"/>
      <point x="702" y="310"/>
      <point x="508" y="310" type="curve" smooth="yes"/>
      <point x="315" y="310"/>
      <point x="384" y="91"/>
      <point x="279" y="91" type="curve" smooth="yes"/>
      <point x="207" y="91"/>
      <point x="169" y="145"/>
      <point x="169" y="220" type="curve" smooth="yes"/>
      <point x="169" y="265"/>
      <point x="190" y="351"/>
      <point x="264" y="351" type="curve" smooth="yes"/>
      <point x="276" y="351"/>
      <point x="291" y="348"/>
      <point x="300" y="342" type="curve"/>
      <point x="321" y="450" type="line"/>
      <point x="306" y="460"/>
      <point x="283" y="465"/>
      <point x="264" y="465" type="curve" smooth="yes"/>
      <point x="133" y="465"/>
      <point x="55" y="355"/>
      <point x="55" y="220" type="curve" smooth="yes"/>
      <point x="55" y="88"/>
      <point x="147" y="-23"/>
    </contour>
    <contour>
      <point x="748" y="161" type="curve" smooth="yes"/>
      <point x="782" y="161"/>
      <point x="809" y="187"/>
      <point x="809" y="221" type="curve" smooth="yes"/>
      <point x="809" y="256"/>
      <point x="782" y="283"/>
      <point x="748" y="283" type="curve" smooth="yes"/>
      <point x="716" y="283"/>
      <point x="689" y="256"/>
      <point x="689" y="221" type="curve" smooth="yes"/>
      <point x="689" y="187"/>
      <point x="716" y="161"/>
    </contour>
  </outline>
</glyph>
<glyph name="uA9F1" format="2">
  <advance width="637"/>
  <unicode hex="A9F1"/>
  <outline>
    <contour>
      <point x="366" y="-23" type="line"/>
      <point x="561" y="-23" type="line"/>
      <point x="561" y="87" type="line"/>
      <point x="479" y="87" type="line"/>
      <point x="479" y="132" type="line" smooth="yes"/>
      <point x="479" y="194"/>
      <point x="539" y="221"/>
      <point x="539" y="289" type="curve" smooth="yes"/>
      <point x="539" y="369"/>
      <point x="466" y="468"/>
      <point x="322" y="468" type="curve" smooth="yes"/>
      <point x="178" y="468"/>
      <point x="98" y="369"/>
      <point x="98" y="294" type="curve" smooth="yes"/>
      <point x="98" y="211"/>
      <point x="151" y="172"/>
      <point x="212" y="172" type="curve" smooth="yes"/>
      <point x="271" y="172"/>
      <point x="316" y="219"/>
      <point x="316" y="276" type="curve" smooth="yes"/>
      <point x="316" y="304"/>
      <point x="301" y="341"/>
      <point x="256" y="351" type="curve" smooth="yes"/>
      <point x="244" y="354"/>
      <point x="235" y="333"/>
      <point x="235" y="323" type="curve"/>
      <point x="240" y="321"/>
      <point x="246" y="320"/>
      <point x="251" y="318" type="curve"/>
      <point x="266" y="341"/>
      <point x="304" y="357"/>
      <point x="322" y="357" type="curve" smooth="yes"/>
      <point x="394" y="357"/>
      <point x="426" y="320"/>
      <point x="426" y="289" type="curve" smooth="yes"/>
      <point x="426" y="221"/>
      <point x="366" y="193"/>
      <point x="366" y="131" type="curve" smooth="yes"/>
    </contour>
    <contour>
      <point x="212" y="245" type="curve" smooth="yes"/>
      <point x="195" y="245"/>
      <point x="181" y="259"/>
      <point x="181" y="276" type="curve" smooth="yes"/>
      <point x="181" y="293"/>
      <point x="195" y="307"/>
      <point x="212" y="307" type="curve" smooth="yes"/>
      <point x="229" y="307"/>
      <point x="243" y="293"/>
      <point x="243" y="276" type="curve" smooth="yes"/>
      <point x="243" y="259"/>
      <point x="229" y="245"/>
    </contour>
    <contour>
      <point x="166" y="529" type="curve" smooth="yes"/>
      <point x="149" y="529"/>
      <point x="135" y="543"/>
      <point x="135" y="560" type="curve" smooth="yes"/>
      <point x="135" y="577"/>
      <point x="149" y="591"/>
      <point x="166" y="591" type="curve" smooth="yes"/>
      <point x="183" y="591"/>
      <point x="197" y="577"/>
      <point x="197" y="560" type="curve" smooth="yes"/>
      <point x="197" y="543"/>
      <point x="183" y="529"/>
    </contour>
    <contour>
      <point x="487" y="447" type="curve"/>
      <point x="548" y="471"/>
      <point x="582" y="519"/>
      <point x="582" y="579" type="curve" smooth="yes"/>
      <point x="582" y="691"/>
      <point x="467" y="762"/>
      <point x="320" y="762" type="curve" smooth="yes"/>
      <point x="173" y="762"/>
      <point x="55" y="688"/>
      <point x="55" y="576" type="curve" smooth="yes"/>
      <point x="55" y="503"/>
      <point x="99" y="458"/>
      <point x="166" y="458" type="curve" smooth="yes"/>
      <point x="223" y="458"/>
      <point x="269" y="504"/>
      <point x="269" y="560" type="curve" smooth="yes"/>
      <point x="269" y="594"/>
      <point x="254" y="619"/>
      <point x="233" y="637" type="curve"/>
      <point x="259" y="647"/>
      <point x="291" y="651"/>
      <point x="320" y="651" type="curve" smooth="yes"/>
      <point x="408" y="651"/>
      <point x="471" y="608"/>
      <point x="471" y="579" type="curve" smooth="yes"/>
      <point x="471" y="563"/>
      <point x="462" y="550"/>
      <point x="430" y="539" type="curve"/>
      <point x="449" y="508"/>
      <point x="468" y="478"/>
    </contour>
  </outline>
</glyph>
<glyph name="uA9F5" format="2">
  <advance width="601"/>
  <unicode hex="A9F5"/>
  <outline>
    <contour>
      <point x="145" y="-18" type="curve"/>
      <point x="211" y="75" type="line"/>
      <point x="180" y="117"/>
      <point x="169" y="133"/>
      <point x="169" y="207" type="curve" smooth="yes"/>
      <point x="169" y="267"/>
      <point x="216" y="342"/>
      <point x="300" y="342" type="curve" smooth="yes"/>
      <point x="384" y="342"/>
      <point x="430" y="267"/>
      <point x="430" y="207" type="curve" smooth="yes"/>
      <point x="430" y="133"/>
      <point x="420" y="117"/>
      <point x="388" y="75" type="curve"/>
      <point x="454" y="-18" type="line"/>
      <point x="526" y="44"/>
      <point x="546" y="112"/>
      <point x="546" y="207" type="curve" smooth="yes"/>
      <point x="546" y="354"/>
      <point x="419" y="456"/>
      <point x="300" y="456" type="curve" smooth="yes"/>
      <point x="251" y="456"/>
      <point x="206" y="441"/>
      <point x="168" y="416" type="curve"/>
      <point x="168" y="515" type="line" smooth="yes"/>
      <point x="168" y="590"/>
      <point x="229" y="646"/>
      <point x="300" y="646" type="curve" smooth="yes"/>
      <point x="357" y="646"/>
      <point x="404" y="614"/>
      <point x="423" y="567" type="curve"/>
      <point x="526" y="616" type="line"/>
      <point x="492" y="695"/>
      <point x="413" y="759"/>
      <point x="300" y="759" type="curve" smooth="yes"/>
      <point x="147" y="759"/>
      <point x="55" y="632"/>
      <point x="55" y="515" type="curve" smooth="yes"/>
      <point x="55" y="207" type="line" smooth="yes"/>
      <point x="55" y="112"/>
      <point x="73" y="44"/>
    </contour>
  </outline>
</glyph>
<glyph name="uA9F7" format="2">
  <advance width="589"/>
  <unicode hex="A9F7"/>
  <outline>
    <contour>
      <point x="421" y="-23" type="line"/>
      <point x="616" y="-23" type="line"/>
      <point x="616" y="87" type="line"/>
      <point x="534" y="87" type="line"/>
      <point x="534" y="504" type="line" smooth="yes"/>
      <point x="534" y="658"/>
      <point x="444" y="760"/>
      <point x="300" y="760" type="curve" smooth="yes"/>
      <point x="156" y="760"/>
      <point x="55" y="640"/>
      <point x="55" y="501" type="curve" smooth="yes"/>
      <point x="55" y="368"/>
      <point x="112" y="276"/>
      <point x="214" y="276" type="curve" smooth="yes"/>
      <point x="289" y="276"/>
      <point x="346" y="336"/>
      <point x="346" y="408" type="curve" smooth="yes"/>
      <point x="346" y="486"/>
      <point x="277" y="540"/>
      <point x="214" y="540" type="curve" smooth="yes"/>
      <point x="190" y="540"/>
      <point x="165" y="537"/>
      <point x="151" y="520" type="curve"/>
      <point x="187" y="502" type="line"/>
      <point x="184" y="506"/>
      <point x="175" y="535"/>
      <point x="175" y="546" type="curve" smooth="yes"/>
      <point x="175" y="583"/>
      <point x="223" y="646"/>
      <point x="300" y="646" type="curve" smooth="yes"/>
      <point x="372" y="646"/>
      <point x="421" y="595"/>
      <point x="421" y="504" type="curve" smooth="yes"/>
    </contour>
    <contour>
      <point x="214" y="363" type="curve" smooth="yes"/>
      <point x="187" y="363"/>
      <point x="169" y="381"/>
      <point x="169" y="408" type="curve" smooth="yes"/>
      <point x="169" y="432"/>
      <point x="190" y="454"/>
      <point x="214" y="454" type="curve" smooth="yes"/>
      <point x="241" y="454"/>
      <point x="259" y="432"/>
      <point x="259" y="408" type="curve" smooth="yes"/>
      <point x="259" y="381"/>
      <point x="237" y="363"/>
    </contour>
  </outline>
</glyph>
<glyph name="uA9FD" format="2">
  <advance width="599"/>
  <unicode hex="A9FD"/>
  <anchor x="292" y="-53" name="BD"/>
  <anchor x="300" y="-53" name="BS"/>
  <anchor x="300" y="-53" name="L"/>
  <anchor x="300" y="495" name="U"/>
  <anchor x="0" y="0" name="_R"/>
  <outline>
    <contour>
      <point x="300" y="-23" type="curve" smooth="yes"/>
      <point x="439" y="-23"/>
      <point x="544" y="98"/>
      <point x="544" y="237" type="curve" smooth="yes"/>
      <point x="544" y="332"/>
      <point x="526" y="402"/>
      <point x="454" y="466" type="curve"/>
      <point x="388" y="373" type="line"/>
      <point x="420" y="330"/>
      <point x="430" y="310"/>
      <point x="430" y="237" type="curve" smooth="yes"/>
      <point x="430" y="166"/>
      <point x="384" y="91"/>
      <point x="300" y="91" type="curve" smooth="yes"/>
      <point x="216" y="91"/>
      <point x="169" y="166"/>
      <point x="169" y="237" type="curve" smooth="yes"/>
      <point x="169" y="310"/>
      <point x="179" y="330"/>
      <point x="211" y="373" type="curve"/>
      <point x="145" y="466" type="line"/>
      <point x="73" y="402"/>
      <point x="55" y="332"/>
      <point x="55" y="237" type="curve" smooth="yes"/>
      <point x="55" y="98"/>
      <point x="160" y="-23"/>
    </contour>
    <contour>
      <point x="299" y="171" type="curve" smooth="yes"/>
      <point x="334" y="171"/>
      <point x="362" y="198"/>
      <point x="362" y="233" type="curve" smooth="yes"/>
      <point x="362" y="269"/>
      <point x="334" y="297"/>
      <point x="299" y="297" type="curve" smooth="yes"/>
      <point x="266" y="297"/>
      <point x="238" y="269"/>
      <point x="238" y="233" type="curve" smooth="yes"/>
      <point x="238" y="198"/>
      <point x="266" y="171"/>
    </contour>
  </outline>
</glyph>
<glyph name="uAA61" format="2">
  <advance width="970"/>
  <unicode hex="AA61"/>
  <anchor x="487" y="-53" name="BD"/>
  <anchor x="676" y="-53" name="BS"/>
  <anchor x="676" y="-53" name="L"/>
  <anchor x="676" y="495" name="U"/>
  <anchor x="0" y="0" name="_R"/>
  <outline>
    <contour>
      <point x="442" y="-2" type="line"/>
      <point x="508" y="68"/>
      <point x="538" y="149"/>
      <point x="538" y="225" type="curve" smooth="yes"/>
      <point x="538" y="361"/>
      <point x="442" y="479"/>
      <point x="285" y="479" type="curve" smooth="yes"/>
      <point x="133" y="479"/>
      <point x="39" y="375"/>
      <point x="39" y="235" type="curve" smooth="yes"/>
      <point x="39" y="204"/>
      <point x="44" y="170"/>
      <point x="54" y="136" type="curve"/>
      <point x="81" y="149"/>
      <point x="103" y="154"/>
      <point x="120" y="154" type="curve" smooth="yes"/>
      <point x="146" y="154"/>
      <point x="159" y="142"/>
      <point x="159" y="130" type="curve" smooth="yes"/>
      <point x="159" y="119"/>
      <point x="148" y="109"/>
      <point x="125" y="109" type="curve" smooth="yes"/>
      <point x="119" y="109"/>
      <point x="111" y="111"/>
      <point x="104" y="112" type="curve"/>
      <point x="104" y="1" type="line"/>
      <point x="109" y="-1"/>
      <point x="135" y="-2"/>
      <point x="141" y="-2" type="curve" smooth="yes"/>
      <point x="230" y="-2"/>
      <point x="273" y="63"/>
      <point x="273" y="127" type="curve" smooth="yes"/>
      <point x="273" y="187"/>
      <point x="237" y="251"/>
      <point x="168" y="251" type="curve" smooth="yes"/>
      <point x="163" y="251"/>
      <point x="161" y="251"/>
      <point x="152" y="250" type="curve"/>
      <point x="151" y="255"/>
      <point x="151" y="258"/>
      <point x="151" y="260" type="curve" smooth="yes"/>
      <point x="151" y="327"/>
      <point x="214" y="366"/>
      <point x="280" y="366" type="curve" smooth="yes"/>
      <point x="350" y="366"/>
      <point x="422" y="322"/>
      <point x="422" y="221" type="curve" smooth="yes"/>
      <point x="422" y="177"/>
      <point x="407" y="130"/>
      <point x="376" y="92" type="curve"/>
    </contour>
    <contour>
      <point x="666" y="-23" type="curve" smooth="yes"/>
      <point x="798" y="-23"/>
      <point x="904" y="87"/>
      <point x="904" y="222" type="curve" smooth="yes"/>
      <point x="904" y="355"/>
      <point x="798" y="466"/>
      <point x="663" y="466" type="curve" smooth="yes"/>
      <point x="531" y="466"/>
      <point x="424" y="355"/>
      <point x="424" y="222" type="curve" smooth="yes"/>
      <point x="424" y="87"/>
      <point x="546" y="-23"/>
    </contour>
    <contour>
      <point x="663" y="91" type="curve" smooth="yes"/>
      <point x="595" y="91"/>
      <point x="538" y="151"/>
      <point x="538" y="222" type="curve" smooth="yes"/>
      <point x="538" y="292"/>
      <point x="594" y="352"/>
      <point x="666" y="352" type="curve" smooth="yes"/>
      <point x="733" y="352"/>
      <point x="790" y="292"/>
      <point x="790" y="222" type="curve" smooth="yes"/>
      <point x="790" y="151"/>
      <point x="735" y="91"/>
    </contour>
  </outline>
</glyph>
<glyph name="uAA6B" format="2">
  <advance width="706"/>
  <unicode hex="AA6B"/>
  <anchor x="421" y="-53" name="BD"/>
  <anchor x="404" y="-53" name="BS"/>
  <anchor x="404" y="-53" name="L"/>
  <anchor x="404" y="495" name="U"/>
  <anchor x="0" y="0" name="_R"/>
  <outline>
    <contour>
      <point x="314" y="-26" type="curve"/>
      <point x="377" y="-7"/>
      <point x="411" y="52"/>
      <point x="411" y="127" type="curve" smooth="yes"/>
      <point x="411" y="194"/>
      <point x="358" y="267"/>
      <point x="293" y="291" type="curve"/>
      <point x="320" y="336"/>
      <point x="373" y="352"/>
      <point x="404" y="352" type="curve" smooth="yes"/>
      <point x="488" y="352"/>
      <point x="535" y="276"/>
      <point x="535" y="207" type="curve" smooth="yes"/>
      <point x="535" y="132"/>
      <point x="525" y="113"/>
      <point x="493" y="70" type="curve"/>
      <point x="559" y="-23" type="line"/>
      <point x="631" y="40"/>
      <point x="650" y="111"/>
      <point x="650" y="207" type="curve" smooth="yes"/>
      <point x="650" y="346"/>
      <point x="543" y="466"/>
      <point x="404" y="466" type="curve" smooth="yes"/>
      <point x="341" y="466"/>
      <point x="242" y="437"/>
      <point x="191" y="332" type="curve"/>
      <point x="164" y="351"/>
      <point x="149" y="373"/>
      <point x="149" y="409" type="curve" smooth="yes"/>
      <point x="149" y="418"/>
      <point x="151" y="435"/>
      <point x="153" y="444" type="curve"/>
      <point x="60" y="444" type="line"/>
      <point x="58" y="433"/>
      <point x="56" y="420"/>
      <point x="56" y="405" type="curve" smooth="yes"/>
      <point x="56" y="352"/>
      <point x="78" y="284"/>
      <point x="163" y="244" type="curve"/>
      <point x="161" y="234"/>
      <point x="160" y="222"/>
      <point x="160" y="207" type="curve" smooth="yes"/>
      <point x="160" y="119"/>
      <point x="194" y="14"/>
    </contour>
    <contour>
      <point x="306" y="80" type="curve"/>
      <point x="274" y="103"/>
      <point x="260" y="146"/>
      <point x="260" y="187" type="curve" smooth="yes"/>
      <point x="260" y="194"/>
      <point x="261" y="201"/>
      <point x="262" y="207" type="curve"/>
      <point x="288" y="195"/>
      <point x="320" y="168"/>
      <point x="320" y="127" type="curve" smooth="yes"/>
      <point x="320" y="103"/>
      <point x="315" y="90"/>
    </contour>
  </outline>
</glyph>
<glyph name="uAA73" format="2">
  <advance width="660"/>
  <unicode hex="AA73"/>
  <anchor x="303" y="-53" name="BD"/>
  <anchor x="337" y="-53" name="BS"/>
  <anchor x="337" y="-53" name="L"/>
  <anchor x="337" y="495" name="U"/>
  <anchor x="0" y="0" name="_R"/>
  <outline>
    <contour>
      <point x="426" y="-23" type="curve" smooth="yes"/>
      <point x="538" y="-23"/>
      <point x="604" y="88"/>
      <point x="604" y="220" type="curve" smooth="yes"/>
      <point x="604" y="355"/>
      <point x="525" y="465"/>
      <point x="390" y="465" type="curve" smooth="yes"/>
      <point x="367" y="465"/>
      <point x="331" y="457"/>
      <point x="310" y="441" type="curve"/>
      <point x="355" y="339" type="line"/>
      <point x="364" y="348"/>
      <point x="381" y="351"/>
      <point x="390" y="351" type="curve" smooth="yes"/>
      <point x="433" y="351"/>
      <point x="490" y="319"/>
      <point x="490" y="220" type="curve" smooth="yes"/>
      <point x="490" y="151"/>
      <point x="462" y="91"/>
      <point x="426" y="91" type="curve" smooth="yes"/>
      <point x="388" y="91"/>
      <point x="217" y="390"/>
      <point x="154" y="453" type="curve"/>
      <point x="55" y="453" type="line"/>
      <point x="55" y="0" type="line"/>
      <point x="162" y="0" type="line"/>
      <point x="162" y="273" type="line"/>
      <point x="217" y="186"/>
      <point x="320" y="-23"/>
    </contour>
  </outline>
</glyph>
<glyph name="uAA7E" format="2">
  <advance width="802"/>
  <unicode hex="AA7E"/>
  <anchor x="84" y="-53" name="BD"/>
  <anchor x="57" y="-53" name="BS"/>
  <anchor x="39" y="-53" name="L"/>
  <anchor x="305" y="495" name="U"/>
  <anchor x="-2" y="0" name="_R"/>
  <outline>
    <contour>
      <point x="747" y="-476" type="line"/>
      <point x="747" y="444" type="line"/>
      <point x="633" y="444" type="line"/>
      <point x="633" y="-319" type="line"/>
      <point x="446" y="-252" type="line"/>
      <point x="446" y="40" type="line"/>
      <point x="332" y="-5" type="line"/>
      <point x="332" y="-361" type="line"/>
      <point x="225" y="-361" type="line"/>
      <point x="225" y="-471" type="line"/>
      <point x="446" y="-471" type="line"/>
      <point x="446" y="-369" type="line"/>
    </contour>
    <contour>
      <point x="293" y="-23" type="curve" smooth="yes"/>
      <point x="436" y="-23"/>
      <point x="538" y="94"/>
      <point x="538" y="222" type="curve" smooth="yes"/>
      <point x="538" y="351"/>
      <point x="435" y="466"/>
      <point x="293" y="466" type="curve" smooth="yes"/>
      <point x="216" y="466"/>
      <point x="133" y="427"/>
      <point x="85" y="349" type="curve"/>
      <point x="190" y="301" type="line"/>
      <point x="214" y="332"/>
      <point x="252" y="352"/>
      <point x="293" y="352" type="curve" smooth="yes"/>
      <point x="371" y="352"/>
      <point x="424" y="287"/>
      <point x="424" y="222" type="curve" smooth="yes"/>
      <point x="424" y="154"/>
      <point x="370" y="91"/>
      <point x="293" y="91" type="curve" smooth="yes"/>
      <point x="259" y="91"/>
      <point x="219" y="105"/>
      <point x="190" y="142" type="curve"/>
      <point x="209" y="149"/>
      <point x="221" y="152"/>
      <point x="241" y="152" type="curve" smooth="yes"/>
      <point x="290" y="152"/>
      <point x="334" y="123"/>
      <point x="356" y="84" type="curve"/>
      <point x="435" y="170" type="line"/>
      <point x="382" y="243"/>
      <point x="298" y="266"/>
      <point x="241" y="266" type="curve" smooth="yes"/>
      <point x="174" y="266"/>
      <point x="111" y="240"/>
      <point x="55" y="178" type="curve"/>
      <point x="79" y="50"/>
      <point x="188" y="-23"/>
    </contour>
  </outline>
</glyph>
<glyph name="sidebearingleft" format="2">
  <advance width="148"/>
  <unicode hex="F130"/>
  <outline>
    <contour>
      <point x="19" y="0" type="line"/>
      <point x="19" y="-17" type="line"/>
      <point x="131" y="-17" type="line"/>
      <point x="131" y="-129" type="line"/>
      <point x="148" y="-129" type="line"/>
      <point x="148" y="0" type="line"/>
    </contour>
  </outline>
</glyph>
<glyph name="uFFFD" format="2">
  <advance width="862"/>
  <unicode hex="FFFD"/>
  <outline>
    <contour>
      <point x="598" y="469" type="curve"/>
      <point x="598" y="402"/>
      <point x="556" y="354"/>
      <point x="530" y="324" type="curve" smooth="yes"/>
      <point x="468" y="254"/>
      <point x="438" y="221"/>
      <point x="435" y="140" type="curve"/>
      <point x="416" y="140" type="line"/>
      <point x="420" y="209"/>
      <point x="437" y="267"/>
      <point x="476" y="331" type="curve" smooth="yes"/>
      <point x="493" y="362"/>
      <point x="517" y="416"/>
      <point x="517" y="462" type="curve" smooth="yes"/>
      <point x="517" y="550"/>
      <point x="461" y="582"/>
      <point x="415" y="582" type="curve" smooth="yes"/>
      <point x="359" y="582"/>
      <point x="332" y="551"/>
      <point x="332" y="525" type="curve" smooth="yes"/>
      <point x="332" y="500"/>
      <point x="360" y="469"/>
      <point x="360" y="450" type="curve" smooth="yes"/>
      <point x="360" y="425"/>
      <point x="340" y="412"/>
      <point x="325" y="412" type="curve" smooth="yes"/>
      <point x="312" y="412"/>
      <point x="276" y="424"/>
      <point x="276" y="481" type="curve" smooth="yes"/>
      <point x="276" y="546"/>
      <point x="332" y="607"/>
      <point x="434" y="607" type="curve" smooth="yes"/>
      <point x="529" y="607"/>
      <point x="598" y="555"/>
    </contour>
    <contour>
      <point x="477" y="37" type="curve"/>
      <point x="477" y="5"/>
      <point x="451" y="-12"/>
      <point x="429" y="-12" type="curve" smooth="yes"/>
      <point x="404" y="-12"/>
      <point x="379" y="5"/>
      <point x="379" y="37" type="curve" smooth="yes"/>
      <point x="379" y="65"/>
      <point x="403" y="86"/>
      <point x="429" y="86" type="curve" smooth="yes"/>
      <point x="453" y="86"/>
      <point x="477" y="66"/>
    </contour>
    <contour>
      <point x="857" y="329" type="line"/>
      <point x="430" y="756" type="line"/>
      <point x="4" y="329" type="line"/>
      <point x="430" y="-97" type="line"/>
    </contour>
  </outline>
</glyph>
<glyph name="two-pao" format="2">
  <advance width="600"/>
  <unicode hex="116D2"/>
  <outline>
    <contour>
      <point x="244" y="0" type="line"/>
      <point x="357" y="0" type="line"/>
      <point x="357" y="749" type="line"/>
      <point x="244" y="749" type="line"/>
    </contour>
  </outline>
</glyph>
<glyph name="seven-pao" format="2">
  <advance width="591"/>
  <unicode hex="116D7"/>
  <outline>
    <contour>
      <point x="384" y="0" type="line"/>
      <point x="497" y="0" type="line"/>
      <point x="497" y="756" type="line"/>
      <point x="107" y="756" type="line"/>
      <point x="107" y="643" type="line"/>
      <point x="384" y="643" type="line"/>
    </contour>
  </outline>
</glyph>
<glyph name="nine-pao" format="2">
  <advance width="600"/>
  <unicode hex="116D9"/>
  <outline>
    <component base="u1041" xOffset="14"/>
    <contour>
      <point x="58" y="283" type="line"/>
      <point x="171" y="283" type="line"/>
      <point x="171" y="756" type="line"/>
      <point x="58" y="756" type="line"/>
    </contour>
  </outline>
</glyph>
<glyph name="two-pwo" format="2">
  <advance width="600"/>
  <unicode hex="116DC"/>
  <outline>
    <contour>
      <point x="282" y="237" type="curve"/>
      <point x="282" y="336" type="line"/>
      <point x="253" y="336"/>
      <point x="237" y="346"/>
      <point x="237" y="355" type="curve" smooth="yes"/>
      <point x="237" y="366"/>
      <point x="254" y="373"/>
      <point x="275" y="373" type="curve" smooth="yes"/>
      <point x="303" y="373"/>
      <point x="338" y="358"/>
      <point x="338" y="314" type="curve" smooth="yes"/>
      <point x="338" y="246"/>
      <point x="338" y="195"/>
      <point x="338" y="150" type="curve" smooth="yes"/>
      <point x="338" y="102"/>
      <point x="300" y="84"/>
      <point x="276" y="84" type="curve" smooth="yes"/>
      <point x="252" y="84"/>
      <point x="239" y="93"/>
      <point x="239" y="101" type="curve" smooth="yes"/>
      <point x="239" y="114"/>
      <point x="252" y="120"/>
      <point x="281" y="120" type="curve" smooth="yes"/>
      <point x="348" y="120"/>
      <point x="437" y="74"/>
      <point x="500" y="-21" type="curve"/>
      <point x="588" y="47" type="line"/>
      <point x="532" y="133"/>
      <point x="407" y="225"/>
      <point x="301" y="225" type="curve" smooth="yes"/>
      <point x="184" y="225"/>
      <point x="126" y="173"/>
      <point x="126" y="97" type="curve" smooth="yes"/>
      <point x="126" y="37"/>
      <point x="177" y="-23"/>
      <point x="278" y="-23" type="curve" smooth="yes"/>
      <point x="359" y="-23"/>
      <point x="451" y="19"/>
      <point x="451" y="163" type="curve" smooth="yes"/>
      <point x="451" y="186"/>
      <point x="451" y="258"/>
      <point x="451" y="304" type="curve" smooth="yes"/>
      <point x="451" y="424"/>
      <point x="365" y="468"/>
      <point x="286" y="468" type="curve" smooth="yes"/>
      <point x="172" y="468"/>
      <point x="127" y="408"/>
      <point x="127" y="349" type="curve" smooth="yes"/>
      <point x="127" y="279"/>
      <point x="181" y="237"/>
    </contour>
  </outline>
</glyph>
<glyph name="six-pwo" format="2">
  <advance width="600"/>
  <unicode hex="116E0"/>
  <outline>
    <contour>
      <point x="469" y="0" type="line"/>
      <point x="469" y="113" type="line"/>
      <point x="296" y="113" type="line"/>
      <point x="363" y="36" type="line"/>
      <point x="363" y="318" type="line" smooth="yes"/>
      <point x="363" y="418"/>
      <point x="287" y="468"/>
      <point x="212" y="468" type="curve" smooth="yes"/>
      <point x="140" y="468"/>
      <point x="68" y="421"/>
      <point x="68" y="329" type="curve" smooth="yes"/>
      <point x="68" y="256"/>
      <point x="127" y="189"/>
      <point x="238" y="189" type="curve" smooth="yes"/>
      <point x="433" y="189"/>
      <point x="519" y="308"/>
      <point x="519" y="454" type="curve"/>
      <point x="404" y="454" type="line"/>
      <point x="404" y="335"/>
      <point x="339" y="296"/>
      <point x="240" y="296" type="curve" smooth="yes"/>
      <point x="198" y="296"/>
      <point x="182" y="313"/>
      <point x="182" y="329" type="curve" smooth="yes"/>
      <point x="182" y="343"/>
      <point x="195" y="357"/>
      <point x="213" y="357" type="curve" smooth="yes"/>
      <point x="231" y="357"/>
      <point x="250" y="343"/>
      <point x="250" y="309" type="curve" smooth="yes"/>
      <point x="250" y="0" type="line"/>
    </contour>
  </outline>
</glyph>
<glyph name="nine-pwo" format="2">
  <advance width="600"/>
  <unicode hex="116E3"/>
  <outline>
    <contour>
      <point x="177" y="35" type="line"/>
      <point x="177" y="459" type="line"/>
      <point x="64" y="459" type="line"/>
      <point x="64" y="0" type="line"/>
      <point x="164" y="0" type="line"/>
      <point x="411" y="67"/>
      <point x="465" y="155"/>
      <point x="465" y="218" type="curve" smooth="yes"/>
      <point x="465" y="302"/>
      <point x="400" y="342"/>
      <point x="335" y="342" type="curve" smooth="yes"/>
      <point x="268" y="342"/>
      <point x="201" y="300"/>
      <point x="201" y="219" type="curve" smooth="yes"/>
      <point x="201" y="96"/>
      <point x="334" y="37"/>
      <point x="483" y="-8" type="curve"/>
      <point x="537" y="84" type="line"/>
      <point x="425" y="116"/>
      <point x="311" y="154"/>
      <point x="311" y="217" type="curve" smooth="yes"/>
      <point x="311" y="233"/>
      <point x="324" y="241"/>
      <point x="336" y="241" type="curve" smooth="yes"/>
      <point x="348" y="241"/>
      <point x="357" y="235"/>
      <point x="357" y="217" type="curve" smooth="yes"/>
      <point x="357" y="179"/>
      <point x="224" y="130"/>
      <point x="161" y="108" type="curve"/>
    </contour>
  </outline>
</glyph>
<glyph name="u1000_u103B_u1015_u103A" format="2">
  <advance width="1776"/>
  <anchor x="0" y="0" name="_R"/>
  <outline>
    <contour>
      <point x="1132" y="-471" type="line"/>
      <point x="1132" y="444" type="line"/>
      <point x="1020" y="444" type="line"/>
      <point x="1020" y="-324" type="line"/>
      <point x="853" y="-282" type="line"/>
      <point x="853" y="68" type="line"/>
      <point x="741" y="1" type="line"/>
      <point x="741" y="-372" type="line"/>
    </contour>
    <contour>
      <point x="157" y="-16" type="curve"/>
      <point x="220" y="77" type="line"/>
      <point x="178" y="114"/>
      <point x="160" y="162"/>
      <point x="160" y="207" type="curve" smooth="yes"/>
      <point x="160" y="283"/>
      <point x="213" y="352"/>
      <point x="300" y="352" type="curve" smooth="yes"/>
      <point x="387" y="352"/>
      <point x="440" y="283"/>
      <point x="440" y="207" type="curve" smooth="yes"/>
      <point x="440" y="162"/>
      <point x="422" y="114"/>
      <point x="380" y="77" type="curve"/>
      <point x="443" y="-16" type="line"/>
      <point x="520" y="40"/>
      <point x="555" y="124"/>
      <point x="555" y="206" type="curve" smooth="yes"/>
      <point x="555" y="338"/>
      <point x="464" y="466"/>
      <point x="300" y="466" type="curve" smooth="yes"/>
      <point x="136" y="466"/>
      <point x="45" y="338"/>
      <point x="45" y="206" type="curve" smooth="yes"/>
      <point x="45" y="124"/>
      <point x="80" y="40"/>
    </contour>
    <contour>
      <point x="686" y="-23" type="curve" smooth="yes"/>
      <point x="822" y="-23"/>
      <point x="932" y="87"/>
      <point x="932" y="222" type="curve" smooth="yes"/>
      <point x="932" y="358"/>
      <point x="822" y="468"/>
      <point x="686" y="468" type="curve" smooth="yes"/>
      <point x="597" y="468"/>
      <point x="518" y="420"/>
      <point x="476" y="348" type="curve"/>
      <point x="555" y="222" type="line"/>
      <point x="555" y="295"/>
      <point x="614" y="354"/>
      <point x="686" y="354" type="curve" smooth="yes"/>
      <point x="759" y="354"/>
      <point x="818" y="295"/>
      <point x="818" y="222" type="curve" smooth="yes"/>
      <point x="818" y="150"/>
      <point x="759" y="91"/>
      <point x="686" y="91" type="curve" smooth="yes"/>
      <point x="674" y="91"/>
      <point x="663" y="93"/>
      <point x="653" y="95" type="curve"/>
      <point x="609" y="-10" type="line"/>
      <point x="633" y="-19"/>
      <point x="659" y="-23"/>
    </contour>
    <contour>
      <point x="1476" y="-23" type="curve" smooth="yes"/>
      <point x="1640" y="-23"/>
      <point x="1731" y="105"/>
      <point x="1731" y="237" type="curve" smooth="yes"/>
      <point x="1731" y="319"/>
      <point x="1696" y="403"/>
      <point x="1619" y="459" type="curve"/>
      <point x="1556" y="366" type="line"/>
      <point x="1598" y="329"/>
      <point x="1616" y="281"/>
      <point x="1616" y="236" type="curve" smooth="yes"/>
      <point x="1616" y="160"/>
      <point x="1563" y="91"/>
      <point x="1476" y="91" type="curve" smooth="yes"/>
      <point x="1389" y="91"/>
      <point x="1336" y="160"/>
      <point x="1336" y="236" type="curve" smooth="yes"/>
      <point x="1336" y="281"/>
      <point x="1354" y="329"/>
      <point x="1396" y="366" type="curve"/>
      <point x="1333" y="459" type="line"/>
      <point x="1256" y="403"/>
      <point x="1221" y="319"/>
      <point x="1221" y="237" type="curve" smooth="yes"/>
      <point x="1221" y="105"/>
      <point x="1312" y="-23"/>
    </contour>
    <contour>
      <point x="1535" y="541" type="curve"/>
      <point x="1535" y="653" type="line"/>
      <point x="1485" y="653"/>
      <point x="1457" y="693"/>
      <point x="1457" y="732" type="curve" smooth="yes"/>
      <point x="1457" y="772"/>
      <point x="1486" y="810"/>
      <point x="1535" y="810" type="curve" smooth="yes"/>
      <point x="1567" y="810"/>
      <point x="1596" y="791"/>
      <point x="1608" y="763" type="curve"/>
      <point x="1707" y="814" type="line"/>
      <point x="1665" y="898"/>
      <point x="1583" y="922"/>
      <point x="1539" y="922" type="curve" smooth="yes"/>
      <point x="1441" y="922"/>
      <point x="1345" y="849"/>
      <point x="1345" y="732" type="curve" smooth="yes"/>
      <point x="1345" y="623"/>
      <point x="1438" y="541"/>
    </contour>
  </outline>
</glyph>
<glyph name="u1001.sml" format="2">
  <anchor x="565" y="-53" name="BSM"/>
  <anchor x="-596" y="-53" name="LLM"/>
  <anchor x="106" y="-53" name="LM"/>
  <anchor x="-238" y="-383" name="SJ"/>
  <anchor x="-243" y="-100" name="_BS"/>
  <anchor x="-243" y="-53" name="_BSM"/>
  <anchor x="-239" y="-72" name="_SJ"/>
  <outline>
    <contour>
      <point x="-240" y="-359" type="curve" smooth="yes"/>
      <point x="-168" y="-359"/>
      <point x="-108" y="-300"/>
      <point x="-108" y="-227" type="curve" smooth="yes"/>
      <point x="-108" y="-154"/>
      <point x="-167" y="-97"/>
      <point x="-238" y="-97" type="curve" smooth="yes"/>
      <point x="-292" y="-97"/>
      <point x="-338" y="-129"/>
      <point x="-358" y="-174" type="curve"/>
      <point x="-292" y="-211" type="line"/>
      <point x="-284" y="-183"/>
      <point x="-256" y="-172"/>
      <point x="-239" y="-172" type="curve" smooth="yes"/>
      <point x="-208" y="-172"/>
      <point x="-183" y="-199"/>
      <point x="-183" y="-227" type="curve" smooth="yes"/>
      <point x="-183" y="-259"/>
      <point x="-209" y="-284"/>
      <point x="-240" y="-284" type="curve" smooth="yes"/>
      <point x="-250" y="-284"/>
      <point x="-261" y="-282"/>
      <point x="-275" y="-272" type="curve"/>
      <point x="-271" y="-271"/>
      <point x="-265" y="-271"/>
      <point x="-260" y="-271" type="curve" smooth="yes"/>
      <point x="-245" y="-271"/>
      <point x="-208" y="-281"/>
      <point x="-183" y="-324" type="curve"/>
      <point x="-145" y="-279" type="line"/>
      <point x="-171" y="-239"/>
      <point x="-218" y="-214"/>
      <point x="-270" y="-214" type="curve" smooth="yes"/>
      <point x="-303" y="-214"/>
      <point x="-340" y="-224"/>
      <point x="-369" y="-247" type="curve"/>
      <point x="-355" y="-315"/>
      <point x="-301" y="-359"/>
    </contour>
  </outline>
</glyph>
<glyph name="u1003.sml" format="2">
  <anchor x="393" y="-53" name="BDM"/>
  <anchor x="103" y="-53" name="BSM"/>
  <anchor x="-869" y="-53" name="LLM"/>
  <anchor x="103" y="-53" name="LM"/>
  <anchor x="-390" y="-384" name="SJ"/>
  <anchor x="-387" y="-100" name="_BD"/>
  <anchor x="-396" y="-53" name="_BDM"/>
  <anchor x="103" y="-100" name="_BS"/>
  <anchor x="103" y="-53" name="_BSM"/>
  <anchor x="-390" y="-72" name="_SJ"/>
  <outline>
    <contour>
      <point x="-294" y="-359" type="curve" smooth="yes"/>
      <point x="-231" y="-359"/>
      <point x="-163" y="-312"/>
      <point x="-163" y="-228" type="curve" smooth="yes"/>
      <point x="-163" y="-155"/>
      <point x="-224" y="-97"/>
      <point x="-294" y="-97" type="curve" smooth="yes"/>
      <point x="-307" y="-97"/>
      <point x="-321" y="-99"/>
      <point x="-336" y="-104" type="curve"/>
      <point x="-307" y="-179" type="line"/>
      <point x="-301" y="-178"/>
      <point x="-296" y="-177"/>
      <point x="-292" y="-177" type="curve" smooth="yes"/>
      <point x="-270" y="-177"/>
      <point x="-243" y="-197"/>
      <point x="-243" y="-228" type="curve" smooth="yes"/>
      <point x="-243" y="-260"/>
      <point x="-271" y="-279"/>
      <point x="-292" y="-279" type="curve" smooth="yes"/>
      <point x="-320" y="-279"/>
      <point x="-345" y="-259"/>
      <point x="-348" y="-229" type="curve"/>
      <point x="-410" y="-275" type="line"/>
      <point x="-388" y="-331"/>
      <point x="-341" y="-359"/>
    </contour>
    <contour>
      <point x="-487" y="-359" type="curve" smooth="yes"/>
      <point x="-418" y="-359"/>
      <point x="-348" y="-316"/>
      <point x="-348" y="-227" type="curve" smooth="yes"/>
      <point x="-348" y="-176"/>
      <point x="-369" y="-133"/>
      <point x="-401" y="-98" type="curve"/>
      <point x="-464" y="-143" type="line"/>
      <point x="-437" y="-167"/>
      <point x="-425" y="-196"/>
      <point x="-425" y="-220" type="curve" smooth="yes"/>
      <point x="-425" y="-262"/>
      <point x="-457" y="-280"/>
      <point x="-488" y="-280" type="curve" smooth="yes"/>
      <point x="-522" y="-280"/>
      <point x="-540" y="-254"/>
      <point x="-540" y="-228" type="curve" smooth="yes"/>
      <point x="-540" y="-223"/>
      <point x="-540" y="-218"/>
      <point x="-538" y="-213" type="curve"/>
      <point x="-599" y="-246" type="line"/>
      <point x="-590" y="-249"/>
      <point x="-582" y="-250"/>
      <point x="-574" y="-250" type="curve" smooth="yes"/>
      <point x="-522" y="-250"/>
      <point x="-495" y="-214"/>
      <point x="-495" y="-179" type="curve" smooth="yes"/>
      <point x="-495" y="-142"/>
      <point x="-523" y="-106"/>
      <point x="-579" y="-106" type="curve" smooth="yes"/>
      <point x="-581" y="-106"/>
      <point x="-588" y="-106"/>
      <point x="-589" y="-106" type="curve"/>
      <point x="-589" y="-163" type="line"/>
      <point x="-587" y="-163"/>
      <point x="-585" y="-163"/>
      <point x="-584" y="-163" type="curve" smooth="yes"/>
      <point x="-572" y="-163"/>
      <point x="-565" y="-170"/>
      <point x="-565" y="-178" type="curve" smooth="yes"/>
      <point x="-565" y="-185"/>
      <point x="-572" y="-193"/>
      <point x="-589" y="-193" type="curve" smooth="yes"/>
      <point x="-598" y="-193"/>
      <point x="-602" y="-191"/>
      <point x="-609" y="-186" type="curve"/>
      <point x="-616" y="-204"/>
      <point x="-616" y="-235"/>
      <point x="-616" y="-238" type="curve" smooth="yes"/>
      <point x="-616" y="-318"/>
      <point x="-555" y="-359"/>
    </contour>
  </outline>
</glyph>
<glyph name="u1004.kham" format="2">
  <advance width="577"/>
  <anchor x="292" y="-53" name="BD"/>
  <anchor x="298" y="-53" name="BS"/>
  <anchor x="298" y="-53" name="L"/>
  <anchor x="298" y="495" name="U"/>
  <anchor x="0" y="0" name="_R"/>
  <outline>
    <contour>
      <point x="298" y="-23" type="curve" smooth="yes"/>
      <point x="372" y="-23"/>
      <point x="471" y="12"/>
      <point x="522" y="108" type="curve"/>
      <point x="420" y="160" type="line"/>
      <point x="393" y="114"/>
      <point x="350" y="91"/>
      <point x="298" y="91" type="curve" smooth="yes"/>
      <point x="228" y="91"/>
      <point x="169" y="151"/>
      <point x="169" y="222" type="curve" smooth="yes"/>
      <point x="169" y="292"/>
      <point x="228" y="352"/>
      <point x="298" y="352" type="curve" smooth="yes"/>
      <point x="304" y="352"/>
      <point x="319" y="352"/>
      <point x="336" y="348" type="curve"/>
      <point x="334" y="340"/>
      <point x="333" y="334"/>
      <point x="333" y="327" type="curve" smooth="yes"/>
      <point x="333" y="279"/>
      <point x="375" y="238"/>
      <point x="421" y="238" type="curve" smooth="yes"/>
      <point x="469" y="238"/>
      <point x="510" y="279"/>
      <point x="510" y="330" type="curve" smooth="yes"/>
      <point x="510" y="392"/>
      <point x="431" y="466"/>
      <point x="298" y="466" type="curve" smooth="yes"/>
      <point x="165" y="466"/>
      <point x="55" y="355"/>
      <point x="55" y="222" type="curve" smooth="yes"/>
      <point x="55" y="87"/>
      <point x="165" y="-23"/>
    </contour>
  </outline>
</glyph>
<glyph name="u1004.kinzi.thai" format="2">
  <advance width="55"/>
  <anchor x="-386" y="495" name="UM"/>
  <anchor x="-396" y="495" name="_U"/>
  <anchor x="-331" y="495" name="_Y"/>
  <outline>
    <contour>
      <point x="-227" y="511" type="curve"/>
      <point x="-204" y="708"/>
      <point x="-107" y="814"/>
      <point x="0" y="885" type="curve"/>
      <point x="-44" y="939" type="line"/>
      <point x="-159" y="861"/>
      <point x="-246" y="744"/>
      <point x="-282" y="586" type="curve"/>
      <point x="-302" y="586"/>
      <point x="-311" y="602"/>
      <point x="-311" y="633" type="curve" smooth="yes"/>
      <point x="-311" y="662"/>
      <point x="-294" y="758"/>
      <point x="-294" y="793" type="curve" smooth="yes"/>
      <point x="-294" y="864"/>
      <point x="-354" y="913"/>
      <point x="-414" y="913" type="curve" smooth="yes"/>
      <point x="-474" y="913"/>
      <point x="-534" y="863"/>
      <point x="-534" y="793" type="curve" smooth="yes"/>
      <point x="-534" y="735"/>
      <point x="-487" y="673"/>
      <point x="-414" y="673" type="curve" smooth="yes"/>
      <point x="-387" y="673"/>
      <point x="-358" y="684"/>
      <point x="-332" y="726" type="curve"/>
      <point x="-370" y="726" type="line"/>
      <point x="-375" y="696"/>
      <point x="-380" y="654"/>
      <point x="-380" y="631" type="curve" smooth="yes"/>
      <point x="-380" y="571"/>
      <point x="-359" y="511"/>
    </contour>
    <contour>
      <point x="-414" y="763" type="curve" smooth="yes"/>
      <point x="-430" y="763"/>
      <point x="-444" y="777"/>
      <point x="-444" y="793" type="curve" smooth="yes"/>
      <point x="-444" y="809"/>
      <point x="-430" y="823"/>
      <point x="-414" y="823" type="curve" smooth="yes"/>
      <point x="-398" y="823"/>
      <point x="-384" y="809"/>
      <point x="-384" y="793" type="curve" smooth="yes"/>
      <point x="-384" y="777"/>
      <point x="-398" y="763"/>
    </contour>
  </outline>
</glyph>
<glyph name="u1008.sml" format="2">
  <advance width="225"/>
  <anchor x="556" y="-53" name="BSM"/>
  <anchor x="-585" y="-53" name="LLM"/>
  <anchor x="107" y="-53" name="LM"/>
  <anchor x="0" y="495" name="U"/>
  <anchor x="-238" y="-100" name="_BS"/>
  <anchor x="-238" y="-53" name="_BSM"/>
  <outline>
    <component base="u1005.sml" xOffset="80"/>
    <contour>
      <point x="169" y="-383" type="line"/>
      <point x="169" y="444" type="line"/>
      <point x="55" y="444" type="line"/>
      <point x="55" y="-236" type="line"/>
      <point x="-32" y="-211" type="line"/>
      <point x="-114" y="-310" type="line"/>
    </contour>
  </outline>
</glyph>
<glyph name="u1009.sml" format="2">
  <anchor x="-393" y="-53" name="BDM"/>
  <anchor x="88" y="-53" name="BSM"/>
  <anchor x="-885" y="-53" name="LLM"/>
  <anchor x="107" y="-53" name="LM"/>
  <anchor x="-374" y="-380" name="SJ"/>
  <anchor x="-390" y="-100" name="_BD"/>
  <anchor x="-393" y="-53" name="_BDM"/>
  <anchor x="886" y="-100" name="_BS"/>
  <anchor x="886" y="-53" name="_BSM"/>
  <anchor x="-374" y="-68" name="_SJ"/>
  <outline>
    <contour>
      <point x="-570" y="-355" type="curve"/>
      <point x="-522" y="-291" type="line"/>
      <point x="-541" y="-273"/>
      <point x="-551" y="-256"/>
      <point x="-551" y="-228" type="curve" smooth="yes"/>
      <point x="-551" y="-201"/>
      <point x="-535" y="-173"/>
      <point x="-500" y="-173" type="curve" smooth="yes"/>
      <point x="-464" y="-173"/>
      <point x="-447" y="-201"/>
      <point x="-447" y="-228" type="curve" smooth="yes"/>
      <point x="-447" y="-256"/>
      <point x="-458" y="-273"/>
      <point x="-477" y="-291" type="curve"/>
      <point x="-429" y="-355" type="line"/>
      <point x="-388" y="-322"/>
      <point x="-369" y="-275"/>
      <point x="-369" y="-231" type="curve" smooth="yes"/>
      <point x="-369" y="-160"/>
      <point x="-417" y="-93"/>
      <point x="-500" y="-93" type="curve" smooth="yes"/>
      <point x="-582" y="-93"/>
      <point x="-630" y="-160"/>
      <point x="-630" y="-231" type="curve" smooth="yes"/>
      <point x="-630" y="-276"/>
      <point x="-611" y="-322"/>
    </contour>
    <contour>
      <point x="-429" y="-355" type="line"/>
      <point x="-234" y="-355" type="line" smooth="yes"/>
      <point x="-162" y="-355"/>
      <point x="-119" y="-317"/>
      <point x="-119" y="-264" type="curve" smooth="yes"/>
      <point x="-119" y="-196" type="line" smooth="yes"/>
      <point x="-119" y="-130"/>
      <point x="-166" y="-93"/>
      <point x="-219" y="-93" type="curve" smooth="yes"/>
      <point x="-267" y="-93"/>
      <point x="-318" y="-127"/>
      <point x="-318" y="-189" type="curve" smooth="yes"/>
      <point x="-318" y="-195"/>
      <point x="-318" y="-199"/>
      <point x="-317" y="-205" type="curve"/>
      <point x="-237" y="-205" type="line"/>
      <point x="-238" y="-180"/>
      <point x="-230" y="-173"/>
      <point x="-219" y="-173" type="curve" smooth="yes"/>
      <point x="-211" y="-173"/>
      <point x="-200" y="-179"/>
      <point x="-200" y="-195" type="curve" smooth="yes"/>
      <point x="-200" y="-248" type="line" smooth="yes"/>
      <point x="-200" y="-267"/>
      <point x="-208" y="-275"/>
      <point x="-228" y="-275" type="curve" smooth="yes"/>
      <point x="-448" y="-275" type="line"/>
    </contour>
  </outline>
</glyph>
<glyph name="u100A.med" format="2">
  <anchor x="72" y="-53" name="BDM"/>
  <anchor x="72" y="-53" name="BSM"/>
  <anchor x="-842" y="-53" name="LLM"/>
  <anchor x="72" y="-53" name="LM"/>
  <anchor x="-385" y="-53" name="_BD"/>
  <anchor x="-368" y="-53" name="_BDM"/>
  <anchor x="839" y="-53" name="_BS"/>
  <anchor x="839" y="-53" name="_BSM"/>
  <outline>
    <contour>
      <point x="-513" y="-490" type="curve" smooth="yes"/>
      <point x="-201" y="-490" type="line" smooth="yes"/>
      <point x="-132" y="-490"/>
      <point x="-113" y="-445"/>
      <point x="-113" y="-393" type="curve" smooth="yes"/>
      <point x="-113" y="-366" type="line"/>
      <point x="-204" y="-366" type="line"/>
      <point x="-204" y="-378" type="line" smooth="yes"/>
      <point x="-204" y="-394"/>
      <point x="-213" y="-399"/>
      <point x="-224" y="-399" type="curve" smooth="yes"/>
      <point x="-477" y="-399" type="line" smooth="yes"/>
      <point x="-529" y="-399"/>
      <point x="-553" y="-393"/>
      <point x="-553" y="-335" type="curve" smooth="yes"/>
      <point x="-553" y="-330"/>
      <point x="-552" y="-324"/>
      <point x="-552" y="-317" type="curve"/>
      <point x="-629" y="-300" type="line"/>
      <point x="-599" y="-348"/>
      <point x="-551" y="-370"/>
      <point x="-502" y="-370" type="curve" smooth="yes"/>
      <point x="-425" y="-370"/>
      <point x="-349" y="-316"/>
      <point x="-349" y="-225" type="curve" smooth="yes"/>
      <point x="-349" y="-139"/>
      <point x="-422" y="-93"/>
      <point x="-491" y="-93" type="curve" smooth="yes"/>
      <point x="-549" y="-93"/>
      <point x="-606" y="-114"/>
      <point x="-645" y="-160" type="curve"/>
      <point x="-577" y="-227" type="line"/>
      <point x="-557" y="-202"/>
      <point x="-525" y="-189"/>
      <point x="-496" y="-189" type="curve" smooth="yes"/>
      <point x="-466" y="-189"/>
      <point x="-441" y="-203"/>
      <point x="-441" y="-232" type="curve" smooth="yes"/>
      <point x="-441" y="-262"/>
      <point x="-466" y="-274"/>
      <point x="-495" y="-274" type="curve" smooth="yes"/>
      <point x="-520" y="-274"/>
      <point x="-549" y="-264"/>
      <point x="-565" y="-247" type="curve"/>
      <point x="-648" y="-284" type="line"/>
      <point x="-650" y="-297"/>
      <point x="-651" y="-330"/>
      <point x="-651" y="-342" type="curve" smooth="yes"/>
      <point x="-651" y="-431"/>
      <point x="-598" y="-490"/>
    </contour>
    <contour>
      <point x="-270" y="-371" type="curve" smooth="yes"/>
      <point x="-188" y="-371"/>
      <point x="-111" y="-319"/>
      <point x="-111" y="-231" type="curve" smooth="yes"/>
      <point x="-111" y="-146"/>
      <point x="-175" y="-98"/>
      <point x="-253" y="-98" type="curve" smooth="yes"/>
      <point x="-273" y="-98"/>
      <point x="-293" y="-101"/>
      <point x="-314" y="-107" type="curve"/>
      <point x="-269" y="-197" type="line"/>
      <point x="-261" y="-195"/>
      <point x="-254" y="-194"/>
      <point x="-247" y="-194" type="curve" smooth="yes"/>
      <point x="-224" y="-194"/>
      <point x="-208" y="-206"/>
      <point x="-208" y="-232" type="curve" smooth="yes"/>
      <point x="-208" y="-261"/>
      <point x="-235" y="-276"/>
      <point x="-267" y="-276" type="curve" smooth="yes"/>
      <point x="-304" y="-276"/>
      <point x="-347" y="-253"/>
      <point x="-356" y="-206" type="curve"/>
      <point x="-409" y="-306" type="line"/>
      <point x="-373" y="-350"/>
      <point x="-321" y="-371"/>
    </contour>
  </outline>
</glyph>
<glyph name="u100A_u100A" format="2">
  <advance width="1333"/>
  <anchor x="1063" y="-53" name="BD"/>
  <anchor x="1041" y="-53" name="BS"/>
  <anchor x="604" y="-53" name="L"/>
  <anchor x="655" y="495" name="U"/>
  <anchor x="0" y="0" name="_R"/>
  <outline>
    <contour>
      <point x="244" y="-471" type="curve" smooth="yes"/>
      <point x="1130" y="-471" type="line" smooth="yes"/>
      <point x="1222" y="-471"/>
      <point x="1257" y="-438"/>
      <point x="1257" y="-344" type="curve" smooth="yes"/>
      <point x="1257" y="-272" type="line"/>
      <point x="1143" y="-272" type="line"/>
      <point x="1143" y="-320" type="line" smooth="yes"/>
      <point x="1143" y="-346"/>
      <point x="1136" y="-357"/>
      <point x="1113" y="-357" type="curve" smooth="yes"/>
      <point x="256" y="-357" type="line" smooth="yes"/>
      <point x="204" y="-357"/>
      <point x="169" y="-326"/>
      <point x="169" y="-273" type="curve" smooth="yes"/>
      <point x="169" y="48" type="line"/>
      <point x="118" y="32" type="line"/>
      <point x="167" y="-7"/>
      <point x="226" y="-23"/>
      <point x="272" y="-23" type="curve" smooth="yes"/>
      <point x="353" y="-23"/>
      <point x="421" y="18"/>
      <point x="459" y="65" type="curve"/>
      <point x="499" y="18"/>
      <point x="564" y="-23"/>
      <point x="647" y="-23" type="curve" smooth="yes"/>
      <point x="779" y="-23"/>
      <point x="891" y="85"/>
      <point x="891" y="222" type="curve" smooth="yes"/>
      <point x="891" y="353"/>
      <point x="783" y="466"/>
      <point x="647" y="466" type="curve" smooth="yes"/>
      <point x="626" y="466"/>
      <point x="596" y="463"/>
      <point x="579" y="456" type="curve"/>
      <point x="621" y="349" type="line"/>
      <point x="629" y="351"/>
      <point x="638" y="352"/>
      <point x="647" y="352" type="curve" smooth="yes"/>
      <point x="720" y="352"/>
      <point x="777" y="291"/>
      <point x="777" y="222" type="curve" smooth="yes"/>
      <point x="777" y="151"/>
      <point x="719" y="91"/>
      <point x="647" y="91" type="curve" smooth="yes"/>
      <point x="559" y="91"/>
      <point x="516" y="168"/>
      <point x="516" y="222" type="curve" smooth="yes"/>
      <point x="516" y="355"/>
      <point x="407" y="466"/>
      <point x="272" y="466" type="curve" smooth="yes"/>
      <point x="203" y="466"/>
      <point x="105" y="431"/>
      <point x="54" y="335" type="curve"/>
      <point x="156" y="282" type="line"/>
      <point x="185" y="333"/>
      <point x="232" y="352"/>
      <point x="272" y="352" type="curve" smooth="yes"/>
      <point x="345" y="352"/>
      <point x="402" y="291"/>
      <point x="402" y="222" type="curve" smooth="yes"/>
      <point x="402" y="151"/>
      <point x="345" y="91"/>
      <point x="272" y="91" type="curve" smooth="yes"/>
      <point x="235" y="91"/>
      <point x="190" y="105"/>
      <point x="156" y="160" type="curve"/>
      <point x="55" y="108" type="line"/>
      <point x="55" y="-282" type="line" smooth="yes"/>
      <point x="55" y="-389"/>
      <point x="145" y="-471"/>
    </contour>
    <contour>
      <point x="1026" y="-23" type="curve" smooth="yes"/>
      <point x="1157" y="-23"/>
      <point x="1266" y="88"/>
      <point x="1266" y="221" type="curve" smooth="yes"/>
      <point x="1266" y="356"/>
      <point x="1157" y="466"/>
      <point x="1026" y="466" type="curve" smooth="yes"/>
      <point x="1013" y="466"/>
      <point x="976" y="466"/>
      <point x="935" y="450" type="curve"/>
      <point x="980" y="344" type="line"/>
      <point x="1001" y="352"/>
      <point x="1018" y="352"/>
      <point x="1025" y="352" type="curve" smooth="yes"/>
      <point x="1097" y="352"/>
      <point x="1152" y="292"/>
      <point x="1152" y="221" type="curve" smooth="yes"/>
      <point x="1152" y="152"/>
      <point x="1093" y="91"/>
      <point x="1026" y="91" type="curve" smooth="yes"/>
      <point x="944" y="91"/>
      <point x="892" y="150"/>
      <point x="891" y="221" type="curve"/>
      <point x="821" y="82" type="line"/>
      <point x="854" y="33"/>
      <point x="924" y="-23"/>
    </contour>
  </outline>
</glyph>
<glyph name="u100B.med.thai" format="2">
  <anchor x="235" y="-53" name="BSM"/>
  <anchor x="-559" y="-53" name="LLM"/>
  <anchor x="95" y="-53" name="LM"/>
  <anchor x="-239" y="-53" name="_BS"/>
  <anchor x="-239" y="-53" name="_BSM"/>
  <outline>
    <contour>
      <point x="-289" y="-132" type="line"/>
      <point x="-267" y="-132"/>
      <point x="-179" y="-132"/>
      <point x="-153" y="-132" type="curve"/>
      <point x="-111" y="-84" type="line"/>
      <point x="-139" y="-84"/>
      <point x="-307" y="-84"/>
      <point x="-341" y="-84" type="curve"/>
    </contour>
    <contour>
      <point x="-335" y="-232" type="curve" smooth="yes"/>
      <point x="-284" y="-232"/>
      <point x="-246" y="-197"/>
      <point x="-246" y="-157" type="curve" smooth="yes"/>
      <point x="-246" y="-118"/>
      <point x="-286" y="-84"/>
      <point x="-332" y="-84" type="curve" smooth="yes"/>
      <point x="-381" y="-84"/>
      <point x="-421" y="-113"/>
      <point x="-421" y="-157" type="curve" smooth="yes"/>
      <point x="-421" y="-197"/>
      <point x="-387" y="-232"/>
    </contour>
    <contour>
      <point x="-104" y="-270" type="line"/>
      <point x="-179" y="-339"/>
      <point x="-233" y="-363"/>
      <point x="-310" y="-363" type="curve" smooth="yes"/>
      <point x="-347" y="-363"/>
      <point x="-379" y="-360"/>
      <point x="-406" y="-355" type="curve"/>
      <point x="-406" y="-380"/>
      <point x="-406" y="-416"/>
      <point x="-406" y="-428" type="curve"/>
      <point x="-371" y="-433"/>
      <point x="-340" y="-435"/>
      <point x="-311" y="-435" type="curve" smooth="yes"/>
      <point x="-234" y="-435"/>
      <point x="-185" y="-419"/>
      <point x="-136" y="-390" type="curve"/>
      <point x="-136" y="-472" type="line"/>
      <point x="-9" y="-472" type="line"/>
      <point x="-9" y="-401" type="line"/>
      <point x="-66" y="-401" type="line"/>
      <point x="-66" y="-297" type="line"/>
    </contour>
    <contour>
      <point x="-117" y="-233" type="curve" smooth="yes"/>
      <point x="-65" y="-233"/>
      <point x="-31" y="-198"/>
      <point x="-31" y="-156" type="curve" smooth="yes"/>
      <point x="-31" y="-114"/>
      <point x="-71" y="-84"/>
      <point x="-120" y="-84" type="curve" smooth="yes"/>
      <point x="-166" y="-84"/>
      <point x="-206" y="-117"/>
      <point x="-206" y="-156" type="curve" smooth="yes"/>
      <point x="-206" y="-198"/>
      <point x="-171" y="-233"/>
    </contour>
    <contour>
      <point x="-309" y="-390" type="curve"/>
      <point x="-241" y="-404" type="line"/>
      <point x="-240" y="-367"/>
      <point x="-240" y="-330"/>
      <point x="-240" y="-309" type="curve" smooth="yes"/>
      <point x="-240" y="-273"/>
      <point x="-278" y="-238"/>
      <point x="-331" y="-238" type="curve" smooth="yes"/>
      <point x="-386" y="-238"/>
      <point x="-412" y="-268"/>
      <point x="-412" y="-299" type="curve" smooth="yes"/>
      <point x="-412" y="-328"/>
      <point x="-387" y="-357"/>
      <point x="-337" y="-357" type="curve" smooth="yes"/>
      <point x="-315" y="-357"/>
      <point x="-292" y="-348"/>
      <point x="-276" y="-333" type="curve"/>
      <point x="-300" y="-285" type="line"/>
      <point x="-305" y="-301"/>
      <point x="-319" y="-309"/>
      <point x="-332" y="-309" type="curve" smooth="yes"/>
      <point x="-342" y="-309"/>
      <point x="-347" y="-304"/>
      <point x="-347" y="-299" type="curve" smooth="yes"/>
      <point x="-347" y="-293"/>
      <point x="-342" y="-288"/>
      <point x="-332" y="-288" type="curve" smooth="yes"/>
      <point x="-317" y="-288"/>
      <point x="-308" y="-297"/>
      <point x="-308" y="-309" type="curve" smooth="yes"/>
      <point x="-308" y="-346"/>
      <point x="-309" y="-370"/>
    </contour>
    <contour>
      <point x="-335" y="-177" type="curve" smooth="yes"/>
      <point x="-347" y="-177"/>
      <point x="-357" y="-169"/>
      <point x="-357" y="-158" type="curve" smooth="yes"/>
      <point x="-357" y="-149"/>
      <point x="-347" y="-140"/>
      <point x="-335" y="-140" type="curve" smooth="yes"/>
      <point x="-322" y="-140"/>
      <point x="-312" y="-149"/>
      <point x="-312" y="-158" type="curve" smooth="yes"/>
      <point x="-312" y="-169"/>
      <point x="-322" y="-177"/>
    </contour>
    <contour>
      <point x="-118" y="-177" type="curve" smooth="yes"/>
      <point x="-131" y="-177"/>
      <point x="-141" y="-169"/>
      <point x="-141" y="-159" type="curve" smooth="yes"/>
      <point x="-141" y="-150"/>
      <point x="-131" y="-140"/>
      <point x="-118" y="-140" type="curve" smooth="yes"/>
      <point x="-105" y="-140"/>
      <point x="-95" y="-150"/>
      <point x="-95" y="-159" type="curve" smooth="yes"/>
      <point x="-95" y="-169"/>
      <point x="-105" y="-177"/>
    </contour>
  </outline>
</glyph>
<glyph name="u100B_u100C" format="2">
  <advance width="579"/>
  <anchor x="642" y="-53" name="BD"/>
  <anchor x="684" y="-53" name="BS"/>
  <anchor x="684" y="-53" name="L"/>
  <anchor x="298" y="495" name="U"/>
  <anchor x="0" y="0" name="_R"/>
  <outline>
    <contour>
      <point x="298" y="-23" type="curve" smooth="yes"/>
      <point x="372" y="-23"/>
      <point x="471" y="12"/>
      <point x="522" y="108" type="curve"/>
      <point x="420" y="160" type="line"/>
      <point x="383" y="105"/>
      <point x="342" y="91"/>
      <point x="298" y="91" type="curve" smooth="yes"/>
      <point x="229" y="91"/>
      <point x="169" y="151"/>
      <point x="169" y="222" type="curve" smooth="yes"/>
      <point x="169" y="291"/>
      <point x="229" y="352"/>
      <point x="298" y="352" type="curve" smooth="yes"/>
      <point x="317" y="352"/>
      <point x="377" y="350"/>
      <point x="420" y="283" type="curve"/>
      <point x="522" y="336" type="line"/>
      <point x="471" y="432"/>
      <point x="372" y="466"/>
      <point x="298" y="466" type="curve" smooth="yes"/>
      <point x="166" y="466"/>
      <point x="55" y="355"/>
      <point x="55" y="222" type="curve" smooth="yes"/>
      <point x="55" y="87"/>
      <point x="166" y="-23"/>
    </contour>
    <contour>
      <point x="223" y="-471" type="curve" smooth="yes"/>
      <point x="354" y="-471" type="line" smooth="yes"/>
      <point x="457" y="-471"/>
      <point x="522" y="-398"/>
      <point x="522" y="-282" type="curve" smooth="yes"/>
      <point x="522" y="18" type="line"/>
      <point x="472" y="-21"/>
      <point x="402" y="-66"/>
      <point x="298" y="-66" type="curve" smooth="yes"/>
      <point x="217" y="-66"/>
      <point x="143" y="-29"/>
      <point x="87" y="18" type="curve"/>
      <point x="87" y="-109" type="line"/>
      <point x="151" y="-148"/>
      <point x="225" y="-171"/>
      <point x="298" y="-171" type="curve" smooth="yes"/>
      <point x="336" y="-171"/>
      <point x="373" y="-166"/>
      <point x="408" y="-156" type="curve"/>
      <point x="408" y="-266" type="line" smooth="yes"/>
      <point x="408" y="-318"/>
      <point x="399" y="-357"/>
      <point x="331" y="-357" type="curve" smooth="yes"/>
      <point x="230" y="-357" type="line" smooth="yes"/>
      <point x="191" y="-357"/>
      <point x="177" y="-349"/>
      <point x="177" y="-327" type="curve" smooth="yes"/>
      <point x="177" y="-312"/>
      <point x="191" y="-301"/>
      <point x="209" y="-301" type="curve" smooth="yes"/>
      <point x="221" y="-301"/>
      <point x="236" y="-307"/>
      <point x="248" y="-321" type="curve"/>
      <point x="312" y="-227" type="line"/>
      <point x="280" y="-202"/>
      <point x="244" y="-191"/>
      <point x="208" y="-191" type="curve" smooth="yes"/>
      <point x="133" y="-191"/>
      <point x="63" y="-242"/>
      <point x="63" y="-332" type="curve" smooth="yes"/>
      <point x="63" y="-405"/>
      <point x="105" y="-471"/>
    </contour>
  </outline>
</glyph>
<glyph name="u100D.med" format="2">
  <anchor x="426" y="-53" name="BSM"/>
  <anchor x="-477" y="-53" name="LLM"/>
  <anchor x="60" y="-53" name="LM"/>
  <anchor x="-204" y="-53" name="_BS"/>
  <outline>
    <contour>
      <point x="-162" y="-454" type="line"/>
      <point x="-53" y="-454" type="line"/>
      <point x="-53" y="-394" type="line"/>
      <point x="-102" y="-394" type="line"/>
      <point x="-102" y="-323" type="line"/>
      <point x="-134" y="-341"/>
      <point x="-179" y="-347"/>
      <point x="-213" y="-347" type="curve" smooth="yes"/>
      <point x="-231" y="-347"/>
      <point x="-246" y="-346"/>
      <point x="-255" y="-343" type="curve"/>
      <point x="-255" y="-323" type="line"/>
      <point x="-238" y="-326"/>
      <point x="-220" y="-327"/>
      <point x="-203" y="-327" type="curve" smooth="yes"/>
      <point x="-143" y="-327"/>
      <point x="-91" y="-307"/>
      <point x="-91" y="-247" type="curve" smooth="yes"/>
      <point x="-91" y="-185"/>
      <point x="-149" y="-165"/>
      <point x="-215" y="-165" type="curve" smooth="yes"/>
      <point x="-248" y="-165"/>
      <point x="-284" y="-170"/>
      <point x="-315" y="-178" type="curve"/>
      <point x="-300" y="-240" type="line"/>
      <point x="-279" y="-231"/>
      <point x="-242" y="-225"/>
      <point x="-211" y="-225" type="curve" smooth="yes"/>
      <point x="-181" y="-225"/>
      <point x="-156" y="-231"/>
      <point x="-156" y="-247" type="curve" smooth="yes"/>
      <point x="-156" y="-262"/>
      <point x="-183" y="-267"/>
      <point x="-217" y="-267" type="curve" smooth="yes"/>
      <point x="-250" y="-267"/>
      <point x="-288" y="-262"/>
      <point x="-315" y="-256" type="curve"/>
      <point x="-315" y="-389" type="line"/>
      <point x="-294" y="-401"/>
      <point x="-255" y="-407"/>
      <point x="-219" y="-407" type="curve" smooth="yes"/>
      <point x="-197" y="-407"/>
      <point x="-176" y="-405"/>
      <point x="-162" y="-401" type="curve"/>
    </contour>
  </outline>
</glyph>
<glyph name="u100D_u100D" format="2">
  <advance width="600"/>
  <anchor x="627" y="-53" name="BD"/>
  <anchor x="642" y="-53" name="BS"/>
  <anchor x="642" y="-53" name="L"/>
  <anchor x="280" y="495" name="U"/>
  <anchor x="0" y="0" name="_R"/>
  <outline>
    <contour>
      <point x="367" y="-471" type="line"/>
      <point x="575" y="-471" type="line"/>
      <point x="575" y="-357" type="line"/>
      <point x="481" y="-357" type="line"/>
      <point x="481" y="-8" type="line"/>
      <point x="424" y="-44"/>
      <point x="355" y="-58"/>
      <point x="294" y="-58" type="curve" smooth="yes"/>
      <point x="246" y="-58"/>
      <point x="203" y="-49"/>
      <point x="177" y="-35" type="curve"/>
      <point x="177" y="1" type="line"/>
      <point x="213" y="-15"/>
      <point x="255" y="-22"/>
      <point x="284" y="-22" type="curve" smooth="yes"/>
      <point x="426" y="-22"/>
      <point x="529" y="88"/>
      <point x="529" y="223" type="curve" smooth="yes"/>
      <point x="529" y="356"/>
      <point x="421" y="467"/>
      <point x="284" y="467" type="curve" smooth="yes"/>
      <point x="209" y="467"/>
      <point x="113" y="426"/>
      <point x="68" y="334" type="curve"/>
      <point x="172" y="283" type="line"/>
      <point x="197" y="332"/>
      <point x="240" y="353"/>
      <point x="283" y="353" type="curve" smooth="yes"/>
      <point x="349" y="353"/>
      <point x="415" y="303"/>
      <point x="415" y="223" type="curve" smooth="yes"/>
      <point x="415" y="141"/>
      <point x="348" y="92"/>
      <point x="282" y="92" type="curve" smooth="yes"/>
      <point x="239" y="92"/>
      <point x="196" y="113"/>
      <point x="171" y="160" type="curve"/>
      <point x="69" y="108" type="line"/>
      <point x="69" y="-106" type="line"/>
      <point x="124" y="-149"/>
      <point x="212" y="-164"/>
      <point x="281" y="-164" type="curve" smooth="yes"/>
      <point x="317" y="-164"/>
      <point x="348" y="-160"/>
      <point x="367" y="-154" type="curve"/>
    </contour>
    <contour>
      <point x="238" y="-471" type="line"/>
      <point x="347" y="-471" type="line"/>
      <point x="347" y="-411" type="line"/>
      <point x="298" y="-411" type="line"/>
      <point x="298" y="-340" type="line"/>
      <point x="266" y="-358"/>
      <point x="221" y="-364"/>
      <point x="187" y="-364" type="curve" smooth="yes"/>
      <point x="169" y="-364"/>
      <point x="154" y="-363"/>
      <point x="145" y="-360" type="curve"/>
      <point x="145" y="-340" type="line"/>
      <point x="162" y="-343"/>
      <point x="180" y="-344"/>
      <point x="197" y="-344" type="curve" smooth="yes"/>
      <point x="257" y="-344"/>
      <point x="309" y="-324"/>
      <point x="309" y="-264" type="curve" smooth="yes"/>
      <point x="309" y="-202"/>
      <point x="251" y="-182"/>
      <point x="185" y="-182" type="curve" smooth="yes"/>
      <point x="152" y="-182"/>
      <point x="116" y="-187"/>
      <point x="85" y="-195" type="curve"/>
      <point x="100" y="-257" type="line"/>
      <point x="121" y="-248"/>
      <point x="158" y="-242"/>
      <point x="189" y="-242" type="curve" smooth="yes"/>
      <point x="219" y="-242"/>
      <point x="244" y="-248"/>
      <point x="244" y="-264" type="curve" smooth="yes"/>
      <point x="244" y="-279"/>
      <point x="217" y="-284"/>
      <point x="183" y="-284" type="curve" smooth="yes"/>
      <point x="150" y="-284"/>
      <point x="112" y="-279"/>
      <point x="85" y="-273" type="curve"/>
      <point x="85" y="-406" type="line"/>
      <point x="106" y="-418"/>
      <point x="145" y="-424"/>
      <point x="181" y="-424" type="curve" smooth="yes"/>
      <point x="203" y="-424"/>
      <point x="224" y="-422"/>
      <point x="238" y="-418" type="curve"/>
    </contour>
  </outline>
</glyph>
<glyph name="u100E.sml" format="2">
  <anchor x="144" y="-53" name="BSM"/>
  <anchor x="-586" y="-53" name="LLM"/>
  <anchor x="106" y="-53" name="LM"/>
  <anchor x="-240" y="-382" name="SJ"/>
  <anchor x="-239" y="-100" name="_BS"/>
  <anchor x="-239" y="-53" name="_BSM"/>
  <anchor x="-240" y="-73" name="_SJ"/>
  <outline>
    <contour>
      <point x="-245" y="-359" type="curve" smooth="yes"/>
      <point x="-176" y="-359"/>
      <point x="-106" y="-316"/>
      <point x="-106" y="-227" type="curve" smooth="yes"/>
      <point x="-106" y="-176"/>
      <point x="-127" y="-133"/>
      <point x="-159" y="-98" type="curve"/>
      <point x="-222" y="-143" type="line"/>
      <point x="-195" y="-167"/>
      <point x="-183" y="-196"/>
      <point x="-183" y="-220" type="curve" smooth="yes"/>
      <point x="-183" y="-262"/>
      <point x="-215" y="-280"/>
      <point x="-246" y="-280" type="curve" smooth="yes"/>
      <point x="-280" y="-280"/>
      <point x="-298" y="-254"/>
      <point x="-298" y="-228" type="curve" smooth="yes"/>
      <point x="-298" y="-223"/>
      <point x="-298" y="-218"/>
      <point x="-296" y="-213" type="curve"/>
      <point x="-357" y="-246" type="line"/>
      <point x="-348" y="-249"/>
      <point x="-340" y="-250"/>
      <point x="-332" y="-250" type="curve" smooth="yes"/>
      <point x="-280" y="-250"/>
      <point x="-253" y="-214"/>
      <point x="-253" y="-179" type="curve" smooth="yes"/>
      <point x="-253" y="-142"/>
      <point x="-281" y="-106"/>
      <point x="-337" y="-106" type="curve" smooth="yes"/>
      <point x="-339" y="-106"/>
      <point x="-346" y="-106"/>
      <point x="-347" y="-106" type="curve"/>
      <point x="-347" y="-163" type="line"/>
      <point x="-345" y="-163"/>
      <point x="-343" y="-163"/>
      <point x="-342" y="-163" type="curve" smooth="yes"/>
      <point x="-330" y="-163"/>
      <point x="-323" y="-170"/>
      <point x="-323" y="-178" type="curve" smooth="yes"/>
      <point x="-323" y="-185"/>
      <point x="-330" y="-193"/>
      <point x="-347" y="-193" type="curve" smooth="yes"/>
      <point x="-356" y="-193"/>
      <point x="-360" y="-191"/>
      <point x="-367" y="-186" type="curve"/>
      <point x="-374" y="-204"/>
      <point x="-374" y="-235"/>
      <point x="-374" y="-238" type="curve" smooth="yes"/>
      <point x="-374" y="-318"/>
      <point x="-313" y="-359"/>
    </contour>
  </outline>
</glyph>
<glyph name="u100F.med" format="2">
  <anchor x="105" y="-53" name="BDM"/>
  <anchor x="56" y="-53" name="BSM"/>
  <anchor x="-945" y="-53" name="LLM"/>
  <anchor x="105" y="-53" name="LM"/>
  <anchor x="-420" y="-53" name="_BD"/>
  <anchor x="-410" y="-53" name="_BDM"/>
  <anchor x="907" y="-53" name="_BS"/>
  <anchor x="907" y="-53" name="_BSM"/>
  <outline>
    <contour>
      <point x="-412" y="-468" type="curve" smooth="yes"/>
      <point x="-320" y="-468"/>
      <point x="-276" y="-420"/>
      <point x="-276" y="-366" type="curve" smooth="yes"/>
      <point x="-276" y="-320"/>
      <point x="-290" y="-296"/>
      <point x="-290" y="-256" type="curve" smooth="yes"/>
      <point x="-290" y="-199"/>
      <point x="-254" y="-170"/>
      <point x="-217" y="-170" type="curve" smooth="yes"/>
      <point x="-176" y="-170"/>
      <point x="-134" y="-204"/>
      <point x="-134" y="-274" type="curve" smooth="yes"/>
      <point x="-134" y="-325"/>
      <point x="-163" y="-365"/>
      <point x="-208" y="-365" type="curve" smooth="yes"/>
      <point x="-219" y="-365"/>
      <point x="-225" y="-364"/>
      <point x="-232" y="-360" type="curve"/>
      <point x="-263" y="-456" type="line"/>
      <point x="-245" y="-464"/>
      <point x="-228" y="-469"/>
      <point x="-207" y="-469" type="curve" smooth="yes"/>
      <point x="-94" y="-469"/>
      <point x="-32" y="-371"/>
      <point x="-32" y="-278" type="curve" smooth="yes"/>
      <point x="-32" y="-177"/>
      <point x="-96" y="-69"/>
      <point x="-216" y="-69" type="curve" smooth="yes"/>
      <point x="-324" y="-69"/>
      <point x="-391" y="-149"/>
      <point x="-391" y="-229" type="curve" smooth="yes"/>
      <point x="-391" y="-280"/>
      <point x="-375" y="-308"/>
      <point x="-375" y="-332" type="curve" smooth="yes"/>
      <point x="-375" y="-355"/>
      <point x="-390" y="-366"/>
      <point x="-412" y="-366" type="curve" smooth="yes"/>
      <point x="-434" y="-366"/>
      <point x="-449" y="-355"/>
      <point x="-449" y="-332" type="curve" smooth="yes"/>
      <point x="-449" y="-308"/>
      <point x="-433" y="-280"/>
      <point x="-433" y="-229" type="curve" smooth="yes"/>
      <point x="-433" y="-149"/>
      <point x="-500" y="-69"/>
      <point x="-608" y="-69" type="curve" smooth="yes"/>
      <point x="-728" y="-69"/>
      <point x="-792" y="-177"/>
      <point x="-792" y="-278" type="curve" smooth="yes"/>
      <point x="-792" y="-371"/>
      <point x="-730" y="-469"/>
      <point x="-617" y="-469" type="curve" smooth="yes"/>
      <point x="-596" y="-469"/>
      <point x="-579" y="-464"/>
      <point x="-561" y="-456" type="curve"/>
      <point x="-592" y="-360" type="line"/>
      <point x="-599" y="-364"/>
      <point x="-605" y="-365"/>
      <point x="-616" y="-365" type="curve" smooth="yes"/>
      <point x="-661" y="-365"/>
      <point x="-690" y="-325"/>
      <point x="-690" y="-274" type="curve" smooth="yes"/>
      <point x="-690" y="-204"/>
      <point x="-648" y="-170"/>
      <point x="-607" y="-170" type="curve" smooth="yes"/>
      <point x="-570" y="-170"/>
      <point x="-534" y="-199"/>
      <point x="-534" y="-256" type="curve" smooth="yes"/>
      <point x="-534" y="-296"/>
      <point x="-548" y="-320"/>
      <point x="-548" y="-366" type="curve" smooth="yes"/>
      <point x="-548" y="-420"/>
      <point x="-504" y="-468"/>
    </contour>
    <contour>
      <point x="-335" y="-199" type="curve"/>
      <point x="-279" y="-126" type="line"/>
      <point x="-318" y="-80"/>
      <point x="-371" y="-68"/>
      <point x="-412" y="-68" type="curve" smooth="yes"/>
      <point x="-452" y="-68"/>
      <point x="-494" y="-80"/>
      <point x="-544" y="-126" type="curve"/>
      <point x="-487" y="-200" type="line"/>
      <point x="-465" y="-181"/>
      <point x="-438" y="-172"/>
      <point x="-412" y="-172" type="curve" smooth="yes"/>
      <point x="-385" y="-172"/>
      <point x="-358" y="-181"/>
    </contour>
  </outline>
</glyph>
